<ttFont>
<head>
    <!-- Most of this table will be recalculated by the compiler -->
    <tableVersion value="1.0"/>
    <fontRevision value="1.001"/>
    <checkSumAdjustment value="0xb56ee9e2"/>
    <magicNumber value="0x5f0f3cf5"/>
    <flags value="00000000 00001011"/>
    <unitsPerEm value="2048"/>
    <created value="Fri Feb 12 15:39:53 2010"/>
    <modified value="Sat Oct 15 08:49:45 2016"/>
    <xMin value="-362"/>
    <yMin value="-512"/>
    <xMax value="1993"/>
    <yMax value="1821"/>
    <macStyle value="00000000 00000000"/>
    <lowestRecPPEM value="8"/>
    <fontDirectionHint value="2"/>
    <indexToLocFormat value="0"/>
    <glyphDataFormat value="0"/>
  </head>
    <TTGlyph name=".notdef" xMin="61" yMin="0" xMax="553" yMax="1365">
      <contour>
        <pt x="553" y="0" on="1"/>
        <pt x="61" y="0" on="1"/>
        <pt x="61" y="1365" on="1"/>
        <pt x="553" y="1365" on="1"/>
      </contour>
      <contour>
        <pt x="122" y="61" on="1"/>
        <pt x="492" y="61" on="1"/>
        <pt x="492" y="1304" on="1"/>
        <pt x="122" y="1304" on="1"/>
      </contour>
    </TTGlyph>
    <TTGlyph name="A" xMin="3" yMin="0" xMax="1291" yMax="1365">
      <contour>
        <pt x="983" y="0" on="1"/>
        <pt x="907" y="236" on="1"/>
        <pt x="381" y="236" on="1"/>
        <pt x="300" y="0" on="1"/>
        <pt x="3" y="0" on="1"/>
        <pt x="475" y="1365" on="1"/>
        <pt x="825" y="1365" on="1"/>
        <pt x="1291" y="0" on="1"/>
      </contour>
      <contour>
        <pt x="453" y="466" on="1"/>
        <pt x="833" y="466" on="1"/>
        <pt x="644" y="1031" on="1"/>
      </contour>
    </TTGlyph>
    <TTGlyph name="AE" xMin="-12" yMin="0" xMax="1649" yMax="1365">
      <contour>
        <pt x="1649" y="571" on="1"/>
        <pt x="1181" y="571" on="1"/>
        <pt x="1181" y="229" on="1"/>
        <pt x="1649" y="229" on="1"/>
        <pt x="1649" y="0" on="1"/>
        <pt x="901" y="0" on="1"/>
        <pt x="901" y="274" on="1"/>
        <pt x="433" y="274" on="1"/>
        <pt x="287" y="0" on="1"/>
        <pt x="-12" y="0" on="1"/>
        <pt x="729" y="1365" on="1"/>
        <pt x="1649" y="1365" on="1"/>
        <pt x="1649" y="1136" on="1"/>
        <pt x="1181" y="1136" on="1"/>
        <pt x="1181" y="800" on="1"/>
        <pt x="1649" y="800" on="1"/>
      </contour>
      <contour>
        <pt x="549" y="494" on="1"/>
        <pt x="901" y="494" on="1"/>
        <pt x="901" y="1152" on="1"/>
      </contour>
    </TTGlyph>
    <TTGlyph name="Aacute" xMin="3" yMin="0" xMax="1291" yMax="1760">
      <contour>
        <pt x="983" y="0" on="1"/>
        <pt x="907" y="236" on="1"/>
        <pt x="381" y="236" on="1"/>
        <pt x="300" y="0" on="1"/>
        <pt x="3" y="0" on="1"/>
        <pt x="475" y="1365" on="1"/>
        <pt x="825" y="1365" on="1"/>
        <pt x="1291" y="0" on="1"/>
      </contour>
      <contour>
        <pt x="453" y="466" on="1"/>
        <pt x="833" y="466" on="1"/>
        <pt x="644" y="1031" on="1"/>
      </contour>
      <contour>
        <pt x="512" y="1488" on="1"/>
        <pt x="705" y="1760" on="1"/>
        <pt x="974" y="1760" on="1"/>
        <pt x="690" y="1488" on="1"/>
      </contour>
    </TTGlyph>
    <TTGlyph name="Abreve" xMin="3" yMin="0" xMax="1291" yMax="1750">
      <contour>
        <pt x="983" y="0" on="1"/>
        <pt x="907" y="236" on="1"/>
        <pt x="381" y="236" on="1"/>
        <pt x="300" y="0" on="1"/>
        <pt x="3" y="0" on="1"/>
        <pt x="475" y="1365" on="1"/>
        <pt x="825" y="1365" on="1"/>
        <pt x="1291" y="0" on="1"/>
      </contour>
      <contour>
        <pt x="453" y="466" on="1"/>
        <pt x="833" y="466" on="1"/>
        <pt x="644" y="1031" on="1"/>
      </contour>
      <contour>
        <pt x="294" y="1750" on="1"/>
        <pt x="475" y="1750" on="1"/>
        <pt x="500" y="1711" on="0"/>
        <pt x="521" y="1691" on="1"/>
        <pt x="568" y="1650" on="0"/>
        <pt x="726" y="1650" on="0"/>
        <pt x="773" y="1691" on="1"/>
        <pt x="796" y="1711" on="0"/>
        <pt x="819" y="1750" on="1"/>
        <pt x="1000" y="1750" on="1"/>
        <pt x="974" y="1664" on="0"/>
        <pt x="929" y="1614" on="1"/>
        <pt x="825" y="1495" on="0"/>
        <pt x="647" y="1495" on="1"/>
        <pt x="470" y="1495" on="0"/>
        <pt x="365" y="1614" on="1"/>
        <pt x="319" y="1666" on="0"/>
      </contour>
    </TTGlyph>
    <TTGlyph name="Acircumflex" xMin="3" yMin="0" xMax="1291" yMax="1761">
      <contour>
        <pt x="983" y="0" on="1"/>
        <pt x="907" y="236" on="1"/>
        <pt x="381" y="236" on="1"/>
        <pt x="300" y="0" on="1"/>
        <pt x="3" y="0" on="1"/>
        <pt x="475" y="1365" on="1"/>
        <pt x="825" y="1365" on="1"/>
        <pt x="1291" y="0" on="1"/>
      </contour>
      <contour>
        <pt x="453" y="466" on="1"/>
        <pt x="833" y="466" on="1"/>
        <pt x="644" y="1031" on="1"/>
      </contour>
      <contour>
        <pt x="808" y="1488" on="1"/>
        <pt x="649" y="1627" on="1"/>
        <pt x="487" y="1488" on="1"/>
        <pt x="305" y="1488" on="1"/>
        <pt x="536" y="1761" on="1"/>
        <pt x="773" y="1761" on="1"/>
        <pt x="990" y="1488" on="1"/>
      </contour>
    </TTGlyph>
    <TTGlyph name="Acute" xMin="377" yMin="1488" xMax="839" yMax="1760">
      <contour>
        <pt x="377" y="1488" on="1"/>
        <pt x="570" y="1760" on="1"/>
        <pt x="839" y="1760" on="1"/>
        <pt x="555" y="1488" on="1"/>
      </contour>
    </TTGlyph>
    <TTGlyph name="Adieresis" xMin="3" yMin="0" xMax="1291" yMax="1781">
      <contour>
        <pt x="983" y="0" on="1"/>
        <pt x="907" y="236" on="1"/>
        <pt x="381" y="236" on="1"/>
        <pt x="300" y="0" on="1"/>
        <pt x="3" y="0" on="1"/>
        <pt x="475" y="1365" on="1"/>
        <pt x="825" y="1365" on="1"/>
        <pt x="1291" y="0" on="1"/>
      </contour>
      <contour>
        <pt x="453" y="466" on="1"/>
        <pt x="833" y="466" on="1"/>
        <pt x="644" y="1031" on="1"/>
      </contour>
      <contour>
        <pt x="428" y="1781" on="1"/>
        <pt x="490" y="1781" on="0"/>
        <pt x="530" y="1736" on="1"/>
        <pt x="568" y="1695" on="0"/>
        <pt x="568" y="1638" on="1"/>
        <pt x="568" y="1576" on="0"/>
        <pt x="519" y="1533" on="1"/>
        <pt x="482" y="1499" on="0"/>
        <pt x="427" y="1499" on="1"/>
        <pt x="364" y="1499" on="0"/>
        <pt x="324" y="1544" on="1"/>
        <pt x="286" y="1585" on="0"/>
        <pt x="286" y="1640" on="1"/>
        <pt x="286" y="1704" on="0"/>
        <pt x="335" y="1747" on="1"/>
        <pt x="372" y="1781" on="0"/>
      </contour>
      <contour>
        <pt x="864" y="1781" on="1"/>
        <pt x="926" y="1781" on="0"/>
        <pt x="966" y="1736" on="1"/>
        <pt x="1004" y="1695" on="0"/>
        <pt x="1004" y="1638" on="1"/>
        <pt x="1004" y="1576" on="0"/>
        <pt x="955" y="1533" on="1"/>
        <pt x="918" y="1499" on="0"/>
        <pt x="863" y="1499" on="1"/>
        <pt x="800" y="1499" on="0"/>
        <pt x="760" y="1544" on="1"/>
        <pt x="722" y="1585" on="0"/>
        <pt x="722" y="1640" on="1"/>
        <pt x="722" y="1704" on="0"/>
        <pt x="771" y="1747" on="1"/>
        <pt x="808" y="1781" on="0"/>
      </contour>
    </TTGlyph>
    <TTGlyph name="Adotaccent" xMin="3" yMin="0" xMax="1291" yMax="1781">
      <contour>
        <pt x="983" y="0" on="1"/>
        <pt x="907" y="236" on="1"/>
        <pt x="381" y="236" on="1"/>
        <pt x="300" y="0" on="1"/>
        <pt x="3" y="0" on="1"/>
        <pt x="475" y="1365" on="1"/>
        <pt x="825" y="1365" on="1"/>
        <pt x="1291" y="0" on="1"/>
      </contour>
      <contour>
        <pt x="453" y="466" on="1"/>
        <pt x="833" y="466" on="1"/>
        <pt x="644" y="1031" on="1"/>
      </contour>
      <contour>
        <pt x="646" y="1781" on="1"/>
        <pt x="708" y="1781" on="0"/>
        <pt x="748" y="1736" on="1"/>
        <pt x="786" y="1695" on="0"/>
        <pt x="786" y="1638" on="1"/>
        <pt x="786" y="1576" on="0"/>
        <pt x="737" y="1533" on="1"/>
        <pt x="700" y="1499" on="0"/>
        <pt x="645" y="1499" on="1"/>
        <pt x="582" y="1499" on="0"/>
        <pt x="542" y="1544" on="1"/>
        <pt x="504" y="1585" on="0"/>
        <pt x="504" y="1640" on="1"/>
        <pt x="504" y="1704" on="0"/>
        <pt x="553" y="1747" on="1"/>
        <pt x="590" y="1781" on="0"/>
      </contour>
    </TTGlyph>
    <TTGlyph name="Agrave" xMin="3" yMin="0" xMax="1291" yMax="1760">
      <contour>
        <pt x="983" y="0" on="1"/>
        <pt x="907" y="236" on="1"/>
        <pt x="381" y="236" on="1"/>
        <pt x="300" y="0" on="1"/>
        <pt x="3" y="0" on="1"/>
        <pt x="475" y="1365" on="1"/>
        <pt x="825" y="1365" on="1"/>
        <pt x="1291" y="0" on="1"/>
      </contour>
      <contour>
        <pt x="453" y="466" on="1"/>
        <pt x="833" y="466" on="1"/>
        <pt x="644" y="1031" on="1"/>
      </contour>
      <contour>
        <pt x="321" y="1760" on="1"/>
        <pt x="590" y="1760" on="1"/>
        <pt x="782" y="1488" on="1"/>
        <pt x="604" y="1488" on="1"/>
      </contour>
    </TTGlyph>
    <TTGlyph name="Amacron" xMin="3" yMin="0" xMax="1291" yMax="1686">
      <contour>
        <pt x="983" y="0" on="1"/>
        <pt x="907" y="236" on="1"/>
        <pt x="381" y="236" on="1"/>
        <pt x="300" y="0" on="1"/>
        <pt x="3" y="0" on="1"/>
        <pt x="475" y="1365" on="1"/>
        <pt x="825" y="1365" on="1"/>
        <pt x="1291" y="0" on="1"/>
      </contour>
      <contour>
        <pt x="453" y="466" on="1"/>
        <pt x="833" y="466" on="1"/>
        <pt x="644" y="1031" on="1"/>
      </contour>
      <contour>
        <pt x="848" y="1574" on="1"/>
        <pt x="446" y="1574" on="1"/>
        <pt x="446" y="1686" on="1"/>
        <pt x="848" y="1686" on="1"/>
      </contour>
    </TTGlyph>
    <TTGlyph name="Aogonek" xMin="1" yMin="-372" xMax="1417" yMax="1365">
      <contour>
        <pt x="806" y="1365" on="1"/>
        <pt x="1325" y="0" on="1"/>
        <pt x="1210" y="-67" on="0"/>
        <pt x="1210" y="-141" on="1"/>
        <pt x="1210" y="-187" on="0"/>
        <pt x="1247" y="-215" on="1"/>
        <pt x="1278" y="-239" on="0"/>
        <pt x="1319" y="-239" on="1"/>
        <pt x="1358" y="-239" on="0"/>
        <pt x="1417" y="-215" on="1"/>
        <pt x="1417" y="-341" on="1"/>
        <pt x="1336" y="-372" on="0"/>
        <pt x="1272" y="-372" on="1"/>
        <pt x="1180" y="-372" on="0"/>
        <pt x="1119" y="-321" on="1"/>
        <pt x="1058" y="-270" on="0"/>
        <pt x="1058" y="-199" on="1"/>
        <pt x="1058" y="-88" on="0"/>
        <pt x="1208" y="0" on="1"/>
        <pt x="1034" y="0" on="1"/>
        <pt x="928" y="284" on="1"/>
        <pt x="398" y="284" on="1"/>
        <pt x="291" y="0" on="1"/>
        <pt x="1" y="0" on="1"/>
        <pt x="524" y="1365" on="1"/>
      </contour>
      <contour>
        <pt x="462" y="487" on="1"/>
        <pt x="863" y="487" on="1"/>
        <pt x="731" y="833" on="1"/>
        <pt x="696" y="925" on="0"/>
        <pt x="666" y="1067" on="1"/>
        <pt x="632" y="928" on="0"/>
        <pt x="595" y="830" on="1"/>
      </contour>
    </TTGlyph>
    <TTGlyph name="Aring" xMin="3" yMin="0" xMax="1291" yMax="1821">
      <contour>
        <pt x="983" y="0" on="1"/>
        <pt x="907" y="236" on="1"/>
        <pt x="381" y="236" on="1"/>
        <pt x="300" y="0" on="1"/>
        <pt x="3" y="0" on="1"/>
        <pt x="475" y="1365" on="1"/>
        <pt x="825" y="1365" on="1"/>
        <pt x="1291" y="0" on="1"/>
      </contour>
      <contour>
        <pt x="453" y="466" on="1"/>
        <pt x="833" y="466" on="1"/>
        <pt x="644" y="1031" on="1"/>
      </contour>
      <contour>
        <pt x="649" y="1821" on="1"/>
        <pt x="730" y="1821" on="0"/>
        <pt x="788" y="1761" on="1"/>
        <pt x="837" y="1711" on="0"/>
        <pt x="837" y="1632" on="1"/>
        <pt x="837" y="1549" on="0"/>
        <pt x="773" y="1495" on="1"/>
        <pt x="718" y="1449" on="0"/>
        <pt x="647" y="1449" on="1"/>
        <pt x="563" y="1449" on="0"/>
        <pt x="506" y="1509" on="1"/>
        <pt x="457" y="1559" on="0"/>
        <pt x="457" y="1635" on="1"/>
        <pt x="457" y="1720" on="0"/>
        <pt x="521" y="1775" on="1"/>
        <pt x="574" y="1821" on="0"/>
      </contour>
      <contour>
        <pt x="648" y="1727" on="1"/>
        <pt x="604" y="1727" on="0"/>
        <pt x="575" y="1694" on="1"/>
        <pt x="553" y="1669" on="0"/>
        <pt x="553" y="1635" on="1"/>
        <pt x="553" y="1596" on="0"/>
        <pt x="583" y="1568" on="1"/>
        <pt x="608" y="1543" on="0"/>
        <pt x="647" y="1543" on="1"/>
        <pt x="692" y="1543" on="0"/>
        <pt x="719" y="1575" on="1"/>
        <pt x="741" y="1601" on="0"/>
        <pt x="741" y="1633" on="1"/>
        <pt x="741" y="1674" on="0"/>
        <pt x="711" y="1702" on="1"/>
        <pt x="686" y="1727" on="0"/>
      </contour>
    </TTGlyph>
    <TTGlyph name="Atilde" xMin="3" yMin="0" xMax="1291" yMax="1745">
      <contour>
        <pt x="983" y="0" on="1"/>
        <pt x="907" y="236" on="1"/>
        <pt x="381" y="236" on="1"/>
        <pt x="300" y="0" on="1"/>
        <pt x="3" y="0" on="1"/>
        <pt x="475" y="1365" on="1"/>
        <pt x="825" y="1365" on="1"/>
        <pt x="1291" y="0" on="1"/>
      </contour>
      <contour>
        <pt x="453" y="466" on="1"/>
        <pt x="833" y="466" on="1"/>
        <pt x="644" y="1031" on="1"/>
      </contour>
      <contour>
        <pt x="846" y="1745" on="1"/>
        <pt x="1017" y="1731" on="1"/>
        <pt x="956" y="1500" on="0"/>
        <pt x="799" y="1500" on="1"/>
        <pt x="754" y="1500" on="0"/>
        <pt x="649" y="1539" on="1"/>
        <pt x="565" y="1571" on="0"/>
        <pt x="541" y="1571" on="1"/>
        <pt x="488" y="1571" on="0"/>
        <pt x="476" y="1499" on="1"/>
        <pt x="305" y="1510" on="1"/>
        <pt x="322" y="1591" on="0"/>
        <pt x="344" y="1628" on="1"/>
        <pt x="381" y="1692" on="0"/>
        <pt x="440" y="1722" on="1"/>
        <pt x="480" y="1743" on="0"/>
        <pt x="560" y="1743" on="0"/>
        <pt x="692" y="1693" on="1"/>
        <pt x="751" y="1669" on="0"/>
        <pt x="769" y="1669" on="1"/>
        <pt x="821" y="1669" on="0"/>
      </contour>
    </TTGlyph>
    <TTGlyph name="B" xMin="143" yMin="0" xMax="1093" yMax="1365">
      <contour>
        <pt x="833" y="683" on="1"/>
        <pt x="937" y="661" on="0"/>
        <pt x="994" y="610" on="1"/>
        <pt x="1093" y="522" on="0"/>
        <pt x="1093" y="364" on="1"/>
        <pt x="1093" y="228" on="0"/>
        <pt x="1022" y="133" on="1"/>
        <pt x="955" y="46" on="0"/>
        <pt x="843" y="18" on="1"/>
        <pt x="771" y="0" on="0"/>
        <pt x="646" y="0" on="1"/>
        <pt x="143" y="0" on="1"/>
        <pt x="143" y="1365" on="1"/>
        <pt x="584" y="1365" on="1"/>
        <pt x="828" y="1365" on="0"/>
        <pt x="931" y="1286" on="1"/>
        <pt x="1063" y="1187" on="0"/>
        <pt x="1063" y="1000" on="1"/>
        <pt x="1063" y="856" on="0"/>
        <pt x="976" y="765" on="1"/>
        <pt x="927" y="714" on="0"/>
      </contour>
      <contour>
        <pt x="521" y="1152" on="1"/>
        <pt x="423" y="1152" on="1"/>
        <pt x="423" y="786" on="1"/>
        <pt x="535" y="786" on="1"/>
        <pt x="667" y="786" on="0"/>
        <pt x="781" y="882" on="0"/>
        <pt x="781" y="971" on="1"/>
        <pt x="781" y="1046" on="0"/>
        <pt x="739" y="1093" on="1"/>
        <pt x="688" y="1152" on="0"/>
      </contour>
      <contour>
        <pt x="544" y="577" on="1"/>
        <pt x="423" y="577" on="1"/>
        <pt x="423" y="206" on="1"/>
        <pt x="560" y="206" on="1"/>
        <pt x="655" y="206" on="0"/>
        <pt x="695" y="219" on="1"/>
        <pt x="810" y="256" on="0"/>
        <pt x="810" y="388" on="1"/>
        <pt x="810" y="498" on="0"/>
        <pt x="732" y="545" on="1"/>
        <pt x="676" y="577" on="0"/>
      </contour>
    </TTGlyph>
    <TTGlyph name="Breve" xMin="159" yMin="1495" xMax="865" yMax="1750">
      <contour>
        <pt x="159" y="1750" on="1"/>
        <pt x="340" y="1750" on="1"/>
        <pt x="365" y="1711" on="0"/>
        <pt x="386" y="1691" on="1"/>
        <pt x="433" y="1650" on="0"/>
        <pt x="591" y="1650" on="0"/>
        <pt x="638" y="1691" on="1"/>
        <pt x="659" y="1711" on="0"/>
        <pt x="684" y="1750" on="1"/>
        <pt x="865" y="1750" on="1"/>
        <pt x="840" y="1666" on="0"/>
        <pt x="794" y="1614" on="1"/>
        <pt x="689" y="1495" on="0"/>
        <pt x="512" y="1495" on="1"/>
        <pt x="334" y="1495" on="0"/>
        <pt x="230" y="1614" on="1"/>
        <pt x="185" y="1664" on="0"/>
      </contour>
    </TTGlyph>
    <TTGlyph name="C" xMin="76" yMin="-27" xMax="1270" yMax="1391">
      <contour>
        <pt x="1087" y="373" on="1"/>
        <pt x="1257" y="180" on="1"/>
        <pt x="1156" y="85" on="0"/>
        <pt x="1065" y="41" on="1"/>
        <pt x="921" y="-27" on="0"/>
        <pt x="749" y="-27" on="1"/>
        <pt x="444" y="-27" on="0"/>
        <pt x="260" y="178" on="1"/>
        <pt x="159" y="290" on="0"/>
        <pt x="111" y="444" on="1"/>
        <pt x="76" y="561" on="0"/>
        <pt x="76" y="680" on="1"/>
        <pt x="76" y="883" on="0"/>
        <pt x="170" y="1055" on="1"/>
        <pt x="264" y="1229" on="0"/>
        <pt x="432" y="1317" on="1"/>
        <pt x="574" y="1391" on="0"/>
        <pt x="754" y="1391" on="1"/>
        <pt x="938" y="1391" on="0"/>
        <pt x="1086" y="1315" on="1"/>
        <pt x="1170" y="1272" on="0"/>
        <pt x="1270" y="1175" on="1"/>
        <pt x="1087" y="990" on="1"/>
        <pt x="932" y="1132" on="0"/>
        <pt x="767" y="1132" on="1"/>
        <pt x="580" y="1132" on="0"/>
        <pt x="465" y="997" on="1"/>
        <pt x="360" y="874" on="0"/>
        <pt x="360" y="686" on="1"/>
        <pt x="360" y="547" on="0"/>
        <pt x="425" y="432" on="1"/>
        <pt x="475" y="342" on="0"/>
        <pt x="573" y="286" on="1"/>
        <pt x="667" y="232" on="0"/>
        <pt x="782" y="232" on="1"/>
        <pt x="966" y="232" on="0"/>
      </contour>
    </TTGlyph>
    <TTGlyph name="Cacute" xMin="76" yMin="-27" xMax="1270" yMax="1760">
      <contour>
        <pt x="1087" y="373" on="1"/>
        <pt x="1257" y="180" on="1"/>
        <pt x="1156" y="85" on="0"/>
        <pt x="1065" y="41" on="1"/>
        <pt x="921" y="-27" on="0"/>
        <pt x="749" y="-27" on="1"/>
        <pt x="444" y="-27" on="0"/>
        <pt x="260" y="178" on="1"/>
        <pt x="159" y="290" on="0"/>
        <pt x="111" y="444" on="1"/>
        <pt x="76" y="561" on="0"/>
        <pt x="76" y="680" on="1"/>
        <pt x="76" y="883" on="0"/>
        <pt x="170" y="1055" on="1"/>
        <pt x="264" y="1229" on="0"/>
        <pt x="432" y="1317" on="1"/>
        <pt x="574" y="1391" on="0"/>
        <pt x="754" y="1391" on="1"/>
        <pt x="938" y="1391" on="0"/>
        <pt x="1086" y="1315" on="1"/>
        <pt x="1170" y="1272" on="0"/>
        <pt x="1270" y="1175" on="1"/>
        <pt x="1087" y="990" on="1"/>
        <pt x="932" y="1132" on="0"/>
        <pt x="767" y="1132" on="1"/>
        <pt x="580" y="1132" on="0"/>
        <pt x="465" y="997" on="1"/>
        <pt x="360" y="874" on="0"/>
        <pt x="360" y="686" on="1"/>
        <pt x="360" y="547" on="0"/>
        <pt x="425" y="432" on="1"/>
        <pt x="475" y="342" on="0"/>
        <pt x="573" y="286" on="1"/>
        <pt x="667" y="232" on="0"/>
        <pt x="782" y="232" on="1"/>
        <pt x="966" y="232" on="0"/>
      </contour>
      <contour>
        <pt x="514" y="1488" on="1"/>
        <pt x="707" y="1760" on="1"/>
        <pt x="976" y="1760" on="1"/>
        <pt x="693" y="1488" on="1"/>
      </contour>
    </TTGlyph>
    <TTGlyph name="Caron" xMin="170" yMin="1488" xMax="855" yMax="1761">
      <contour>
        <pt x="352" y="1761" on="1"/>
        <pt x="510" y="1622" on="1"/>
        <pt x="672" y="1761" on="1"/>
        <pt x="855" y="1761" on="1"/>
        <pt x="624" y="1488" on="1"/>
        <pt x="387" y="1488" on="1"/>
        <pt x="170" y="1761" on="1"/>
      </contour>
    </TTGlyph>
    <TTGlyph name="Ccaron" xMin="76" yMin="-27" xMax="1270" yMax="1761">
      <contour>
        <pt x="1087" y="373" on="1"/>
        <pt x="1257" y="180" on="1"/>
        <pt x="1156" y="85" on="0"/>
        <pt x="1065" y="41" on="1"/>
        <pt x="921" y="-27" on="0"/>
        <pt x="749" y="-27" on="1"/>
        <pt x="444" y="-27" on="0"/>
        <pt x="260" y="178" on="1"/>
        <pt x="159" y="290" on="0"/>
        <pt x="111" y="444" on="1"/>
        <pt x="76" y="561" on="0"/>
        <pt x="76" y="680" on="1"/>
        <pt x="76" y="883" on="0"/>
        <pt x="170" y="1055" on="1"/>
        <pt x="264" y="1229" on="0"/>
        <pt x="432" y="1317" on="1"/>
        <pt x="574" y="1391" on="0"/>
        <pt x="754" y="1391" on="1"/>
        <pt x="938" y="1391" on="0"/>
        <pt x="1086" y="1315" on="1"/>
        <pt x="1170" y="1272" on="0"/>
        <pt x="1270" y="1175" on="1"/>
        <pt x="1087" y="990" on="1"/>
        <pt x="932" y="1132" on="0"/>
        <pt x="767" y="1132" on="1"/>
        <pt x="580" y="1132" on="0"/>
        <pt x="465" y="997" on="1"/>
        <pt x="360" y="874" on="0"/>
        <pt x="360" y="686" on="1"/>
        <pt x="360" y="547" on="0"/>
        <pt x="425" y="432" on="1"/>
        <pt x="475" y="342" on="0"/>
        <pt x="573" y="286" on="1"/>
        <pt x="667" y="232" on="0"/>
        <pt x="782" y="232" on="1"/>
        <pt x="966" y="232" on="0"/>
      </contour>
      <contour>
        <pt x="489" y="1761" on="1"/>
        <pt x="647" y="1622" on="1"/>
        <pt x="809" y="1761" on="1"/>
        <pt x="992" y="1761" on="1"/>
        <pt x="761" y="1488" on="1"/>
        <pt x="524" y="1488" on="1"/>
        <pt x="307" y="1761" on="1"/>
      </contour>
    </TTGlyph>
    <TTGlyph name="Ccedilla" xMin="76" yMin="-434" xMax="1270" yMax="1391">
      <contour>
        <pt x="1087" y="373" on="1"/>
        <pt x="1257" y="180" on="1"/>
        <pt x="1156" y="85" on="0"/>
        <pt x="1065" y="41" on="1"/>
        <pt x="921" y="-27" on="0"/>
        <pt x="749" y="-27" on="1"/>
        <pt x="444" y="-27" on="0"/>
        <pt x="260" y="178" on="1"/>
        <pt x="159" y="290" on="0"/>
        <pt x="111" y="444" on="1"/>
        <pt x="76" y="561" on="0"/>
        <pt x="76" y="680" on="1"/>
        <pt x="76" y="883" on="0"/>
        <pt x="170" y="1055" on="1"/>
        <pt x="265" y="1229" on="0"/>
        <pt x="432" y="1317" on="1"/>
        <pt x="574" y="1391" on="0"/>
        <pt x="755" y="1391" on="1"/>
        <pt x="938" y="1391" on="0"/>
        <pt x="1086" y="1315" on="1"/>
        <pt x="1170" y="1272" on="0"/>
        <pt x="1270" y="1175" on="1"/>
        <pt x="1087" y="990" on="1"/>
        <pt x="932" y="1132" on="0"/>
        <pt x="767" y="1132" on="1"/>
        <pt x="580" y="1132" on="0"/>
        <pt x="464" y="997" on="1"/>
        <pt x="360" y="873" on="0"/>
        <pt x="360" y="686" on="1"/>
        <pt x="360" y="547" on="0"/>
        <pt x="425" y="432" on="1"/>
        <pt x="475" y="342" on="0"/>
        <pt x="573" y="286" on="1"/>
        <pt x="667" y="232" on="0"/>
        <pt x="782" y="232" on="1"/>
        <pt x="966" y="232" on="0"/>
      </contour>
      <contour>
        <pt x="573" y="-434" on="1"/>
        <pt x="448" y="-339" on="1"/>
        <pt x="552" y="-287" on="0"/>
        <pt x="601" y="-226" on="1"/>
        <pt x="633" y="-183" on="0"/>
        <pt x="650" y="-123" on="1"/>
        <pt x="897" y="-194" on="1"/>
        <pt x="850" y="-267" on="0"/>
        <pt x="784" y="-321" on="1"/>
        <pt x="708" y="-383" on="0"/>
      </contour>
    </TTGlyph>
    <TTGlyph name="Ccircumflex" xMin="76" yMin="-27" xMax="1270" yMax="1761">
      <contour>
        <pt x="1087" y="373" on="1"/>
        <pt x="1257" y="180" on="1"/>
        <pt x="1156" y="85" on="0"/>
        <pt x="1065" y="41" on="1"/>
        <pt x="921" y="-27" on="0"/>
        <pt x="749" y="-27" on="1"/>
        <pt x="444" y="-27" on="0"/>
        <pt x="260" y="178" on="1"/>
        <pt x="159" y="290" on="0"/>
        <pt x="111" y="444" on="1"/>
        <pt x="76" y="561" on="0"/>
        <pt x="76" y="680" on="1"/>
        <pt x="76" y="883" on="0"/>
        <pt x="170" y="1055" on="1"/>
        <pt x="264" y="1229" on="0"/>
        <pt x="432" y="1317" on="1"/>
        <pt x="574" y="1391" on="0"/>
        <pt x="754" y="1391" on="1"/>
        <pt x="938" y="1391" on="0"/>
        <pt x="1086" y="1315" on="1"/>
        <pt x="1170" y="1272" on="0"/>
        <pt x="1270" y="1175" on="1"/>
        <pt x="1087" y="990" on="1"/>
        <pt x="932" y="1132" on="0"/>
        <pt x="767" y="1132" on="1"/>
        <pt x="580" y="1132" on="0"/>
        <pt x="465" y="997" on="1"/>
        <pt x="360" y="874" on="0"/>
        <pt x="360" y="686" on="1"/>
        <pt x="360" y="547" on="0"/>
        <pt x="425" y="432" on="1"/>
        <pt x="475" y="342" on="0"/>
        <pt x="573" y="286" on="1"/>
        <pt x="667" y="232" on="0"/>
        <pt x="782" y="232" on="1"/>
        <pt x="966" y="232" on="0"/>
      </contour>
      <contour>
        <pt x="810" y="1488" on="1"/>
        <pt x="652" y="1627" on="1"/>
        <pt x="490" y="1488" on="1"/>
        <pt x="307" y="1488" on="1"/>
        <pt x="539" y="1761" on="1"/>
        <pt x="775" y="1761" on="1"/>
        <pt x="992" y="1488" on="1"/>
      </contour>
    </TTGlyph>
    <TTGlyph name="Cdotaccent" xMin="76" yMin="-27" xMax="1270" yMax="1781">
      <contour>
        <pt x="1087" y="373" on="1"/>
        <pt x="1257" y="180" on="1"/>
        <pt x="1156" y="85" on="0"/>
        <pt x="1065" y="41" on="1"/>
        <pt x="921" y="-27" on="0"/>
        <pt x="749" y="-27" on="1"/>
        <pt x="444" y="-27" on="0"/>
        <pt x="260" y="178" on="1"/>
        <pt x="159" y="290" on="0"/>
        <pt x="111" y="444" on="1"/>
        <pt x="76" y="561" on="0"/>
        <pt x="76" y="680" on="1"/>
        <pt x="76" y="883" on="0"/>
        <pt x="170" y="1055" on="1"/>
        <pt x="264" y="1229" on="0"/>
        <pt x="432" y="1317" on="1"/>
        <pt x="574" y="1391" on="0"/>
        <pt x="754" y="1391" on="1"/>
        <pt x="938" y="1391" on="0"/>
        <pt x="1086" y="1315" on="1"/>
        <pt x="1170" y="1272" on="0"/>
        <pt x="1270" y="1175" on="1"/>
        <pt x="1087" y="990" on="1"/>
        <pt x="932" y="1132" on="0"/>
        <pt x="767" y="1132" on="1"/>
        <pt x="580" y="1132" on="0"/>
        <pt x="465" y="997" on="1"/>
        <pt x="360" y="874" on="0"/>
        <pt x="360" y="686" on="1"/>
        <pt x="360" y="547" on="0"/>
        <pt x="425" y="432" on="1"/>
        <pt x="475" y="342" on="0"/>
        <pt x="573" y="286" on="1"/>
        <pt x="667" y="232" on="0"/>
        <pt x="782" y="232" on="1"/>
        <pt x="966" y="232" on="0"/>
      </contour>
      <contour>
        <pt x="648" y="1781" on="1"/>
        <pt x="710" y="1781" on="0"/>
        <pt x="750" y="1736" on="1"/>
        <pt x="788" y="1695" on="0"/>
        <pt x="788" y="1638" on="1"/>
        <pt x="788" y="1576" on="0"/>
        <pt x="739" y="1533" on="1"/>
        <pt x="702" y="1499" on="0"/>
        <pt x="647" y="1499" on="1"/>
        <pt x="584" y="1499" on="0"/>
        <pt x="544" y="1544" on="1"/>
        <pt x="506" y="1585" on="0"/>
        <pt x="506" y="1640" on="1"/>
        <pt x="506" y="1704" on="0"/>
        <pt x="555" y="1747" on="1"/>
        <pt x="592" y="1781" on="0"/>
      </contour>
    </TTGlyph>
    <TTGlyph name="Cedilla" xMin="288" yMin="-434" xMax="737" yMax="-123">
      <contour>
        <pt x="413" y="-434" on="1"/>
        <pt x="288" y="-339" on="1"/>
        <pt x="393" y="-286" on="0"/>
        <pt x="440" y="-226" on="1"/>
        <pt x="473" y="-184" on="0"/>
        <pt x="490" y="-123" on="1"/>
        <pt x="737" y="-194" on="1"/>
        <pt x="688" y="-268" on="0"/>
        <pt x="623" y="-321" on="1"/>
        <pt x="546" y="-384" on="0"/>
      </contour>
    </TTGlyph>
    <TTGlyph name="Circumflex" xMin="170" yMin="1488" xMax="855" yMax="1761">
      <contour>
        <pt x="673" y="1488" on="1"/>
        <pt x="515" y="1627" on="1"/>
        <pt x="352" y="1488" on="1"/>
        <pt x="170" y="1488" on="1"/>
        <pt x="401" y="1761" on="1"/>
        <pt x="638" y="1761" on="1"/>
        <pt x="855" y="1488" on="1"/>
      </contour>
    </TTGlyph>
    <TTGlyph name="Comma.high" xMin="-59" yMin="906" xMax="278" yMax="1392">
      <contour>
        <pt x="56" y="1392" on="1"/>
        <pt x="278" y="1332" on="1"/>
        <pt x="116" y="906" on="1"/>
        <pt x="-59" y="952" on="1"/>
      </contour>
    </TTGlyph>
    <TTGlyph name="D" xMin="143" yMin="0" xMax="1236" yMax="1365">
      <contour>
        <pt x="546" y="0" on="1"/>
        <pt x="143" y="0" on="1"/>
        <pt x="143" y="1365" on="1"/>
        <pt x="530" y="1365" on="1"/>
        <pt x="761" y="1365" on="0"/>
        <pt x="900" y="1295" on="1"/>
        <pt x="1072" y="1210" on="0"/>
        <pt x="1161" y="1033" on="1"/>
        <pt x="1236" y="886" on="0"/>
        <pt x="1236" y="698" on="1"/>
        <pt x="1236" y="462" on="0"/>
        <pt x="1125" y="284" on="1"/>
        <pt x="948" y="0" on="0"/>
      </contour>
      <contour>
        <pt x="526" y="1138" on="1"/>
        <pt x="423" y="1138" on="1"/>
        <pt x="423" y="231" on="1"/>
        <pt x="477" y="231" on="1"/>
        <pt x="628" y="231" on="0"/>
        <pt x="715" y="272" on="1"/>
        <pt x="834" y="329" on="0"/>
        <pt x="898" y="452" on="1"/>
        <pt x="952" y="556" on="0"/>
        <pt x="952" y="689" on="1"/>
        <pt x="952" y="838" on="0"/>
        <pt x="886" y="951" on="1"/>
        <pt x="824" y="1056" on="0"/>
        <pt x="711" y="1102" on="1"/>
        <pt x="626" y="1138" on="0"/>
      </contour>
    </TTGlyph>
    <TTGlyph name="Dbreve" xMin="143" yMin="0" xMax="1236" yMax="1750">
      <contour>
        <pt x="546" y="0" on="1"/>
        <pt x="143" y="0" on="1"/>
        <pt x="143" y="1365" on="1"/>
        <pt x="530" y="1365" on="1"/>
        <pt x="761" y="1365" on="0"/>
        <pt x="900" y="1295" on="1"/>
        <pt x="1072" y="1210" on="0"/>
        <pt x="1161" y="1033" on="1"/>
        <pt x="1236" y="886" on="0"/>
        <pt x="1236" y="698" on="1"/>
        <pt x="1236" y="462" on="0"/>
        <pt x="1125" y="284" on="1"/>
        <pt x="948" y="0" on="0"/>
      </contour>
      <contour>
        <pt x="526" y="1138" on="1"/>
        <pt x="423" y="1138" on="1"/>
        <pt x="423" y="231" on="1"/>
        <pt x="477" y="231" on="1"/>
        <pt x="628" y="231" on="0"/>
        <pt x="715" y="272" on="1"/>
        <pt x="834" y="329" on="0"/>
        <pt x="898" y="452" on="1"/>
        <pt x="952" y="556" on="0"/>
        <pt x="952" y="689" on="1"/>
        <pt x="952" y="838" on="0"/>
        <pt x="886" y="951" on="1"/>
        <pt x="824" y="1056" on="0"/>
        <pt x="711" y="1102" on="1"/>
        <pt x="626" y="1138" on="0"/>
      </contour>
      <contour>
        <pt x="303" y="1750" on="1"/>
        <pt x="485" y="1750" on="1"/>
        <pt x="508" y="1712" on="0"/>
        <pt x="530" y="1691" on="1"/>
        <pt x="577" y="1650" on="0"/>
        <pt x="657" y="1650" on="1"/>
        <pt x="736" y="1650" on="0"/>
        <pt x="783" y="1691" on="1"/>
        <pt x="805" y="1712" on="0"/>
        <pt x="828" y="1750" on="1"/>
        <pt x="1009" y="1750" on="1"/>
        <pt x="983" y="1664" on="0"/>
        <pt x="938" y="1614" on="1"/>
        <pt x="834" y="1495" on="0"/>
        <pt x="656" y="1495" on="1"/>
        <pt x="479" y="1495" on="0"/>
        <pt x="374" y="1614" on="1"/>
        <pt x="328" y="1666" on="0"/>
      </contour>
    </TTGlyph>
    <TTGlyph name="Dcaron" xMin="143" yMin="0" xMax="1236" yMax="1761">
      <contour>
        <pt x="546" y="0" on="1"/>
        <pt x="143" y="0" on="1"/>
        <pt x="143" y="1365" on="1"/>
        <pt x="530" y="1365" on="1"/>
        <pt x="761" y="1365" on="0"/>
        <pt x="900" y="1295" on="1"/>
        <pt x="1072" y="1210" on="0"/>
        <pt x="1161" y="1033" on="1"/>
        <pt x="1236" y="886" on="0"/>
        <pt x="1236" y="698" on="1"/>
        <pt x="1236" y="462" on="0"/>
        <pt x="1125" y="284" on="1"/>
        <pt x="948" y="0" on="0"/>
      </contour>
      <contour>
        <pt x="526" y="1138" on="1"/>
        <pt x="423" y="1138" on="1"/>
        <pt x="423" y="231" on="1"/>
        <pt x="477" y="231" on="1"/>
        <pt x="628" y="231" on="0"/>
        <pt x="715" y="272" on="1"/>
        <pt x="834" y="329" on="0"/>
        <pt x="898" y="452" on="1"/>
        <pt x="952" y="556" on="0"/>
        <pt x="952" y="689" on="1"/>
        <pt x="952" y="838" on="0"/>
        <pt x="886" y="951" on="1"/>
        <pt x="824" y="1056" on="0"/>
        <pt x="711" y="1102" on="1"/>
        <pt x="626" y="1138" on="0"/>
      </contour>
      <contour>
        <pt x="496" y="1761" on="1"/>
        <pt x="654" y="1622" on="1"/>
        <pt x="816" y="1761" on="1"/>
        <pt x="999" y="1761" on="1"/>
        <pt x="768" y="1488" on="1"/>
        <pt x="531" y="1488" on="1"/>
        <pt x="314" y="1761" on="1"/>
      </contour>
    </TTGlyph>
    <TTGlyph name="Dcroat" xMin="10" yMin="0" xMax="1236" yMax="1365">
      <contour>
        <pt x="10" y="801" on="1"/>
        <pt x="143" y="801" on="1"/>
        <pt x="143" y="1365" on="1"/>
        <pt x="531" y="1365" on="1"/>
        <pt x="761" y="1365" on="0"/>
        <pt x="900" y="1295" on="1"/>
        <pt x="1074" y="1207" on="0"/>
        <pt x="1162" y="1033" on="1"/>
        <pt x="1236" y="887" on="0"/>
        <pt x="1236" y="698" on="1"/>
        <pt x="1236" y="462" on="0"/>
        <pt x="1125" y="284" on="1"/>
        <pt x="948" y="0" on="0"/>
        <pt x="546" y="0" on="1"/>
        <pt x="143" y="0" on="1"/>
        <pt x="143" y="582" on="1"/>
        <pt x="10" y="582" on="1"/>
      </contour>
      <contour>
        <pt x="423" y="1138" on="1"/>
        <pt x="423" y="801" on="1"/>
        <pt x="665" y="801" on="1"/>
        <pt x="665" y="582" on="1"/>
        <pt x="423" y="582" on="1"/>
        <pt x="423" y="232" on="1"/>
        <pt x="477" y="232" on="1"/>
        <pt x="631" y="232" on="0"/>
        <pt x="715" y="272" on="1"/>
        <pt x="834" y="329" on="0"/>
        <pt x="898" y="452" on="1"/>
        <pt x="952" y="556" on="0"/>
        <pt x="952" y="690" on="1"/>
        <pt x="952" y="838" on="0"/>
        <pt x="886" y="951" on="1"/>
        <pt x="824" y="1056" on="0"/>
        <pt x="711" y="1102" on="1"/>
        <pt x="626" y="1138" on="0"/>
        <pt x="526" y="1138" on="1"/>
      </contour>
    </TTGlyph>
    <TTGlyph name="Delta" xMin="16" yMin="0" xMax="1302" yMax="1365">
      <contour>
        <pt x="1302" y="0" on="1"/>
        <pt x="16" y="0" on="1"/>
        <pt x="518" y="1365" on="1"/>
        <pt x="796" y="1365" on="1"/>
      </contour>
      <contour>
        <pt x="659" y="1082" on="1"/>
        <pt x="358" y="233" on="1"/>
        <pt x="953" y="233" on="1"/>
      </contour>
    </TTGlyph>
    <TTGlyph name="Dieresis" xMin="151" yMin="1499" xMax="869" yMax="1781">
      <contour>
        <pt x="293" y="1781" on="1"/>
        <pt x="354" y="1781" on="0"/>
        <pt x="395" y="1736" on="1"/>
        <pt x="433" y="1695" on="0"/>
        <pt x="433" y="1638" on="1"/>
        <pt x="433" y="1576" on="0"/>
        <pt x="384" y="1533" on="1"/>
        <pt x="347" y="1499" on="0"/>
        <pt x="292" y="1499" on="1"/>
        <pt x="230" y="1499" on="0"/>
        <pt x="189" y="1544" on="1"/>
        <pt x="151" y="1585" on="0"/>
        <pt x="151" y="1640" on="1"/>
        <pt x="151" y="1704" on="0"/>
        <pt x="200" y="1747" on="1"/>
        <pt x="237" y="1781" on="0"/>
      </contour>
      <contour>
        <pt x="729" y="1781" on="1"/>
        <pt x="790" y="1781" on="0"/>
        <pt x="831" y="1736" on="1"/>
        <pt x="869" y="1695" on="0"/>
        <pt x="869" y="1638" on="1"/>
        <pt x="869" y="1576" on="0"/>
        <pt x="820" y="1533" on="1"/>
        <pt x="783" y="1499" on="0"/>
        <pt x="728" y="1499" on="1"/>
        <pt x="666" y="1499" on="0"/>
        <pt x="625" y="1544" on="1"/>
        <pt x="587" y="1585" on="0"/>
        <pt x="587" y="1640" on="1"/>
        <pt x="587" y="1704" on="0"/>
        <pt x="636" y="1747" on="1"/>
        <pt x="673" y="1781" on="0"/>
      </contour>
    </TTGlyph>
    <TTGlyph name="Dieresis.alt" xMin="188" yMin="1499" xMax="831" yMax="1781">
      <contour>
        <pt x="330" y="1781" on="1"/>
        <pt x="392" y="1781" on="0"/>
        <pt x="432" y="1736" on="1"/>
        <pt x="470" y="1695" on="0"/>
        <pt x="470" y="1638" on="1"/>
        <pt x="470" y="1576" on="0"/>
        <pt x="421" y="1533" on="1"/>
        <pt x="384" y="1499" on="0"/>
        <pt x="329" y="1499" on="1"/>
        <pt x="266" y="1499" on="0"/>
        <pt x="226" y="1544" on="1"/>
        <pt x="188" y="1585" on="0"/>
        <pt x="188" y="1640" on="1"/>
        <pt x="188" y="1704" on="0"/>
        <pt x="237" y="1747" on="1"/>
        <pt x="274" y="1781" on="0"/>
      </contour>
      <contour>
        <pt x="691" y="1781" on="1"/>
        <pt x="752" y="1781" on="0"/>
        <pt x="793" y="1736" on="1"/>
        <pt x="831" y="1695" on="0"/>
        <pt x="831" y="1638" on="1"/>
        <pt x="831" y="1576" on="0"/>
        <pt x="782" y="1533" on="1"/>
        <pt x="745" y="1499" on="0"/>
        <pt x="690" y="1499" on="1"/>
        <pt x="628" y="1499" on="0"/>
        <pt x="587" y="1544" on="1"/>
        <pt x="549" y="1585" on="0"/>
        <pt x="549" y="1640" on="1"/>
        <pt x="549" y="1704" on="0"/>
        <pt x="598" y="1747" on="1"/>
        <pt x="635" y="1781" on="0"/>
      </contour>
    </TTGlyph>
    <TTGlyph name="Dotaccent" xMin="369" yMin="1499" xMax="651" yMax="1781">
      <contour>
        <pt x="511" y="1781" on="1"/>
        <pt x="572" y="1781" on="0"/>
        <pt x="613" y="1736" on="1"/>
        <pt x="651" y="1695" on="0"/>
        <pt x="651" y="1638" on="1"/>
        <pt x="651" y="1576" on="0"/>
        <pt x="602" y="1533" on="1"/>
        <pt x="565" y="1499" on="0"/>
        <pt x="510" y="1499" on="1"/>
        <pt x="448" y="1499" on="0"/>
        <pt x="407" y="1544" on="1"/>
        <pt x="369" y="1585" on="0"/>
        <pt x="369" y="1640" on="1"/>
        <pt x="369" y="1704" on="0"/>
        <pt x="418" y="1747" on="1"/>
        <pt x="455" y="1781" on="0"/>
      </contour>
    </TTGlyph>
    <TTGlyph name="E" xMin="96" yMin="0" xMax="855" yMax="1365">
      <contour>
        <pt x="855" y="1136" on="1"/>
        <pt x="376" y="1136" on="1"/>
        <pt x="376" y="800" on="1"/>
        <pt x="855" y="800" on="1"/>
        <pt x="855" y="571" on="1"/>
        <pt x="376" y="571" on="1"/>
        <pt x="376" y="229" on="1"/>
        <pt x="855" y="229" on="1"/>
        <pt x="855" y="0" on="1"/>
        <pt x="96" y="0" on="1"/>
        <pt x="96" y="1365" on="1"/>
        <pt x="855" y="1365" on="1"/>
      </contour>
    </TTGlyph>
    <TTGlyph name="Eacute" xMin="96" yMin="0" xMax="855" yMax="1760">
      <contour>
        <pt x="855" y="1136" on="1"/>
        <pt x="376" y="1136" on="1"/>
        <pt x="376" y="800" on="1"/>
        <pt x="855" y="800" on="1"/>
        <pt x="855" y="571" on="1"/>
        <pt x="376" y="571" on="1"/>
        <pt x="376" y="229" on="1"/>
        <pt x="855" y="229" on="1"/>
        <pt x="855" y="0" on="1"/>
        <pt x="96" y="0" on="1"/>
        <pt x="96" y="1365" on="1"/>
        <pt x="855" y="1365" on="1"/>
      </contour>
      <contour>
        <pt x="339" y="1488" on="1"/>
        <pt x="532" y="1760" on="1"/>
        <pt x="801" y="1760" on="1"/>
        <pt x="517" y="1488" on="1"/>
      </contour>
    </TTGlyph>
    <TTGlyph name="Ebreve" xMin="96" yMin="0" xMax="855" yMax="1750">
      <contour>
        <pt x="855" y="1136" on="1"/>
        <pt x="376" y="1136" on="1"/>
        <pt x="376" y="800" on="1"/>
        <pt x="855" y="800" on="1"/>
        <pt x="855" y="571" on="1"/>
        <pt x="376" y="571" on="1"/>
        <pt x="376" y="229" on="1"/>
        <pt x="855" y="229" on="1"/>
        <pt x="855" y="0" on="1"/>
        <pt x="96" y="0" on="1"/>
        <pt x="96" y="1365" on="1"/>
        <pt x="855" y="1365" on="1"/>
      </contour>
      <contour>
        <pt x="121" y="1750" on="1"/>
        <pt x="303" y="1750" on="1"/>
        <pt x="326" y="1712" on="0"/>
        <pt x="348" y="1691" on="1"/>
        <pt x="395" y="1650" on="0"/>
        <pt x="553" y="1650" on="0"/>
        <pt x="600" y="1691" on="1"/>
        <pt x="623" y="1711" on="0"/>
        <pt x="646" y="1750" on="1"/>
        <pt x="827" y="1750" on="1"/>
        <pt x="801" y="1664" on="0"/>
        <pt x="756" y="1614" on="1"/>
        <pt x="652" y="1495" on="0"/>
        <pt x="474" y="1495" on="1"/>
        <pt x="297" y="1495" on="0"/>
        <pt x="192" y="1614" on="1"/>
        <pt x="146" y="1666" on="0"/>
      </contour>
    </TTGlyph>
    <TTGlyph name="Ecaron" xMin="96" yMin="0" xMax="855" yMax="1761">
      <contour>
        <pt x="855" y="1136" on="1"/>
        <pt x="376" y="1136" on="1"/>
        <pt x="376" y="800" on="1"/>
        <pt x="855" y="800" on="1"/>
        <pt x="855" y="571" on="1"/>
        <pt x="376" y="571" on="1"/>
        <pt x="376" y="229" on="1"/>
        <pt x="855" y="229" on="1"/>
        <pt x="855" y="0" on="1"/>
        <pt x="96" y="0" on="1"/>
        <pt x="96" y="1365" on="1"/>
        <pt x="855" y="1365" on="1"/>
      </contour>
      <contour>
        <pt x="314" y="1761" on="1"/>
        <pt x="472" y="1622" on="1"/>
        <pt x="634" y="1761" on="1"/>
        <pt x="817" y="1761" on="1"/>
        <pt x="585" y="1488" on="1"/>
        <pt x="349" y="1488" on="1"/>
        <pt x="132" y="1761" on="1"/>
      </contour>
    </TTGlyph>
    <TTGlyph name="Ecircumflex" xMin="96" yMin="0" xMax="855" yMax="1761">
      <contour>
        <pt x="855" y="1136" on="1"/>
        <pt x="376" y="1136" on="1"/>
        <pt x="376" y="800" on="1"/>
        <pt x="855" y="800" on="1"/>
        <pt x="855" y="571" on="1"/>
        <pt x="376" y="571" on="1"/>
        <pt x="376" y="229" on="1"/>
        <pt x="855" y="229" on="1"/>
        <pt x="855" y="0" on="1"/>
        <pt x="96" y="0" on="1"/>
        <pt x="96" y="1365" on="1"/>
        <pt x="855" y="1365" on="1"/>
      </contour>
      <contour>
        <pt x="635" y="1488" on="1"/>
        <pt x="477" y="1627" on="1"/>
        <pt x="314" y="1488" on="1"/>
        <pt x="132" y="1488" on="1"/>
        <pt x="363" y="1761" on="1"/>
        <pt x="600" y="1761" on="1"/>
        <pt x="817" y="1488" on="1"/>
      </contour>
    </TTGlyph>
    <TTGlyph name="Edieresis" xMin="96" yMin="0" xMax="855" yMax="1781">
      <contour>
        <pt x="855" y="1136" on="1"/>
        <pt x="376" y="1136" on="1"/>
        <pt x="376" y="800" on="1"/>
        <pt x="855" y="800" on="1"/>
        <pt x="855" y="571" on="1"/>
        <pt x="376" y="571" on="1"/>
        <pt x="376" y="229" on="1"/>
        <pt x="855" y="229" on="1"/>
        <pt x="855" y="0" on="1"/>
        <pt x="96" y="0" on="1"/>
        <pt x="96" y="1365" on="1"/>
        <pt x="855" y="1365" on="1"/>
      </contour>
      <contour>
        <pt x="255" y="1781" on="1"/>
        <pt x="316" y="1781" on="0"/>
        <pt x="357" y="1736" on="1"/>
        <pt x="395" y="1695" on="0"/>
        <pt x="395" y="1638" on="1"/>
        <pt x="395" y="1576" on="0"/>
        <pt x="346" y="1533" on="1"/>
        <pt x="309" y="1499" on="0"/>
        <pt x="254" y="1499" on="1"/>
        <pt x="192" y="1499" on="0"/>
        <pt x="151" y="1544" on="1"/>
        <pt x="113" y="1585" on="0"/>
        <pt x="113" y="1640" on="1"/>
        <pt x="113" y="1704" on="0"/>
        <pt x="162" y="1747" on="1"/>
        <pt x="199" y="1781" on="0"/>
      </contour>
      <contour>
        <pt x="691" y="1781" on="1"/>
        <pt x="752" y="1781" on="0"/>
        <pt x="793" y="1736" on="1"/>
        <pt x="831" y="1695" on="0"/>
        <pt x="831" y="1638" on="1"/>
        <pt x="831" y="1576" on="0"/>
        <pt x="782" y="1533" on="1"/>
        <pt x="745" y="1499" on="0"/>
        <pt x="690" y="1499" on="1"/>
        <pt x="628" y="1499" on="0"/>
        <pt x="587" y="1544" on="1"/>
        <pt x="549" y="1585" on="0"/>
        <pt x="549" y="1640" on="1"/>
        <pt x="549" y="1704" on="0"/>
        <pt x="598" y="1747" on="1"/>
        <pt x="635" y="1781" on="0"/>
      </contour>
    </TTGlyph>
    <TTGlyph name="Edotaccent" xMin="96" yMin="0" xMax="855" yMax="1781">
      <contour>
        <pt x="855" y="1136" on="1"/>
        <pt x="376" y="1136" on="1"/>
        <pt x="376" y="800" on="1"/>
        <pt x="855" y="800" on="1"/>
        <pt x="855" y="571" on="1"/>
        <pt x="376" y="571" on="1"/>
        <pt x="376" y="229" on="1"/>
        <pt x="855" y="229" on="1"/>
        <pt x="855" y="0" on="1"/>
        <pt x="96" y="0" on="1"/>
        <pt x="96" y="1365" on="1"/>
        <pt x="855" y="1365" on="1"/>
      </contour>
      <contour>
        <pt x="473" y="1781" on="1"/>
        <pt x="534" y="1781" on="0"/>
        <pt x="575" y="1736" on="1"/>
        <pt x="613" y="1695" on="0"/>
        <pt x="613" y="1638" on="1"/>
        <pt x="613" y="1575" on="0"/>
        <pt x="564" y="1533" on="1"/>
        <pt x="527" y="1499" on="0"/>
        <pt x="472" y="1499" on="1"/>
        <pt x="410" y="1499" on="0"/>
        <pt x="369" y="1544" on="1"/>
        <pt x="331" y="1585" on="0"/>
        <pt x="331" y="1640" on="1"/>
        <pt x="331" y="1704" on="0"/>
        <pt x="380" y="1747" on="1"/>
        <pt x="417" y="1781" on="0"/>
      </contour>
    </TTGlyph>
    <TTGlyph name="Egrave" xMin="96" yMin="0" xMax="855" yMax="1760">
      <contour>
        <pt x="855" y="1136" on="1"/>
        <pt x="376" y="1136" on="1"/>
        <pt x="376" y="800" on="1"/>
        <pt x="855" y="800" on="1"/>
        <pt x="855" y="571" on="1"/>
        <pt x="376" y="571" on="1"/>
        <pt x="376" y="229" on="1"/>
        <pt x="855" y="229" on="1"/>
        <pt x="855" y="0" on="1"/>
        <pt x="96" y="0" on="1"/>
        <pt x="96" y="1365" on="1"/>
        <pt x="855" y="1365" on="1"/>
      </contour>
      <contour>
        <pt x="148" y="1760" on="1"/>
        <pt x="417" y="1760" on="1"/>
        <pt x="610" y="1488" on="1"/>
        <pt x="431" y="1488" on="1"/>
      </contour>
    </TTGlyph>
    <TTGlyph name="Emacron" xMin="96" yMin="0" xMax="855" yMax="1686">
      <contour>
        <pt x="855" y="1136" on="1"/>
        <pt x="376" y="1136" on="1"/>
        <pt x="376" y="800" on="1"/>
        <pt x="855" y="800" on="1"/>
        <pt x="855" y="571" on="1"/>
        <pt x="376" y="571" on="1"/>
        <pt x="376" y="229" on="1"/>
        <pt x="855" y="229" on="1"/>
        <pt x="855" y="0" on="1"/>
        <pt x="96" y="0" on="1"/>
        <pt x="96" y="1365" on="1"/>
        <pt x="855" y="1365" on="1"/>
      </contour>
      <contour>
        <pt x="677" y="1574" on="1"/>
        <pt x="275" y="1574" on="1"/>
        <pt x="275" y="1686" on="1"/>
        <pt x="677" y="1686" on="1"/>
      </contour>
    </TTGlyph>
    <TTGlyph name="Eng" xMin="124" yMin="-372" xMax="1220" yMax="1389">
      <contour>
        <pt x="124" y="0" on="1"/>
        <pt x="124" y="1354" on="1"/>
        <pt x="391" y="1354" on="1"/>
        <pt x="391" y="1125" on="1"/>
        <pt x="449" y="1233" on="0"/>
        <pt x="496" y="1279" on="1"/>
        <pt x="612" y="1389" on="0"/>
        <pt x="796" y="1389" on="1"/>
        <pt x="994" y="1389" on="0"/>
        <pt x="1115" y="1262" on="1"/>
        <pt x="1184" y="1190" on="0"/>
        <pt x="1207" y="1083" on="1"/>
        <pt x="1220" y="1022" on="0"/>
        <pt x="1220" y="916" on="1"/>
        <pt x="1220" y="-210" on="1"/>
        <pt x="1220" y="-309" on="0"/>
        <pt x="1168" y="-345" on="1"/>
        <pt x="1127" y="-372" on="0"/>
        <pt x="1016" y="-372" on="1"/>
        <pt x="770" y="-372" on="1"/>
        <pt x="770" y="-214" on="1"/>
        <pt x="796" y="-214" on="1"/>
        <pt x="895" y="-214" on="0"/>
        <pt x="919" y="-161" on="1"/>
        <pt x="936" y="-122" on="0"/>
        <pt x="936" y="57" on="1"/>
        <pt x="936" y="851" on="1"/>
        <pt x="936" y="996" on="0"/>
        <pt x="881" y="1061" on="1"/>
        <pt x="814" y="1143" on="0"/>
        <pt x="692" y="1143" on="1"/>
        <pt x="590" y="1143" on="0"/>
        <pt x="513" y="1077" on="1"/>
        <pt x="450" y="1022" on="0"/>
        <pt x="428" y="940" on="1"/>
        <pt x="408" y="865" on="0"/>
        <pt x="408" y="759" on="1"/>
        <pt x="408" y="0" on="1"/>
      </contour>
    </TTGlyph>
    <TTGlyph name="Eogonek" xMin="124" yMin="-372" xMax="1284" yMax="1365">
      <contour>
        <pt x="1193" y="237" on="1"/>
        <pt x="1193" y="0" on="1"/>
        <pt x="1163" y="-18" on="0"/>
        <pt x="1137" y="-38" on="1"/>
        <pt x="1077" y="-83" on="0"/>
        <pt x="1077" y="-140" on="1"/>
        <pt x="1077" y="-185" on="0"/>
        <pt x="1112" y="-214" on="1"/>
        <pt x="1143" y="-239" on="0"/>
        <pt x="1187" y="-239" on="1"/>
        <pt x="1226" y="-239" on="0"/>
        <pt x="1284" y="-215" on="1"/>
        <pt x="1272" y="-341" on="1"/>
        <pt x="1189" y="-372" on="0"/>
        <pt x="1127" y="-372" on="1"/>
        <pt x="1034" y="-372" on="0"/>
        <pt x="912" y="-270" on="0"/>
        <pt x="912" y="-198" on="1"/>
        <pt x="912" y="-89" on="0"/>
        <pt x="1061" y="0" on="1"/>
        <pt x="124" y="0" on="1"/>
        <pt x="124" y="1365" on="1"/>
        <pt x="1177" y="1365" on="1"/>
        <pt x="1177" y="1137" on="1"/>
        <pt x="408" y="1137" on="1"/>
        <pt x="408" y="817" on="1"/>
        <pt x="1116" y="817" on="1"/>
        <pt x="1116" y="598" on="1"/>
        <pt x="408" y="598" on="1"/>
        <pt x="408" y="237" on="1"/>
      </contour>
    </TTGlyph>
    <TTGlyph name="Eth" xMin="10" yMin="0" xMax="1236" yMax="1365">
      <contour>
        <pt x="10" y="801" on="1"/>
        <pt x="143" y="801" on="1"/>
        <pt x="143" y="1365" on="1"/>
        <pt x="531" y="1365" on="1"/>
        <pt x="761" y="1365" on="0"/>
        <pt x="900" y="1295" on="1"/>
        <pt x="1074" y="1207" on="0"/>
        <pt x="1162" y="1033" on="1"/>
        <pt x="1236" y="887" on="0"/>
        <pt x="1236" y="698" on="1"/>
        <pt x="1236" y="462" on="0"/>
        <pt x="1125" y="284" on="1"/>
        <pt x="948" y="0" on="0"/>
        <pt x="546" y="0" on="1"/>
        <pt x="143" y="0" on="1"/>
        <pt x="143" y="582" on="1"/>
        <pt x="10" y="582" on="1"/>
      </contour>
      <contour>
        <pt x="423" y="1138" on="1"/>
        <pt x="423" y="801" on="1"/>
        <pt x="665" y="801" on="1"/>
        <pt x="665" y="582" on="1"/>
        <pt x="423" y="582" on="1"/>
        <pt x="423" y="232" on="1"/>
        <pt x="477" y="232" on="1"/>
        <pt x="631" y="232" on="0"/>
        <pt x="715" y="272" on="1"/>
        <pt x="834" y="329" on="0"/>
        <pt x="898" y="452" on="1"/>
        <pt x="952" y="556" on="0"/>
        <pt x="952" y="690" on="1"/>
        <pt x="952" y="838" on="0"/>
        <pt x="886" y="951" on="1"/>
        <pt x="824" y="1056" on="0"/>
        <pt x="711" y="1102" on="1"/>
        <pt x="626" y="1138" on="0"/>
        <pt x="526" y="1138" on="1"/>
      </contour>
    </TTGlyph>
    <TTGlyph name="Euro" xMin="0" yMin="-27" xMax="1020" yMax="1392">
      <contour>
        <pt x="86" y="811" on="1"/>
        <pt x="149" y="811" on="1"/>
        <pt x="166" y="929" on="0"/>
        <pt x="204" y="1026" on="1"/>
        <pt x="269" y="1190" on="0"/>
        <pt x="397" y="1294" on="1"/>
        <pt x="518" y="1392" on="0"/>
        <pt x="675" y="1392" on="1"/>
        <pt x="872" y="1392" on="0"/>
        <pt x="1020" y="1247" on="1"/>
        <pt x="904" y="980" on="1"/>
        <pt x="872" y="1036" on="0"/>
        <pt x="829" y="1073" on="1"/>
        <pt x="763" y="1133" on="0"/>
        <pt x="683" y="1133" on="1"/>
        <pt x="562" y="1133" on="0"/>
        <pt x="485" y="981" on="1"/>
        <pt x="451" y="914" on="0"/>
        <pt x="435" y="811" on="1"/>
        <pt x="811" y="811" on="1"/>
        <pt x="726" y="549" on="1"/>
        <pt x="439" y="549" on="1"/>
        <pt x="462" y="435" on="0"/>
        <pt x="505" y="366" on="1"/>
        <pt x="591" y="232" on="0"/>
        <pt x="708" y="232" on="1"/>
        <pt x="827" y="232" on="0"/>
        <pt x="919" y="340" on="1"/>
        <pt x="940" y="367" on="0"/>
        <pt x="954" y="389" on="1"/>
        <pt x="954" y="49" on="1"/>
        <pt x="827" y="-27" on="0"/>
        <pt x="696" y="-27" on="1"/>
        <pt x="472" y="-27" on="0"/>
        <pt x="308" y="170" on="1"/>
        <pt x="181" y="325" on="0"/>
        <pt x="150" y="549" on="1"/>
        <pt x="0" y="549" on="1"/>
      </contour>
    </TTGlyph>
    <TTGlyph name="F" xMin="143" yMin="0" xMax="903" yMax="1365">
      <contour>
        <pt x="903" y="1136" on="1"/>
        <pt x="423" y="1136" on="1"/>
        <pt x="423" y="800" on="1"/>
        <pt x="903" y="800" on="1"/>
        <pt x="903" y="571" on="1"/>
        <pt x="423" y="571" on="1"/>
        <pt x="423" y="0" on="1"/>
        <pt x="143" y="0" on="1"/>
        <pt x="143" y="1365" on="1"/>
        <pt x="903" y="1365" on="1"/>
      </contour>
    </TTGlyph>
    <TTGlyph name="Fdotaccent" xMin="143" yMin="0" xMax="903" yMax="1781">
      <contour>
        <pt x="903" y="1136" on="1"/>
        <pt x="423" y="1136" on="1"/>
        <pt x="423" y="800" on="1"/>
        <pt x="903" y="800" on="1"/>
        <pt x="903" y="571" on="1"/>
        <pt x="423" y="571" on="1"/>
        <pt x="423" y="0" on="1"/>
        <pt x="143" y="0" on="1"/>
        <pt x="143" y="1365" on="1"/>
        <pt x="903" y="1365" on="1"/>
      </contour>
      <contour>
        <pt x="478" y="1781" on="1"/>
        <pt x="540" y="1781" on="0"/>
        <pt x="580" y="1736" on="1"/>
        <pt x="618" y="1695" on="0"/>
        <pt x="618" y="1638" on="1"/>
        <pt x="618" y="1576" on="0"/>
        <pt x="569" y="1533" on="1"/>
        <pt x="532" y="1499" on="0"/>
        <pt x="477" y="1499" on="1"/>
        <pt x="414" y="1499" on="0"/>
        <pt x="374" y="1544" on="1"/>
        <pt x="336" y="1585" on="0"/>
        <pt x="336" y="1640" on="1"/>
        <pt x="336" y="1704" on="0"/>
        <pt x="385" y="1747" on="1"/>
        <pt x="422" y="1781" on="0"/>
      </contour>
    </TTGlyph>
    <TTGlyph name="G" xMin="76" yMin="-26" xMax="1480" yMax="1391">
      <contour>
        <pt x="796" y="537" on="1"/>
        <pt x="796" y="766" on="1"/>
        <pt x="1479" y="766" on="1"/>
        <pt x="1480" y="741" on="0"/>
        <pt x="1480" y="692" on="1"/>
        <pt x="1480" y="386" on="0"/>
        <pt x="1281" y="186" on="1"/>
        <pt x="1072" y="-26" on="0"/>
        <pt x="778" y="-26" on="1"/>
        <pt x="592" y="-26" on="0"/>
        <pt x="433" y="61" on="1"/>
        <pt x="268" y="149" on="0"/>
        <pt x="175" y="306" on="1"/>
        <pt x="76" y="471" on="0"/>
        <pt x="76" y="681" on="1"/>
        <pt x="76" y="986" on="0"/>
        <pt x="279" y="1192" on="1"/>
        <pt x="475" y="1391" on="0"/>
        <pt x="775" y="1391" on="1"/>
        <pt x="985" y="1391" on="0"/>
        <pt x="1164" y="1278" on="1"/>
        <pt x="1257" y="1218" on="0"/>
        <pt x="1329" y="1129" on="1"/>
        <pt x="1117" y="963" on="1"/>
        <pt x="1061" y="1031" on="0"/>
        <pt x="1013" y="1063" on="1"/>
        <pt x="911" y="1132" on="0"/>
        <pt x="781" y="1132" on="1"/>
        <pt x="641" y="1132" on="0"/>
        <pt x="534" y="1052" on="1"/>
        <pt x="444" y="985" on="0"/>
        <pt x="396" y="867" on="1"/>
        <pt x="360" y="777" on="0"/>
        <pt x="360" y="679" on="1"/>
        <pt x="360" y="468" on="0"/>
        <pt x="508" y="336" on="1"/>
        <pt x="630" y="228" on="0"/>
        <pt x="789" y="228" on="1"/>
        <pt x="913" y="228" on="0"/>
        <pt x="1017" y="298" on="1"/>
        <pt x="1110" y="359" on="0"/>
        <pt x="1152" y="462" on="1"/>
        <pt x="1162" y="488" on="0"/>
        <pt x="1176" y="537" on="1"/>
      </contour>
    </TTGlyph>
    <TTGlyph name="Gbreve" xMin="76" yMin="-26" xMax="1480" yMax="1750">
      <contour>
        <pt x="796" y="537" on="1"/>
        <pt x="796" y="766" on="1"/>
        <pt x="1479" y="766" on="1"/>
        <pt x="1480" y="741" on="0"/>
        <pt x="1480" y="692" on="1"/>
        <pt x="1480" y="386" on="0"/>
        <pt x="1281" y="186" on="1"/>
        <pt x="1072" y="-26" on="0"/>
        <pt x="778" y="-26" on="1"/>
        <pt x="592" y="-26" on="0"/>
        <pt x="433" y="61" on="1"/>
        <pt x="268" y="149" on="0"/>
        <pt x="175" y="306" on="1"/>
        <pt x="76" y="471" on="0"/>
        <pt x="76" y="681" on="1"/>
        <pt x="76" y="986" on="0"/>
        <pt x="279" y="1192" on="1"/>
        <pt x="475" y="1391" on="0"/>
        <pt x="775" y="1391" on="1"/>
        <pt x="985" y="1391" on="0"/>
        <pt x="1164" y="1278" on="1"/>
        <pt x="1257" y="1218" on="0"/>
        <pt x="1329" y="1129" on="1"/>
        <pt x="1117" y="963" on="1"/>
        <pt x="1061" y="1031" on="0"/>
        <pt x="1013" y="1063" on="1"/>
        <pt x="911" y="1132" on="0"/>
        <pt x="781" y="1132" on="1"/>
        <pt x="641" y="1132" on="0"/>
        <pt x="534" y="1052" on="1"/>
        <pt x="444" y="985" on="0"/>
        <pt x="396" y="867" on="1"/>
        <pt x="360" y="777" on="0"/>
        <pt x="360" y="679" on="1"/>
        <pt x="360" y="468" on="0"/>
        <pt x="508" y="336" on="1"/>
        <pt x="630" y="228" on="0"/>
        <pt x="789" y="228" on="1"/>
        <pt x="913" y="228" on="0"/>
        <pt x="1017" y="298" on="1"/>
        <pt x="1110" y="359" on="0"/>
        <pt x="1152" y="462" on="1"/>
        <pt x="1162" y="488" on="0"/>
        <pt x="1176" y="537" on="1"/>
      </contour>
      <contour>
        <pt x="417" y="1750" on="1"/>
        <pt x="598" y="1750" on="1"/>
        <pt x="623" y="1711" on="0"/>
        <pt x="644" y="1691" on="1"/>
        <pt x="691" y="1650" on="0"/>
        <pt x="849" y="1650" on="0"/>
        <pt x="896" y="1691" on="1"/>
        <pt x="919" y="1711" on="0"/>
        <pt x="942" y="1750" on="1"/>
        <pt x="1123" y="1750" on="1"/>
        <pt x="1097" y="1664" on="0"/>
        <pt x="1052" y="1614" on="1"/>
        <pt x="948" y="1495" on="0"/>
        <pt x="770" y="1495" on="1"/>
        <pt x="593" y="1495" on="0"/>
        <pt x="488" y="1614" on="1"/>
        <pt x="442" y="1666" on="0"/>
      </contour>
    </TTGlyph>
    <TTGlyph name="Gcaron" xMin="76" yMin="-26" xMax="1480" yMax="1761">
      <contour>
        <pt x="796" y="537" on="1"/>
        <pt x="796" y="766" on="1"/>
        <pt x="1479" y="766" on="1"/>
        <pt x="1480" y="741" on="0"/>
        <pt x="1480" y="692" on="1"/>
        <pt x="1480" y="386" on="0"/>
        <pt x="1281" y="186" on="1"/>
        <pt x="1072" y="-26" on="0"/>
        <pt x="778" y="-26" on="1"/>
        <pt x="592" y="-26" on="0"/>
        <pt x="433" y="61" on="1"/>
        <pt x="268" y="149" on="0"/>
        <pt x="175" y="306" on="1"/>
        <pt x="76" y="471" on="0"/>
        <pt x="76" y="681" on="1"/>
        <pt x="76" y="986" on="0"/>
        <pt x="279" y="1192" on="1"/>
        <pt x="475" y="1391" on="0"/>
        <pt x="775" y="1391" on="1"/>
        <pt x="985" y="1391" on="0"/>
        <pt x="1164" y="1278" on="1"/>
        <pt x="1257" y="1218" on="0"/>
        <pt x="1329" y="1129" on="1"/>
        <pt x="1117" y="963" on="1"/>
        <pt x="1061" y="1031" on="0"/>
        <pt x="1013" y="1063" on="1"/>
        <pt x="911" y="1132" on="0"/>
        <pt x="781" y="1132" on="1"/>
        <pt x="641" y="1132" on="0"/>
        <pt x="534" y="1052" on="1"/>
        <pt x="444" y="985" on="0"/>
        <pt x="396" y="867" on="1"/>
        <pt x="360" y="777" on="0"/>
        <pt x="360" y="679" on="1"/>
        <pt x="360" y="468" on="0"/>
        <pt x="508" y="336" on="1"/>
        <pt x="630" y="228" on="0"/>
        <pt x="789" y="228" on="1"/>
        <pt x="913" y="228" on="0"/>
        <pt x="1017" y="298" on="1"/>
        <pt x="1110" y="359" on="0"/>
        <pt x="1152" y="462" on="1"/>
        <pt x="1162" y="488" on="0"/>
        <pt x="1176" y="537" on="1"/>
      </contour>
      <contour>
        <pt x="609" y="1761" on="1"/>
        <pt x="768" y="1622" on="1"/>
        <pt x="930" y="1761" on="1"/>
        <pt x="1113" y="1761" on="1"/>
        <pt x="881" y="1488" on="1"/>
        <pt x="645" y="1488" on="1"/>
        <pt x="428" y="1761" on="1"/>
      </contour>
    </TTGlyph>
    <TTGlyph name="Gcircumflex" xMin="76" yMin="-26" xMax="1480" yMax="1761">
      <contour>
        <pt x="796" y="537" on="1"/>
        <pt x="796" y="766" on="1"/>
        <pt x="1479" y="766" on="1"/>
        <pt x="1480" y="741" on="0"/>
        <pt x="1480" y="692" on="1"/>
        <pt x="1480" y="386" on="0"/>
        <pt x="1281" y="186" on="1"/>
        <pt x="1072" y="-26" on="0"/>
        <pt x="778" y="-26" on="1"/>
        <pt x="592" y="-26" on="0"/>
        <pt x="433" y="61" on="1"/>
        <pt x="268" y="149" on="0"/>
        <pt x="175" y="306" on="1"/>
        <pt x="76" y="471" on="0"/>
        <pt x="76" y="681" on="1"/>
        <pt x="76" y="986" on="0"/>
        <pt x="279" y="1192" on="1"/>
        <pt x="475" y="1391" on="0"/>
        <pt x="775" y="1391" on="1"/>
        <pt x="985" y="1391" on="0"/>
        <pt x="1164" y="1278" on="1"/>
        <pt x="1257" y="1218" on="0"/>
        <pt x="1329" y="1129" on="1"/>
        <pt x="1117" y="963" on="1"/>
        <pt x="1061" y="1031" on="0"/>
        <pt x="1013" y="1063" on="1"/>
        <pt x="911" y="1132" on="0"/>
        <pt x="781" y="1132" on="1"/>
        <pt x="641" y="1132" on="0"/>
        <pt x="534" y="1052" on="1"/>
        <pt x="444" y="985" on="0"/>
        <pt x="396" y="867" on="1"/>
        <pt x="360" y="777" on="0"/>
        <pt x="360" y="679" on="1"/>
        <pt x="360" y="468" on="0"/>
        <pt x="508" y="336" on="1"/>
        <pt x="630" y="228" on="0"/>
        <pt x="789" y="228" on="1"/>
        <pt x="913" y="228" on="0"/>
        <pt x="1017" y="298" on="1"/>
        <pt x="1110" y="359" on="0"/>
        <pt x="1152" y="462" on="1"/>
        <pt x="1162" y="488" on="0"/>
        <pt x="1176" y="537" on="1"/>
      </contour>
      <contour>
        <pt x="931" y="1488" on="1"/>
        <pt x="772" y="1627" on="1"/>
        <pt x="610" y="1488" on="1"/>
        <pt x="428" y="1488" on="1"/>
        <pt x="659" y="1761" on="1"/>
        <pt x="896" y="1761" on="1"/>
        <pt x="1113" y="1488" on="1"/>
      </contour>
    </TTGlyph>
    <TTGlyph name="Gcommaaccent" xMin="76" yMin="-465" xMax="1480" yMax="1391">
      <contour>
        <pt x="796" y="537" on="1"/>
        <pt x="796" y="766" on="1"/>
        <pt x="1479" y="766" on="1"/>
        <pt x="1480" y="741" on="0"/>
        <pt x="1480" y="692" on="1"/>
        <pt x="1480" y="386" on="0"/>
        <pt x="1281" y="186" on="1"/>
        <pt x="1072" y="-26" on="0"/>
        <pt x="778" y="-26" on="1"/>
        <pt x="592" y="-26" on="0"/>
        <pt x="433" y="61" on="1"/>
        <pt x="268" y="149" on="0"/>
        <pt x="175" y="306" on="1"/>
        <pt x="76" y="471" on="0"/>
        <pt x="76" y="681" on="1"/>
        <pt x="76" y="986" on="0"/>
        <pt x="279" y="1192" on="1"/>
        <pt x="475" y="1391" on="0"/>
        <pt x="775" y="1391" on="1"/>
        <pt x="985" y="1391" on="0"/>
        <pt x="1164" y="1278" on="1"/>
        <pt x="1257" y="1218" on="0"/>
        <pt x="1329" y="1129" on="1"/>
        <pt x="1117" y="963" on="1"/>
        <pt x="1061" y="1031" on="0"/>
        <pt x="1013" y="1063" on="1"/>
        <pt x="911" y="1132" on="0"/>
        <pt x="781" y="1132" on="1"/>
        <pt x="641" y="1132" on="0"/>
        <pt x="534" y="1052" on="1"/>
        <pt x="444" y="985" on="0"/>
        <pt x="396" y="867" on="1"/>
        <pt x="360" y="777" on="0"/>
        <pt x="360" y="679" on="1"/>
        <pt x="360" y="468" on="0"/>
        <pt x="508" y="336" on="1"/>
        <pt x="630" y="228" on="0"/>
        <pt x="789" y="228" on="1"/>
        <pt x="913" y="228" on="0"/>
        <pt x="1017" y="298" on="1"/>
        <pt x="1110" y="359" on="0"/>
        <pt x="1152" y="462" on="1"/>
        <pt x="1162" y="488" on="0"/>
        <pt x="1176" y="537" on="1"/>
      </contour>
      <contour>
        <pt x="653" y="-87" on="1"/>
        <pt x="884" y="-87" on="1"/>
        <pt x="884" y="-222" on="1"/>
        <pt x="884" y="-369" on="0"/>
        <pt x="802" y="-423" on="1"/>
        <pt x="749" y="-458" on="0"/>
        <pt x="642" y="-465" on="1"/>
        <pt x="642" y="-380" on="1"/>
        <pt x="705" y="-375" on="0"/>
        <pt x="742" y="-353" on="1"/>
        <pt x="776" y="-332" on="0"/>
        <pt x="781" y="-267" on="1"/>
        <pt x="653" y="-267" on="1"/>
      </contour>
    </TTGlyph>
    <TTGlyph name="Gdotaccent" xMin="76" yMin="-26" xMax="1480" yMax="1781">
      <contour>
        <pt x="796" y="537" on="1"/>
        <pt x="796" y="766" on="1"/>
        <pt x="1479" y="766" on="1"/>
        <pt x="1480" y="741" on="0"/>
        <pt x="1480" y="692" on="1"/>
        <pt x="1480" y="386" on="0"/>
        <pt x="1281" y="186" on="1"/>
        <pt x="1072" y="-26" on="0"/>
        <pt x="778" y="-26" on="1"/>
        <pt x="592" y="-26" on="0"/>
        <pt x="433" y="61" on="1"/>
        <pt x="268" y="149" on="0"/>
        <pt x="175" y="306" on="1"/>
        <pt x="76" y="471" on="0"/>
        <pt x="76" y="681" on="1"/>
        <pt x="76" y="986" on="0"/>
        <pt x="279" y="1192" on="1"/>
        <pt x="475" y="1391" on="0"/>
        <pt x="775" y="1391" on="1"/>
        <pt x="985" y="1391" on="0"/>
        <pt x="1164" y="1278" on="1"/>
        <pt x="1257" y="1218" on="0"/>
        <pt x="1329" y="1129" on="1"/>
        <pt x="1117" y="963" on="1"/>
        <pt x="1061" y="1031" on="0"/>
        <pt x="1013" y="1063" on="1"/>
        <pt x="911" y="1132" on="0"/>
        <pt x="781" y="1132" on="1"/>
        <pt x="641" y="1132" on="0"/>
        <pt x="534" y="1052" on="1"/>
        <pt x="444" y="985" on="0"/>
        <pt x="396" y="867" on="1"/>
        <pt x="360" y="777" on="0"/>
        <pt x="360" y="679" on="1"/>
        <pt x="360" y="468" on="0"/>
        <pt x="508" y="336" on="1"/>
        <pt x="630" y="228" on="0"/>
        <pt x="789" y="228" on="1"/>
        <pt x="913" y="228" on="0"/>
        <pt x="1017" y="298" on="1"/>
        <pt x="1110" y="359" on="0"/>
        <pt x="1152" y="462" on="1"/>
        <pt x="1162" y="488" on="0"/>
        <pt x="1176" y="537" on="1"/>
      </contour>
      <contour>
        <pt x="769" y="1781" on="1"/>
        <pt x="830" y="1781" on="0"/>
        <pt x="871" y="1736" on="1"/>
        <pt x="909" y="1695" on="0"/>
        <pt x="909" y="1638" on="1"/>
        <pt x="909" y="1576" on="0"/>
        <pt x="860" y="1533" on="1"/>
        <pt x="823" y="1499" on="0"/>
        <pt x="768" y="1499" on="1"/>
        <pt x="706" y="1499" on="0"/>
        <pt x="665" y="1544" on="1"/>
        <pt x="627" y="1585" on="0"/>
        <pt x="627" y="1640" on="1"/>
        <pt x="627" y="1704" on="0"/>
        <pt x="676" y="1747" on="1"/>
        <pt x="713" y="1781" on="0"/>
      </contour>
    </TTGlyph>
    <TTGlyph name="Grave" xMin="186" yMin="1488" xMax="648" yMax="1760">
      <contour>
        <pt x="186" y="1760" on="1"/>
        <pt x="455" y="1760" on="1"/>
        <pt x="648" y="1488" on="1"/>
        <pt x="469" y="1488" on="1"/>
      </contour>
    </TTGlyph>
    <TTGlyph name="H" xMin="143" yMin="0" xMax="1222" yMax="1365">
      <contour>
        <pt x="942" y="560" on="1"/>
        <pt x="423" y="560" on="1"/>
        <pt x="423" y="0" on="1"/>
        <pt x="143" y="0" on="1"/>
        <pt x="143" y="1365" on="1"/>
        <pt x="423" y="1365" on="1"/>
        <pt x="423" y="789" on="1"/>
        <pt x="942" y="789" on="1"/>
        <pt x="942" y="1365" on="1"/>
        <pt x="1222" y="1365" on="1"/>
        <pt x="1222" y="0" on="1"/>
        <pt x="942" y="0" on="1"/>
      </contour>
    </TTGlyph>
    <TTGlyph name="H18551" xMin="32" yMin="653" xMax="660" yMax="1256">
      <contour>
        <pt x="32" y="867" on="1"/>
        <pt x="32" y="1044" on="1"/>
        <pt x="251" y="1044" on="1"/>
        <pt x="251" y="1256" on="1"/>
        <pt x="441" y="1256" on="1"/>
        <pt x="441" y="1044" on="1"/>
        <pt x="660" y="1044" on="1"/>
        <pt x="660" y="867" on="1"/>
        <pt x="441" y="867" on="1"/>
        <pt x="441" y="653" on="1"/>
        <pt x="251" y="653" on="1"/>
        <pt x="251" y="867" on="1"/>
      </contour>
    </TTGlyph>
    <TTGlyph name="Hbar" xMin="5" yMin="0" xMax="1405" yMax="1365">
      <contour>
        <pt x="1287" y="1365" on="1"/>
        <pt x="1287" y="1200" on="1"/>
        <pt x="1405" y="1200" on="1"/>
        <pt x="1405" y="1038" on="1"/>
        <pt x="1287" y="1038" on="1"/>
        <pt x="1287" y="0" on="1"/>
        <pt x="1002" y="0" on="1"/>
        <pt x="1002" y="593" on="1"/>
        <pt x="409" y="593" on="1"/>
        <pt x="409" y="0" on="1"/>
        <pt x="125" y="0" on="1"/>
        <pt x="125" y="1038" on="1"/>
        <pt x="5" y="1038" on="1"/>
        <pt x="5" y="1200" on="1"/>
        <pt x="125" y="1200" on="1"/>
        <pt x="125" y="1365" on="1"/>
        <pt x="409" y="1365" on="1"/>
        <pt x="409" y="1200" on="1"/>
        <pt x="1002" y="1200" on="1"/>
        <pt x="1002" y="1365" on="1"/>
      </contour>
      <contour>
        <pt x="1002" y="1038" on="1"/>
        <pt x="409" y="1038" on="1"/>
        <pt x="409" y="809" on="1"/>
        <pt x="1002" y="809" on="1"/>
      </contour>
    </TTGlyph>
    <TTGlyph name="Hcircumflex" xMin="143" yMin="0" xMax="1222" yMax="1761">
      <contour>
        <pt x="942" y="560" on="1"/>
        <pt x="423" y="560" on="1"/>
        <pt x="423" y="0" on="1"/>
        <pt x="143" y="0" on="1"/>
        <pt x="143" y="1365" on="1"/>
        <pt x="423" y="1365" on="1"/>
        <pt x="423" y="789" on="1"/>
        <pt x="942" y="789" on="1"/>
        <pt x="942" y="1365" on="1"/>
        <pt x="1222" y="1365" on="1"/>
        <pt x="1222" y="0" on="1"/>
        <pt x="942" y="0" on="1"/>
      </contour>
      <contour>
        <pt x="843" y="1488" on="1"/>
        <pt x="685" y="1627" on="1"/>
        <pt x="523" y="1488" on="1"/>
        <pt x="340" y="1488" on="1"/>
        <pt x="572" y="1761" on="1"/>
        <pt x="808" y="1761" on="1"/>
        <pt x="1025" y="1488" on="1"/>
      </contour>
    </TTGlyph>
    <TTGlyph name="Hungarumlaut" xMin="225" yMin="1488" xMax="988" yMax="1757">
      <contour>
        <pt x="225" y="1488" on="1"/>
        <pt x="390" y="1757" on="1"/>
        <pt x="627" y="1757" on="1"/>
        <pt x="379" y="1488" on="1"/>
      </contour>
      <contour>
        <pt x="586" y="1488" on="1"/>
        <pt x="751" y="1757" on="1"/>
        <pt x="988" y="1757" on="1"/>
        <pt x="741" y="1488" on="1"/>
      </contour>
    </TTGlyph>
    <TTGlyph name="I" xMin="143" yMin="0" xMax="423" yMax="1365">
      <contour>
        <pt x="143" y="1365" on="1"/>
        <pt x="423" y="1365" on="1"/>
        <pt x="423" y="0" on="1"/>
        <pt x="143" y="0" on="1"/>
      </contour>
    </TTGlyph>
    <TTGlyph name="IJ" xMin="143" yMin="-21" xMax="1232" yMax="1365">
      <contour>
        <pt x="143" y="1365" on="1"/>
        <pt x="423" y="1365" on="1"/>
        <pt x="423" y="0" on="1"/>
        <pt x="143" y="0" on="1"/>
      </contour>
      <contour>
        <pt x="629" y="1365" on="1"/>
        <pt x="1232" y="1365" on="1"/>
        <pt x="1232" y="484" on="1"/>
        <pt x="1232" y="260" on="0"/>
        <pt x="1153" y="154" on="1"/>
        <pt x="1051" y="18" on="0"/>
        <pt x="840" y="-10" on="1"/>
        <pt x="774" y="-19" on="0"/>
        <pt x="629" y="-21" on="1"/>
        <pt x="629" y="228" on="1"/>
        <pt x="661" y="224" on="0"/>
        <pt x="688" y="224" on="1"/>
        <pt x="812" y="224" on="0"/>
        <pt x="876" y="276" on="1"/>
        <pt x="924" y="314" on="0"/>
        <pt x="941" y="386" on="1"/>
        <pt x="952" y="439" on="0"/>
        <pt x="952" y="553" on="1"/>
        <pt x="952" y="1136" on="1"/>
        <pt x="629" y="1136" on="1"/>
      </contour>
    </TTGlyph>
    <TTGlyph name="Iacute" xMin="143" yMin="0" xMax="610" yMax="1760">
      <contour>
        <pt x="143" y="1365" on="1"/>
        <pt x="423" y="1365" on="1"/>
        <pt x="423" y="0" on="1"/>
        <pt x="143" y="0" on="1"/>
      </contour>
      <contour>
        <pt x="148" y="1488" on="1"/>
        <pt x="341" y="1760" on="1"/>
        <pt x="610" y="1760" on="1"/>
        <pt x="326" y="1488" on="1"/>
      </contour>
    </TTGlyph>
    <TTGlyph name="Icircumflex" xMin="-59" yMin="0" xMax="626" yMax="1761">
      <contour>
        <pt x="143" y="1365" on="1"/>
        <pt x="423" y="1365" on="1"/>
        <pt x="423" y="0" on="1"/>
        <pt x="143" y="0" on="1"/>
      </contour>
      <contour>
        <pt x="444" y="1488" on="1"/>
        <pt x="286" y="1627" on="1"/>
        <pt x="123" y="1488" on="1"/>
        <pt x="-59" y="1488" on="1"/>
        <pt x="172" y="1761" on="1"/>
        <pt x="409" y="1761" on="1"/>
        <pt x="626" y="1488" on="1"/>
      </contour>
    </TTGlyph>
    <TTGlyph name="Idieresis" xMin="-41" yMin="0" xMax="602" yMax="1781">
      <contour>
        <pt x="143" y="1365" on="1"/>
        <pt x="423" y="1365" on="1"/>
        <pt x="423" y="0" on="1"/>
        <pt x="143" y="0" on="1"/>
      </contour>
      <contour>
        <pt x="101" y="1781" on="1"/>
        <pt x="162" y="1781" on="0"/>
        <pt x="203" y="1736" on="1"/>
        <pt x="241" y="1695" on="0"/>
        <pt x="241" y="1638" on="1"/>
        <pt x="241" y="1576" on="0"/>
        <pt x="192" y="1533" on="1"/>
        <pt x="155" y="1499" on="0"/>
        <pt x="100" y="1499" on="1"/>
        <pt x="37" y="1499" on="0"/>
        <pt x="-3" y="1544" on="1"/>
        <pt x="-41" y="1585" on="0"/>
        <pt x="-41" y="1640" on="1"/>
        <pt x="-41" y="1704" on="0"/>
        <pt x="8" y="1747" on="1"/>
        <pt x="45" y="1781" on="0"/>
      </contour>
      <contour>
        <pt x="462" y="1781" on="1"/>
        <pt x="524" y="1781" on="0"/>
        <pt x="564" y="1736" on="1"/>
        <pt x="602" y="1695" on="0"/>
        <pt x="602" y="1638" on="1"/>
        <pt x="602" y="1576" on="0"/>
        <pt x="553" y="1533" on="1"/>
        <pt x="516" y="1499" on="0"/>
        <pt x="461" y="1499" on="1"/>
        <pt x="398" y="1499" on="0"/>
        <pt x="358" y="1544" on="1"/>
        <pt x="320" y="1585" on="0"/>
        <pt x="320" y="1640" on="1"/>
        <pt x="320" y="1704" on="0"/>
        <pt x="369" y="1747" on="1"/>
        <pt x="406" y="1781" on="0"/>
      </contour>
    </TTGlyph>
    <TTGlyph name="Idotaccent" xMin="140" yMin="0" xMax="423" yMax="1781">
      <contour>
        <pt x="143" y="1365" on="1"/>
        <pt x="423" y="1365" on="1"/>
        <pt x="423" y="0" on="1"/>
        <pt x="143" y="0" on="1"/>
      </contour>
      <contour>
        <pt x="282" y="1781" on="1"/>
        <pt x="344" y="1781" on="0"/>
        <pt x="384" y="1736" on="1"/>
        <pt x="422" y="1695" on="0"/>
        <pt x="422" y="1638" on="1"/>
        <pt x="422" y="1576" on="0"/>
        <pt x="373" y="1533" on="1"/>
        <pt x="336" y="1499" on="0"/>
        <pt x="281" y="1499" on="1"/>
        <pt x="218" y="1499" on="0"/>
        <pt x="178" y="1544" on="1"/>
        <pt x="140" y="1585" on="0"/>
        <pt x="140" y="1640" on="1"/>
        <pt x="140" y="1704" on="0"/>
        <pt x="189" y="1747" on="1"/>
        <pt x="226" y="1781" on="0"/>
      </contour>
    </TTGlyph>
    <TTGlyph name="Igrave" xMin="-43" yMin="0" xMax="423" yMax="1760">
      <contour>
        <pt x="143" y="1365" on="1"/>
        <pt x="423" y="1365" on="1"/>
        <pt x="423" y="0" on="1"/>
        <pt x="143" y="0" on="1"/>
      </contour>
      <contour>
        <pt x="-43" y="1760" on="1"/>
        <pt x="226" y="1760" on="1"/>
        <pt x="419" y="1488" on="1"/>
        <pt x="240" y="1488" on="1"/>
      </contour>
    </TTGlyph>
    <TTGlyph name="Imacron" xMin="82" yMin="0" xMax="484" yMax="1686">
      <contour>
        <pt x="143" y="1365" on="1"/>
        <pt x="423" y="1365" on="1"/>
        <pt x="423" y="0" on="1"/>
        <pt x="143" y="0" on="1"/>
      </contour>
      <contour>
        <pt x="484" y="1574" on="1"/>
        <pt x="82" y="1574" on="1"/>
        <pt x="82" y="1686" on="1"/>
        <pt x="484" y="1686" on="1"/>
      </contour>
    </TTGlyph>
    <TTGlyph name="Iogonek" xMin="93" yMin="-412" xMax="475" yMax="1365">
      <contour>
        <pt x="423" y="1365" on="1"/>
        <pt x="423" y="0" on="1"/>
        <pt x="403" y="-15" on="1"/>
        <pt x="281" y="-110" on="0"/>
        <pt x="281" y="-182" on="1"/>
        <pt x="281" y="-209" on="0"/>
        <pt x="301" y="-227" on="1"/>
        <pt x="330" y="-252" on="0"/>
        <pt x="384" y="-252" on="1"/>
        <pt x="414" y="-252" on="0"/>
        <pt x="457" y="-240" on="1"/>
        <pt x="475" y="-389" on="1"/>
        <pt x="398" y="-412" on="0"/>
        <pt x="332" y="-412" on="1"/>
        <pt x="222" y="-412" on="0"/>
        <pt x="158" y="-360" on="1"/>
        <pt x="93" y="-309" on="0"/>
        <pt x="93" y="-236" on="1"/>
        <pt x="93" y="-103" on="0"/>
        <pt x="247" y="0" on="1"/>
        <pt x="143" y="0" on="1"/>
        <pt x="143" y="1365" on="1"/>
      </contour>
    </TTGlyph>
    <TTGlyph name="J" xMin="63" yMin="-21" xMax="666" yMax="1365">
      <contour>
        <pt x="63" y="1365" on="1"/>
        <pt x="666" y="1365" on="1"/>
        <pt x="666" y="484" on="1"/>
        <pt x="666" y="260" on="0"/>
        <pt x="587" y="154" on="1"/>
        <pt x="485" y="18" on="0"/>
        <pt x="274" y="-10" on="1"/>
        <pt x="208" y="-19" on="0"/>
        <pt x="63" y="-21" on="1"/>
        <pt x="63" y="228" on="1"/>
        <pt x="95" y="224" on="0"/>
        <pt x="122" y="224" on="1"/>
        <pt x="246" y="224" on="0"/>
        <pt x="310" y="276" on="1"/>
        <pt x="358" y="314" on="0"/>
        <pt x="375" y="386" on="1"/>
        <pt x="386" y="439" on="0"/>
        <pt x="386" y="553" on="1"/>
        <pt x="386" y="1136" on="1"/>
        <pt x="63" y="1136" on="1"/>
      </contour>
    </TTGlyph>
    <TTGlyph name="K" xMin="143" yMin="0" xMax="1135" yMax="1365">
      <contour>
        <pt x="807" y="0" on="1"/>
        <pt x="423" y="608" on="1"/>
        <pt x="423" y="0" on="1"/>
        <pt x="143" y="0" on="1"/>
        <pt x="143" y="1365" on="1"/>
        <pt x="423" y="1365" on="1"/>
        <pt x="423" y="772" on="1"/>
        <pt x="811" y="1365" on="1"/>
        <pt x="1135" y="1365" on="1"/>
        <pt x="693" y="707" on="1"/>
        <pt x="1135" y="0" on="1"/>
      </contour>
    </TTGlyph>
    <TTGlyph name="Kcommaaccent" xMin="143" yMin="-465" xMax="1135" yMax="1365">
      <contour>
        <pt x="807" y="0" on="1"/>
        <pt x="423" y="608" on="1"/>
        <pt x="423" y="0" on="1"/>
        <pt x="143" y="0" on="1"/>
        <pt x="143" y="1365" on="1"/>
        <pt x="423" y="1365" on="1"/>
        <pt x="423" y="772" on="1"/>
        <pt x="811" y="1365" on="1"/>
        <pt x="1135" y="1365" on="1"/>
        <pt x="693" y="707" on="1"/>
        <pt x="1135" y="0" on="1"/>
      </contour>
      <contour>
        <pt x="460" y="-87" on="1"/>
        <pt x="691" y="-87" on="1"/>
        <pt x="691" y="-222" on="1"/>
        <pt x="691" y="-368" on="0"/>
        <pt x="609" y="-423" on="1"/>
        <pt x="556" y="-458" on="0"/>
        <pt x="449" y="-465" on="1"/>
        <pt x="449" y="-380" on="1"/>
        <pt x="511" y="-376" on="0"/>
        <pt x="549" y="-353" on="1"/>
        <pt x="583" y="-332" on="0"/>
        <pt x="588" y="-267" on="1"/>
        <pt x="460" y="-267" on="1"/>
      </contour>
    </TTGlyph>
    <TTGlyph name="L" xMin="143" yMin="0" xMax="880" yMax="1365">
      <contour>
        <pt x="423" y="1365" on="1"/>
        <pt x="423" y="232" on="1"/>
        <pt x="880" y="232" on="1"/>
        <pt x="880" y="0" on="1"/>
        <pt x="143" y="0" on="1"/>
        <pt x="143" y="1365" on="1"/>
      </contour>
    </TTGlyph>
    <TTGlyph name="Lacute" xMin="143" yMin="0" xMax="880" yMax="1760">
      <contour>
        <pt x="423" y="1365" on="1"/>
        <pt x="423" y="232" on="1"/>
        <pt x="880" y="232" on="1"/>
        <pt x="880" y="0" on="1"/>
        <pt x="143" y="0" on="1"/>
        <pt x="143" y="1365" on="1"/>
      </contour>
      <contour>
        <pt x="327" y="1488" on="1"/>
        <pt x="520" y="1760" on="1"/>
        <pt x="789" y="1760" on="1"/>
        <pt x="505" y="1488" on="1"/>
      </contour>
    </TTGlyph>
    <TTGlyph name="Lcaron" xMin="143" yMin="0" xMax="908" yMax="1392">
      <contour>
        <pt x="423" y="1365" on="1"/>
        <pt x="423" y="232" on="1"/>
        <pt x="880" y="232" on="1"/>
        <pt x="880" y="0" on="1"/>
        <pt x="143" y="0" on="1"/>
        <pt x="143" y="1365" on="1"/>
      </contour>
      <contour>
        <pt x="685" y="1392" on="1"/>
        <pt x="908" y="1332" on="1"/>
        <pt x="746" y="906" on="1"/>
        <pt x="570" y="952" on="1"/>
      </contour>
    </TTGlyph>
    <TTGlyph name="Lcommaaccent" xMin="143" yMin="-465" xMax="880" yMax="1365">
      <contour>
        <pt x="423" y="1365" on="1"/>
        <pt x="423" y="232" on="1"/>
        <pt x="880" y="232" on="1"/>
        <pt x="880" y="0" on="1"/>
        <pt x="143" y="0" on="1"/>
        <pt x="143" y="1365" on="1"/>
      </contour>
      <contour>
        <pt x="345" y="-87" on="1"/>
        <pt x="576" y="-87" on="1"/>
        <pt x="576" y="-222" on="1"/>
        <pt x="576" y="-368" on="0"/>
        <pt x="494" y="-423" on="1"/>
        <pt x="441" y="-458" on="0"/>
        <pt x="334" y="-465" on="1"/>
        <pt x="334" y="-380" on="1"/>
        <pt x="396" y="-376" on="0"/>
        <pt x="434" y="-353" on="1"/>
        <pt x="468" y="-332" on="0"/>
        <pt x="473" y="-267" on="1"/>
        <pt x="345" y="-267" on="1"/>
      </contour>
    </TTGlyph>
    <TTGlyph name="Ldot" xMin="143" yMin="0" xMax="897" yMax="1365">
      <contour>
        <pt x="423" y="1365" on="1"/>
        <pt x="423" y="232" on="1"/>
        <pt x="880" y="232" on="1"/>
        <pt x="880" y="0" on="1"/>
        <pt x="143" y="0" on="1"/>
        <pt x="143" y="1365" on="1"/>
      </contour>
      <contour>
        <pt x="737" y="864" on="1"/>
        <pt x="809" y="864" on="0"/>
        <pt x="854" y="815" on="1"/>
        <pt x="897" y="769" on="0"/>
        <pt x="897" y="699" on="1"/>
        <pt x="897" y="625" on="0"/>
        <pt x="841" y="577" on="1"/>
        <pt x="800" y="540" on="0"/>
        <pt x="735" y="540" on="1"/>
        <pt x="661" y="540" on="0"/>
        <pt x="616" y="589" on="1"/>
        <pt x="573" y="635" on="0"/>
        <pt x="573" y="702" on="1"/>
        <pt x="573" y="777" on="0"/>
        <pt x="629" y="827" on="1"/>
        <pt x="670" y="864" on="0"/>
      </contour>
    </TTGlyph>
    <TTGlyph name="Lslash" xMin="24" yMin="0" xMax="880" yMax="1365">
      <contour>
        <pt x="24" y="648" on="1"/>
        <pt x="143" y="731" on="1"/>
        <pt x="143" y="1365" on="1"/>
        <pt x="423" y="1365" on="1"/>
        <pt x="423" y="867" on="1"/>
        <pt x="617" y="1002" on="1"/>
        <pt x="617" y="760" on="1"/>
        <pt x="423" y="628" on="1"/>
        <pt x="423" y="232" on="1"/>
        <pt x="880" y="232" on="1"/>
        <pt x="880" y="0" on="1"/>
        <pt x="143" y="0" on="1"/>
        <pt x="143" y="492" on="1"/>
        <pt x="24" y="406" on="1"/>
      </contour>
    </TTGlyph>
    <TTGlyph name="M" xMin="143" yMin="-42" xMax="1595" yMax="1365">
      <contour>
        <pt x="869" y="-42" on="1"/>
        <pt x="423" y="850" on="1"/>
        <pt x="423" y="0" on="1"/>
        <pt x="143" y="0" on="1"/>
        <pt x="143" y="1365" on="1"/>
        <pt x="460" y="1365" on="1"/>
        <pt x="869" y="536" on="1"/>
        <pt x="1278" y="1365" on="1"/>
        <pt x="1595" y="1365" on="1"/>
        <pt x="1595" y="0" on="1"/>
        <pt x="1315" y="0" on="1"/>
        <pt x="1315" y="850" on="1"/>
      </contour>
    </TTGlyph>
    <TTGlyph name="Macron" xMin="311" yMin="1574" xMax="713" yMax="1686">
      <contour>
        <pt x="713" y="1574" on="1"/>
        <pt x="311" y="1574" on="1"/>
        <pt x="311" y="1686" on="1"/>
        <pt x="713" y="1686" on="1"/>
      </contour>
    </TTGlyph>
    <TTGlyph name="N" xMin="143" yMin="0" xMax="1271" yMax="1365">
      <contour>
        <pt x="998" y="0" on="1"/>
        <pt x="423" y="863" on="1"/>
        <pt x="423" y="0" on="1"/>
        <pt x="143" y="0" on="1"/>
        <pt x="143" y="1365" on="1"/>
        <pt x="418" y="1365" on="1"/>
        <pt x="991" y="513" on="1"/>
        <pt x="991" y="1365" on="1"/>
        <pt x="1271" y="1365" on="1"/>
        <pt x="1271" y="0" on="1"/>
      </contour>
    </TTGlyph>
    <TTGlyph name="Nacute" xMin="143" yMin="0" xMax="1271" yMax="1760">
      <contour>
        <pt x="998" y="0" on="1"/>
        <pt x="423" y="863" on="1"/>
        <pt x="423" y="0" on="1"/>
        <pt x="143" y="0" on="1"/>
        <pt x="143" y="1365" on="1"/>
        <pt x="418" y="1365" on="1"/>
        <pt x="991" y="513" on="1"/>
        <pt x="991" y="1365" on="1"/>
        <pt x="1271" y="1365" on="1"/>
        <pt x="1271" y="0" on="1"/>
      </contour>
      <contour>
        <pt x="572" y="1488" on="1"/>
        <pt x="764" y="1760" on="1"/>
        <pt x="1033" y="1760" on="1"/>
        <pt x="750" y="1488" on="1"/>
      </contour>
    </TTGlyph>
    <TTGlyph name="Ncaron" xMin="143" yMin="0" xMax="1271" yMax="1761">
      <contour>
        <pt x="998" y="0" on="1"/>
        <pt x="423" y="863" on="1"/>
        <pt x="423" y="0" on="1"/>
        <pt x="143" y="0" on="1"/>
        <pt x="143" y="1365" on="1"/>
        <pt x="418" y="1365" on="1"/>
        <pt x="991" y="513" on="1"/>
        <pt x="991" y="1365" on="1"/>
        <pt x="1271" y="1365" on="1"/>
        <pt x="1271" y="0" on="1"/>
      </contour>
      <contour>
        <pt x="546" y="1761" on="1"/>
        <pt x="705" y="1622" on="1"/>
        <pt x="867" y="1761" on="1"/>
        <pt x="1049" y="1761" on="1"/>
        <pt x="818" y="1488" on="1"/>
        <pt x="581" y="1488" on="1"/>
        <pt x="365" y="1761" on="1"/>
      </contour>
    </TTGlyph>
    <TTGlyph name="Ncommaaccent" xMin="143" yMin="-465" xMax="1271" yMax="1365">
      <contour>
        <pt x="998" y="0" on="1"/>
        <pt x="423" y="863" on="1"/>
        <pt x="423" y="0" on="1"/>
        <pt x="143" y="0" on="1"/>
        <pt x="143" y="1365" on="1"/>
        <pt x="418" y="1365" on="1"/>
        <pt x="991" y="513" on="1"/>
        <pt x="991" y="1365" on="1"/>
        <pt x="1271" y="1365" on="1"/>
        <pt x="1271" y="0" on="1"/>
      </contour>
      <contour>
        <pt x="590" y="-87" on="1"/>
        <pt x="821" y="-87" on="1"/>
        <pt x="821" y="-222" on="1"/>
        <pt x="821" y="-369" on="0"/>
        <pt x="739" y="-423" on="1"/>
        <pt x="686" y="-458" on="0"/>
        <pt x="579" y="-465" on="1"/>
        <pt x="579" y="-380" on="1"/>
        <pt x="641" y="-376" on="0"/>
        <pt x="679" y="-353" on="1"/>
        <pt x="713" y="-332" on="0"/>
        <pt x="718" y="-267" on="1"/>
        <pt x="590" y="-267" on="1"/>
      </contour>
    </TTGlyph>
    <TTGlyph name="Ntilde" xMin="143" yMin="0" xMax="1271" yMax="1745">
      <contour>
        <pt x="998" y="0" on="1"/>
        <pt x="423" y="863" on="1"/>
        <pt x="423" y="0" on="1"/>
        <pt x="143" y="0" on="1"/>
        <pt x="143" y="1365" on="1"/>
        <pt x="418" y="1365" on="1"/>
        <pt x="991" y="513" on="1"/>
        <pt x="991" y="1365" on="1"/>
        <pt x="1271" y="1365" on="1"/>
        <pt x="1271" y="0" on="1"/>
      </contour>
      <contour>
        <pt x="906" y="1745" on="1"/>
        <pt x="1077" y="1731" on="1"/>
        <pt x="1016" y="1500" on="0"/>
        <pt x="858" y="1500" on="1"/>
        <pt x="812" y="1500" on="0"/>
        <pt x="709" y="1539" on="1"/>
        <pt x="624" y="1571" on="0"/>
        <pt x="601" y="1571" on="1"/>
        <pt x="548" y="1571" on="0"/>
        <pt x="536" y="1499" on="1"/>
        <pt x="365" y="1510" on="1"/>
        <pt x="382" y="1591" on="0"/>
        <pt x="404" y="1628" on="1"/>
        <pt x="442" y="1693" on="0"/>
        <pt x="499" y="1722" on="1"/>
        <pt x="540" y="1743" on="0"/>
        <pt x="580" y="1743" on="1"/>
        <pt x="620" y="1743" on="0"/>
        <pt x="752" y="1693" on="1"/>
        <pt x="811" y="1669" on="0"/>
        <pt x="829" y="1669" on="1"/>
        <pt x="881" y="1669" on="0"/>
      </contour>
    </TTGlyph>
    <TTGlyph name="O" xMin="76" yMin="-26" xMax="1487" yMax="1392">
      <contour>
        <pt x="793" y="1392" on="1"/>
        <pt x="969" y="1392" on="0"/>
        <pt x="1120" y="1312" on="1"/>
        <pt x="1309" y="1211" on="0"/>
        <pt x="1406" y="1030" on="1"/>
        <pt x="1487" y="878" on="0"/>
        <pt x="1487" y="676" on="1"/>
        <pt x="1487" y="490" on="0"/>
        <pt x="1395" y="326" on="1"/>
        <pt x="1297" y="150" on="0"/>
        <pt x="1117" y="55" on="1"/>
        <pt x="966" y="-26" on="0"/>
        <pt x="789" y="-26" on="1"/>
        <pt x="594" y="-26" on="0"/>
        <pt x="426" y="70" on="1"/>
        <pt x="246" y="174" on="0"/>
        <pt x="154" y="351" on="1"/>
        <pt x="76" y="499" on="0"/>
        <pt x="76" y="676" on="1"/>
        <pt x="76" y="989" on="0"/>
        <pt x="298" y="1202" on="1"/>
        <pt x="497" y="1392" on="0"/>
      </contour>
      <contour>
        <pt x="785" y="1133" on="1"/>
        <pt x="590" y="1133" on="0"/>
        <pt x="465" y="983" on="1"/>
        <pt x="362" y="859" on="0"/>
        <pt x="362" y="681" on="1"/>
        <pt x="362" y="488" on="0"/>
        <pt x="485" y="360" on="1"/>
        <pt x="608" y="233" on="0"/>
        <pt x="782" y="233" on="1"/>
        <pt x="967" y="233" on="0"/>
        <pt x="1093" y="372" on="1"/>
        <pt x="1153" y="437" on="0"/>
        <pt x="1182" y="535" on="1"/>
        <pt x="1203" y="609" on="0"/>
        <pt x="1203" y="674" on="1"/>
        <pt x="1203" y="892" on="0"/>
        <pt x="1068" y="1019" on="1"/>
        <pt x="948" y="1133" on="0"/>
      </contour>
    </TTGlyph>
    <TTGlyph name="OE" xMin="80" yMin="-27" xMax="1959" yMax="1391">
      <contour>
        <pt x="1959" y="571" on="1"/>
        <pt x="1492" y="571" on="1"/>
        <pt x="1492" y="229" on="1"/>
        <pt x="1959" y="229" on="1"/>
        <pt x="1959" y="0" on="1"/>
        <pt x="1217" y="0" on="1"/>
        <pt x="1217" y="161" on="1"/>
        <pt x="1149" y="80" on="0"/>
        <pt x="1062" y="39" on="1"/>
        <pt x="925" y="-27" on="0"/>
        <pt x="769" y="-27" on="1"/>
        <pt x="587" y="-27" on="0"/>
        <pt x="432" y="59" on="1"/>
        <pt x="278" y="145" on="0"/>
        <pt x="187" y="293" on="1"/>
        <pt x="80" y="466" on="0"/>
        <pt x="80" y="685" on="1"/>
        <pt x="80" y="1012" on="0"/>
        <pt x="306" y="1216" on="1"/>
        <pt x="499" y="1391" on="0"/>
        <pt x="774" y="1391" on="1"/>
        <pt x="928" y="1391" on="0"/>
        <pt x="1055" y="1331" on="1"/>
        <pt x="1135" y="1294" on="0"/>
        <pt x="1217" y="1212" on="1"/>
        <pt x="1217" y="1365" on="1"/>
        <pt x="1959" y="1365" on="1"/>
        <pt x="1959" y="1136" on="1"/>
        <pt x="1492" y="1136" on="1"/>
        <pt x="1492" y="800" on="1"/>
        <pt x="1959" y="800" on="1"/>
      </contour>
      <contour>
        <pt x="803" y="1132" on="1"/>
        <pt x="588" y="1132" on="0"/>
        <pt x="460" y="970" on="1"/>
        <pt x="364" y="846" on="0"/>
        <pt x="364" y="680" on="1"/>
        <pt x="364" y="468" on="0"/>
        <pt x="510" y="337" on="1"/>
        <pt x="626" y="232" on="0"/>
        <pt x="791" y="232" on="1"/>
        <pt x="1000" y="232" on="0"/>
        <pt x="1124" y="388" on="1"/>
        <pt x="1181" y="459" on="0"/>
        <pt x="1206" y="550" on="1"/>
        <pt x="1226" y="622" on="0"/>
        <pt x="1226" y="683" on="1"/>
        <pt x="1226" y="877" on="0"/>
        <pt x="1110" y="1002" on="1"/>
        <pt x="1045" y="1071" on="0"/>
        <pt x="956" y="1104" on="1"/>
        <pt x="879" y="1132" on="0"/>
      </contour>
    </TTGlyph>
    <TTGlyph name="Oacute" xMin="76" yMin="-26" xMax="1487" yMax="1760">
      <contour>
        <pt x="793" y="1392" on="1"/>
        <pt x="969" y="1392" on="0"/>
        <pt x="1120" y="1312" on="1"/>
        <pt x="1309" y="1211" on="0"/>
        <pt x="1406" y="1030" on="1"/>
        <pt x="1487" y="878" on="0"/>
        <pt x="1487" y="676" on="1"/>
        <pt x="1487" y="490" on="0"/>
        <pt x="1395" y="326" on="1"/>
        <pt x="1297" y="150" on="0"/>
        <pt x="1117" y="55" on="1"/>
        <pt x="966" y="-26" on="0"/>
        <pt x="789" y="-26" on="1"/>
        <pt x="594" y="-26" on="0"/>
        <pt x="426" y="70" on="1"/>
        <pt x="246" y="174" on="0"/>
        <pt x="154" y="351" on="1"/>
        <pt x="76" y="499" on="0"/>
        <pt x="76" y="676" on="1"/>
        <pt x="76" y="989" on="0"/>
        <pt x="298" y="1202" on="1"/>
        <pt x="497" y="1392" on="0"/>
      </contour>
      <contour>
        <pt x="785" y="1133" on="1"/>
        <pt x="590" y="1133" on="0"/>
        <pt x="465" y="983" on="1"/>
        <pt x="362" y="859" on="0"/>
        <pt x="362" y="681" on="1"/>
        <pt x="362" y="488" on="0"/>
        <pt x="485" y="360" on="1"/>
        <pt x="608" y="233" on="0"/>
        <pt x="782" y="233" on="1"/>
        <pt x="967" y="233" on="0"/>
        <pt x="1093" y="372" on="1"/>
        <pt x="1153" y="437" on="0"/>
        <pt x="1182" y="535" on="1"/>
        <pt x="1203" y="609" on="0"/>
        <pt x="1203" y="674" on="1"/>
        <pt x="1203" y="892" on="0"/>
        <pt x="1068" y="1019" on="1"/>
        <pt x="948" y="1133" on="0"/>
      </contour>
      <contour>
        <pt x="647" y="1488" on="1"/>
        <pt x="839" y="1760" on="1"/>
        <pt x="1108" y="1760" on="1"/>
        <pt x="825" y="1488" on="1"/>
      </contour>
    </TTGlyph>
    <TTGlyph name="Ocircumflex" xMin="76" yMin="-26" xMax="1487" yMax="1761">
      <contour>
        <pt x="793" y="1392" on="1"/>
        <pt x="969" y="1392" on="0"/>
        <pt x="1120" y="1312" on="1"/>
        <pt x="1309" y="1211" on="0"/>
        <pt x="1406" y="1030" on="1"/>
        <pt x="1487" y="878" on="0"/>
        <pt x="1487" y="676" on="1"/>
        <pt x="1487" y="490" on="0"/>
        <pt x="1395" y="326" on="1"/>
        <pt x="1297" y="150" on="0"/>
        <pt x="1117" y="55" on="1"/>
        <pt x="966" y="-26" on="0"/>
        <pt x="789" y="-26" on="1"/>
        <pt x="594" y="-26" on="0"/>
        <pt x="426" y="70" on="1"/>
        <pt x="246" y="174" on="0"/>
        <pt x="154" y="351" on="1"/>
        <pt x="76" y="499" on="0"/>
        <pt x="76" y="676" on="1"/>
        <pt x="76" y="989" on="0"/>
        <pt x="298" y="1202" on="1"/>
        <pt x="497" y="1392" on="0"/>
      </contour>
      <contour>
        <pt x="785" y="1133" on="1"/>
        <pt x="590" y="1133" on="0"/>
        <pt x="465" y="983" on="1"/>
        <pt x="362" y="859" on="0"/>
        <pt x="362" y="681" on="1"/>
        <pt x="362" y="488" on="0"/>
        <pt x="485" y="360" on="1"/>
        <pt x="608" y="233" on="0"/>
        <pt x="782" y="233" on="1"/>
        <pt x="967" y="233" on="0"/>
        <pt x="1093" y="372" on="1"/>
        <pt x="1153" y="437" on="0"/>
        <pt x="1182" y="535" on="1"/>
        <pt x="1203" y="609" on="0"/>
        <pt x="1203" y="674" on="1"/>
        <pt x="1203" y="892" on="0"/>
        <pt x="1068" y="1019" on="1"/>
        <pt x="948" y="1133" on="0"/>
      </contour>
      <contour>
        <pt x="942" y="1488" on="1"/>
        <pt x="784" y="1627" on="1"/>
        <pt x="622" y="1488" on="1"/>
        <pt x="439" y="1488" on="1"/>
        <pt x="671" y="1761" on="1"/>
        <pt x="907" y="1761" on="1"/>
        <pt x="1124" y="1488" on="1"/>
      </contour>
    </TTGlyph>
    <TTGlyph name="Odieresis" xMin="76" yMin="-26" xMax="1487" yMax="1781">
      <contour>
        <pt x="793" y="1392" on="1"/>
        <pt x="969" y="1392" on="0"/>
        <pt x="1120" y="1312" on="1"/>
        <pt x="1309" y="1211" on="0"/>
        <pt x="1406" y="1030" on="1"/>
        <pt x="1487" y="878" on="0"/>
        <pt x="1487" y="676" on="1"/>
        <pt x="1487" y="490" on="0"/>
        <pt x="1395" y="326" on="1"/>
        <pt x="1297" y="150" on="0"/>
        <pt x="1117" y="55" on="1"/>
        <pt x="966" y="-26" on="0"/>
        <pt x="789" y="-26" on="1"/>
        <pt x="594" y="-26" on="0"/>
        <pt x="426" y="70" on="1"/>
        <pt x="246" y="174" on="0"/>
        <pt x="154" y="351" on="1"/>
        <pt x="76" y="499" on="0"/>
        <pt x="76" y="676" on="1"/>
        <pt x="76" y="989" on="0"/>
        <pt x="298" y="1202" on="1"/>
        <pt x="497" y="1392" on="0"/>
      </contour>
      <contour>
        <pt x="785" y="1133" on="1"/>
        <pt x="590" y="1133" on="0"/>
        <pt x="465" y="983" on="1"/>
        <pt x="362" y="859" on="0"/>
        <pt x="362" y="681" on="1"/>
        <pt x="362" y="488" on="0"/>
        <pt x="485" y="360" on="1"/>
        <pt x="608" y="233" on="0"/>
        <pt x="782" y="233" on="1"/>
        <pt x="967" y="233" on="0"/>
        <pt x="1093" y="372" on="1"/>
        <pt x="1153" y="437" on="0"/>
        <pt x="1182" y="535" on="1"/>
        <pt x="1203" y="609" on="0"/>
        <pt x="1203" y="674" on="1"/>
        <pt x="1203" y="892" on="0"/>
        <pt x="1068" y="1019" on="1"/>
        <pt x="948" y="1133" on="0"/>
      </contour>
      <contour>
        <pt x="563" y="1781" on="1"/>
        <pt x="624" y="1781" on="0"/>
        <pt x="665" y="1736" on="1"/>
        <pt x="703" y="1695" on="0"/>
        <pt x="703" y="1638" on="1"/>
        <pt x="703" y="1576" on="0"/>
        <pt x="654" y="1533" on="1"/>
        <pt x="617" y="1499" on="0"/>
        <pt x="562" y="1499" on="1"/>
        <pt x="500" y="1499" on="0"/>
        <pt x="459" y="1544" on="1"/>
        <pt x="421" y="1585" on="0"/>
        <pt x="421" y="1640" on="1"/>
        <pt x="421" y="1704" on="0"/>
        <pt x="470" y="1747" on="1"/>
        <pt x="507" y="1781" on="0"/>
      </contour>
      <contour>
        <pt x="998" y="1781" on="1"/>
        <pt x="1060" y="1781" on="0"/>
        <pt x="1100" y="1736" on="1"/>
        <pt x="1138" y="1695" on="0"/>
        <pt x="1138" y="1638" on="1"/>
        <pt x="1138" y="1576" on="0"/>
        <pt x="1089" y="1533" on="1"/>
        <pt x="1052" y="1499" on="0"/>
        <pt x="997" y="1499" on="1"/>
        <pt x="935" y="1499" on="0"/>
        <pt x="894" y="1544" on="1"/>
        <pt x="856" y="1585" on="0"/>
        <pt x="856" y="1640" on="1"/>
        <pt x="856" y="1704" on="0"/>
        <pt x="905" y="1747" on="1"/>
        <pt x="942" y="1781" on="0"/>
      </contour>
    </TTGlyph>
    <TTGlyph name="Ogonek" xMin="579" yMin="-412" xMax="962" yMax="0">
      <contour>
        <pt x="733" y="0" on="1"/>
        <pt x="910" y="0" on="1"/>
        <pt x="842" y="-52" on="0"/>
        <pt x="812" y="-85" on="1"/>
        <pt x="768" y="-135" on="0"/>
        <pt x="768" y="-182" on="1"/>
        <pt x="768" y="-209" on="0"/>
        <pt x="788" y="-227" on="1"/>
        <pt x="817" y="-252" on="0"/>
        <pt x="870" y="-252" on="1"/>
        <pt x="900" y="-252" on="0"/>
        <pt x="944" y="-240" on="1"/>
        <pt x="962" y="-389" on="1"/>
        <pt x="884" y="-412" on="0"/>
        <pt x="819" y="-412" on="1"/>
        <pt x="708" y="-412" on="0"/>
        <pt x="644" y="-360" on="1"/>
        <pt x="579" y="-309" on="0"/>
        <pt x="579" y="-236" on="1"/>
        <pt x="579" y="-102" on="0"/>
      </contour>
    </TTGlyph>
    <TTGlyph name="Ograve" xMin="76" yMin="-26" xMax="1487" yMax="1760">
      <contour>
        <pt x="793" y="1392" on="1"/>
        <pt x="969" y="1392" on="0"/>
        <pt x="1120" y="1312" on="1"/>
        <pt x="1309" y="1211" on="0"/>
        <pt x="1406" y="1030" on="1"/>
        <pt x="1487" y="878" on="0"/>
        <pt x="1487" y="676" on="1"/>
        <pt x="1487" y="490" on="0"/>
        <pt x="1395" y="326" on="1"/>
        <pt x="1297" y="150" on="0"/>
        <pt x="1117" y="55" on="1"/>
        <pt x="966" y="-26" on="0"/>
        <pt x="789" y="-26" on="1"/>
        <pt x="594" y="-26" on="0"/>
        <pt x="426" y="70" on="1"/>
        <pt x="246" y="174" on="0"/>
        <pt x="154" y="351" on="1"/>
        <pt x="76" y="499" on="0"/>
        <pt x="76" y="676" on="1"/>
        <pt x="76" y="989" on="0"/>
        <pt x="298" y="1202" on="1"/>
        <pt x="497" y="1392" on="0"/>
      </contour>
      <contour>
        <pt x="785" y="1133" on="1"/>
        <pt x="590" y="1133" on="0"/>
        <pt x="465" y="983" on="1"/>
        <pt x="362" y="859" on="0"/>
        <pt x="362" y="681" on="1"/>
        <pt x="362" y="488" on="0"/>
        <pt x="485" y="360" on="1"/>
        <pt x="608" y="233" on="0"/>
        <pt x="782" y="233" on="1"/>
        <pt x="967" y="233" on="0"/>
        <pt x="1093" y="372" on="1"/>
        <pt x="1153" y="437" on="0"/>
        <pt x="1182" y="535" on="1"/>
        <pt x="1203" y="609" on="0"/>
        <pt x="1203" y="674" on="1"/>
        <pt x="1203" y="892" on="0"/>
        <pt x="1068" y="1019" on="1"/>
        <pt x="948" y="1133" on="0"/>
      </contour>
      <contour>
        <pt x="455" y="1760" on="1"/>
        <pt x="724" y="1760" on="1"/>
        <pt x="917" y="1488" on="1"/>
        <pt x="739" y="1488" on="1"/>
      </contour>
    </TTGlyph>
    <TTGlyph name="Ohungarumlaut" xMin="76" yMin="-26" xMax="1487" yMax="1757">
      <contour>
        <pt x="793" y="1392" on="1"/>
        <pt x="969" y="1392" on="0"/>
        <pt x="1120" y="1312" on="1"/>
        <pt x="1309" y="1211" on="0"/>
        <pt x="1406" y="1030" on="1"/>
        <pt x="1487" y="878" on="0"/>
        <pt x="1487" y="676" on="1"/>
        <pt x="1487" y="490" on="0"/>
        <pt x="1395" y="326" on="1"/>
        <pt x="1297" y="150" on="0"/>
        <pt x="1117" y="55" on="1"/>
        <pt x="966" y="-26" on="0"/>
        <pt x="789" y="-26" on="1"/>
        <pt x="594" y="-26" on="0"/>
        <pt x="426" y="70" on="1"/>
        <pt x="246" y="174" on="0"/>
        <pt x="154" y="351" on="1"/>
        <pt x="76" y="499" on="0"/>
        <pt x="76" y="676" on="1"/>
        <pt x="76" y="989" on="0"/>
        <pt x="298" y="1202" on="1"/>
        <pt x="497" y="1392" on="0"/>
      </contour>
      <contour>
        <pt x="785" y="1133" on="1"/>
        <pt x="590" y="1133" on="0"/>
        <pt x="465" y="983" on="1"/>
        <pt x="362" y="859" on="0"/>
        <pt x="362" y="681" on="1"/>
        <pt x="362" y="488" on="0"/>
        <pt x="485" y="360" on="1"/>
        <pt x="608" y="233" on="0"/>
        <pt x="782" y="233" on="1"/>
        <pt x="967" y="233" on="0"/>
        <pt x="1093" y="372" on="1"/>
        <pt x="1153" y="437" on="0"/>
        <pt x="1182" y="535" on="1"/>
        <pt x="1203" y="609" on="0"/>
        <pt x="1203" y="674" on="1"/>
        <pt x="1203" y="892" on="0"/>
        <pt x="1068" y="1019" on="1"/>
        <pt x="948" y="1133" on="0"/>
      </contour>
      <contour>
        <pt x="495" y="1488" on="1"/>
        <pt x="660" y="1757" on="1"/>
        <pt x="897" y="1757" on="1"/>
        <pt x="649" y="1488" on="1"/>
      </contour>
      <contour>
        <pt x="856" y="1488" on="1"/>
        <pt x="1021" y="1757" on="1"/>
        <pt x="1258" y="1757" on="1"/>
        <pt x="1010" y="1488" on="1"/>
      </contour>
    </TTGlyph>
    <TTGlyph name="Omacron" xMin="76" yMin="-26" xMax="1487" yMax="1686">
      <contour>
        <pt x="793" y="1392" on="1"/>
        <pt x="969" y="1392" on="0"/>
        <pt x="1120" y="1312" on="1"/>
        <pt x="1309" y="1211" on="0"/>
        <pt x="1406" y="1030" on="1"/>
        <pt x="1487" y="878" on="0"/>
        <pt x="1487" y="676" on="1"/>
        <pt x="1487" y="490" on="0"/>
        <pt x="1395" y="326" on="1"/>
        <pt x="1297" y="150" on="0"/>
        <pt x="1117" y="55" on="1"/>
        <pt x="966" y="-26" on="0"/>
        <pt x="789" y="-26" on="1"/>
        <pt x="594" y="-26" on="0"/>
        <pt x="426" y="70" on="1"/>
        <pt x="246" y="174" on="0"/>
        <pt x="154" y="351" on="1"/>
        <pt x="76" y="499" on="0"/>
        <pt x="76" y="676" on="1"/>
        <pt x="76" y="989" on="0"/>
        <pt x="298" y="1202" on="1"/>
        <pt x="497" y="1392" on="0"/>
      </contour>
      <contour>
        <pt x="785" y="1133" on="1"/>
        <pt x="590" y="1133" on="0"/>
        <pt x="465" y="983" on="1"/>
        <pt x="362" y="859" on="0"/>
        <pt x="362" y="681" on="1"/>
        <pt x="362" y="488" on="0"/>
        <pt x="485" y="360" on="1"/>
        <pt x="608" y="233" on="0"/>
        <pt x="782" y="233" on="1"/>
        <pt x="967" y="233" on="0"/>
        <pt x="1093" y="372" on="1"/>
        <pt x="1153" y="437" on="0"/>
        <pt x="1182" y="535" on="1"/>
        <pt x="1203" y="609" on="0"/>
        <pt x="1203" y="674" on="1"/>
        <pt x="1203" y="892" on="0"/>
        <pt x="1068" y="1019" on="1"/>
        <pt x="948" y="1133" on="0"/>
      </contour>
      <contour>
        <pt x="983" y="1574" on="1"/>
        <pt x="581" y="1574" on="1"/>
        <pt x="581" y="1686" on="1"/>
        <pt x="983" y="1686" on="1"/>
      </contour>
    </TTGlyph>
    <TTGlyph name="Oslash" xMin="75" yMin="-26" xMax="1484" yMax="1391">
      <contour>
        <pt x="304" y="154" on="1"/>
        <pt x="158" y="13" on="1"/>
        <pt x="89" y="88" on="1"/>
        <pt x="233" y="227" on="1"/>
        <pt x="157" y="326" on="0"/>
        <pt x="125" y="403" on="1"/>
        <pt x="75" y="526" on="0"/>
        <pt x="75" y="670" on="1"/>
        <pt x="75" y="1015" on="0"/>
        <pt x="312" y="1221" on="1"/>
        <pt x="509" y="1391" on="0"/>
        <pt x="775" y="1391" on="1"/>
        <pt x="935" y="1391" on="0"/>
        <pt x="1089" y="1320" on="1"/>
        <pt x="1177" y="1278" on="0"/>
        <pt x="1251" y="1210" on="1"/>
        <pt x="1399" y="1354" on="1"/>
        <pt x="1468" y="1276" on="1"/>
        <pt x="1325" y="1137" on="1"/>
        <pt x="1405" y="1025" on="0"/>
        <pt x="1437" y="937" on="1"/>
        <pt x="1484" y="811" on="0"/>
        <pt x="1484" y="682" on="1"/>
        <pt x="1484" y="468" on="0"/>
        <pt x="1367" y="291" on="1"/>
        <pt x="1260" y="126" on="0"/>
        <pt x="1081" y="43" on="1"/>
        <pt x="936" y="-26" on="0"/>
        <pt x="764" y="-26" on="1"/>
        <pt x="504" y="-26" on="0"/>
      </contour>
      <contour>
        <pt x="1121" y="946" on="1"/>
        <pt x="500" y="337" on="1"/>
        <pt x="619" y="233" on="0"/>
        <pt x="771" y="233" on="1"/>
        <pt x="951" y="233" on="0"/>
        <pt x="1080" y="365" on="1"/>
        <pt x="1200" y="488" on="0"/>
        <pt x="1200" y="684" on="1"/>
        <pt x="1200" y="830" on="0"/>
      </contour>
      <contour>
        <pt x="434" y="417" on="1"/>
        <pt x="1051" y="1024" on="1"/>
        <pt x="931" y="1132" on="0"/>
        <pt x="783" y="1132" on="1"/>
        <pt x="669" y="1132" on="0"/>
        <pt x="569" y="1073" on="1"/>
        <pt x="463" y="1008" on="0"/>
        <pt x="408" y="897" on="1"/>
        <pt x="360" y="800" on="0"/>
        <pt x="360" y="681" on="1"/>
        <pt x="360" y="527" on="0"/>
      </contour>
    </TTGlyph>
    <TTGlyph name="Otilde" xMin="76" yMin="-26" xMax="1487" yMax="1745">
      <contour>
        <pt x="793" y="1392" on="1"/>
        <pt x="969" y="1392" on="0"/>
        <pt x="1120" y="1312" on="1"/>
        <pt x="1309" y="1211" on="0"/>
        <pt x="1406" y="1030" on="1"/>
        <pt x="1487" y="878" on="0"/>
        <pt x="1487" y="676" on="1"/>
        <pt x="1487" y="490" on="0"/>
        <pt x="1395" y="326" on="1"/>
        <pt x="1297" y="150" on="0"/>
        <pt x="1117" y="55" on="1"/>
        <pt x="966" y="-26" on="0"/>
        <pt x="789" y="-26" on="1"/>
        <pt x="594" y="-26" on="0"/>
        <pt x="426" y="70" on="1"/>
        <pt x="246" y="174" on="0"/>
        <pt x="154" y="351" on="1"/>
        <pt x="76" y="499" on="0"/>
        <pt x="76" y="676" on="1"/>
        <pt x="76" y="989" on="0"/>
        <pt x="298" y="1202" on="1"/>
        <pt x="497" y="1392" on="0"/>
      </contour>
      <contour>
        <pt x="785" y="1133" on="1"/>
        <pt x="590" y="1133" on="0"/>
        <pt x="465" y="983" on="1"/>
        <pt x="362" y="859" on="0"/>
        <pt x="362" y="681" on="1"/>
        <pt x="362" y="488" on="0"/>
        <pt x="485" y="360" on="1"/>
        <pt x="608" y="233" on="0"/>
        <pt x="782" y="233" on="1"/>
        <pt x="967" y="233" on="0"/>
        <pt x="1093" y="372" on="1"/>
        <pt x="1153" y="437" on="0"/>
        <pt x="1182" y="535" on="1"/>
        <pt x="1203" y="609" on="0"/>
        <pt x="1203" y="674" on="1"/>
        <pt x="1203" y="892" on="0"/>
        <pt x="1068" y="1019" on="1"/>
        <pt x="948" y="1133" on="0"/>
      </contour>
      <contour>
        <pt x="981" y="1745" on="1"/>
        <pt x="1151" y="1731" on="1"/>
        <pt x="1090" y="1500" on="0"/>
        <pt x="933" y="1500" on="1"/>
        <pt x="888" y="1500" on="0"/>
        <pt x="784" y="1539" on="1"/>
        <pt x="699" y="1571" on="0"/>
        <pt x="675" y="1571" on="1"/>
        <pt x="624" y="1571" on="0"/>
        <pt x="610" y="1499" on="1"/>
        <pt x="439" y="1510" on="1"/>
        <pt x="458" y="1592" on="0"/>
        <pt x="479" y="1628" on="1"/>
        <pt x="514" y="1691" on="0"/>
        <pt x="574" y="1722" on="1"/>
        <pt x="614" y="1743" on="0"/>
        <pt x="655" y="1743" on="1"/>
        <pt x="694" y="1743" on="0"/>
        <pt x="826" y="1693" on="1"/>
        <pt x="886" y="1669" on="0"/>
        <pt x="904" y="1669" on="1"/>
        <pt x="956" y="1669" on="0"/>
      </contour>
    </TTGlyph>
    <TTGlyph name="P" xMin="143" yMin="0" xMax="1084" yMax="1365">
      <contour>
        <pt x="598" y="469" on="1"/>
        <pt x="423" y="469" on="1"/>
        <pt x="423" y="0" on="1"/>
        <pt x="143" y="0" on="1"/>
        <pt x="143" y="1365" on="1"/>
        <pt x="579" y="1365" on="1"/>
        <pt x="824" y="1365" on="0"/>
        <pt x="955" y="1249" on="1"/>
        <pt x="1084" y="1135" on="0"/>
        <pt x="1084" y="928" on="1"/>
        <pt x="1084" y="763" on="0"/>
        <pt x="1001" y="647" on="1"/>
        <pt x="875" y="469" on="0"/>
      </contour>
      <contour>
        <pt x="423" y="1133" on="1"/>
        <pt x="423" y="700" on="1"/>
        <pt x="543" y="700" on="1"/>
        <pt x="624" y="700" on="0"/>
        <pt x="678" y="723" on="1"/>
        <pt x="800" y="777" on="0"/>
        <pt x="800" y="915" on="1"/>
        <pt x="800" y="1044" on="0"/>
        <pt x="692" y="1103" on="1"/>
        <pt x="634" y="1133" on="0"/>
        <pt x="551" y="1133" on="1"/>
      </contour>
    </TTGlyph>
    <TTGlyph name="Q" xMin="78" yMin="-78" xMax="1489" yMax="1391">
      <contour>
        <pt x="1332" y="230" on="1"/>
        <pt x="1461" y="90" on="1"/>
        <pt x="1262" y="-78" on="1"/>
        <pt x="1139" y="70" on="1"/>
        <pt x="975" y="-27" on="0"/>
        <pt x="780" y="-27" on="1"/>
        <pt x="591" y="-27" on="0"/>
        <pt x="422" y="73" on="1"/>
        <pt x="243" y="178" on="0"/>
        <pt x="153" y="352" on="1"/>
        <pt x="78" y="499" on="0"/>
        <pt x="78" y="674" on="1"/>
        <pt x="78" y="874" on="0"/>
        <pt x="176" y="1043" on="1"/>
        <pt x="274" y="1214" on="0"/>
        <pt x="443" y="1305" on="1"/>
        <pt x="601" y="1391" on="0"/>
        <pt x="790" y="1391" on="1"/>
        <pt x="1115" y="1391" on="0"/>
        <pt x="1318" y="1158" on="1"/>
        <pt x="1489" y="962" on="0"/>
        <pt x="1489" y="693" on="1"/>
        <pt x="1489" y="426" on="0"/>
      </contour>
      <contour>
        <pt x="850" y="388" on="1"/>
        <pt x="1047" y="554" on="1"/>
        <pt x="1146" y="443" on="1"/>
        <pt x="1204" y="555" on="0"/>
        <pt x="1204" y="690" on="1"/>
        <pt x="1204" y="889" on="0"/>
        <pt x="1069" y="1018" on="1"/>
        <pt x="948" y="1131" on="0"/>
        <pt x="785" y="1131" on="1"/>
        <pt x="667" y="1131" on="0"/>
        <pt x="566" y="1069" on="1"/>
        <pt x="463" y="1005" on="0"/>
        <pt x="409" y="896" on="1"/>
        <pt x="363" y="803" on="0"/>
        <pt x="363" y="682" on="1"/>
        <pt x="363" y="486" on="0"/>
        <pt x="486" y="359" on="1"/>
        <pt x="606" y="233" on="0"/>
        <pt x="774" y="233" on="1"/>
        <pt x="874" y="233" on="0"/>
        <pt x="943" y="278" on="1"/>
      </contour>
    </TTGlyph>
    <TTGlyph name="R" xMin="143" yMin="0" xMax="1137" yMax="1365">
      <contour>
        <pt x="797" y="0" on="1"/>
        <pt x="423" y="543" on="1"/>
        <pt x="423" y="0" on="1"/>
        <pt x="143" y="0" on="1"/>
        <pt x="143" y="1365" on="1"/>
        <pt x="563" y="1365" on="1"/>
        <pt x="820" y="1365" on="0"/>
        <pt x="950" y="1257" on="1"/>
        <pt x="1001" y="1217" on="0"/>
        <pt x="1031" y="1159" on="1"/>
        <pt x="1085" y="1058" on="0"/>
        <pt x="1085" y="936" on="1"/>
        <pt x="1085" y="741" on="0"/>
        <pt x="961" y="626" on="1"/>
        <pt x="884" y="555" on="0"/>
        <pt x="761" y="524" on="1"/>
        <pt x="1137" y="0" on="1"/>
      </contour>
      <contour>
        <pt x="423" y="1133" on="1"/>
        <pt x="423" y="707" on="1"/>
        <pt x="551" y="707" on="1"/>
        <pt x="660" y="707" on="0"/>
        <pt x="724" y="753" on="1"/>
        <pt x="801" y="810" on="0"/>
        <pt x="801" y="921" on="1"/>
        <pt x="801" y="1014" on="0"/>
        <pt x="745" y="1072" on="1"/>
        <pt x="687" y="1133" on="0"/>
        <pt x="574" y="1133" on="1"/>
      </contour>
    </TTGlyph>
    <TTGlyph name="Racute" xMin="143" yMin="0" xMax="1137" yMax="1760">
      <contour>
        <pt x="797" y="0" on="1"/>
        <pt x="423" y="543" on="1"/>
        <pt x="423" y="0" on="1"/>
        <pt x="143" y="0" on="1"/>
        <pt x="143" y="1365" on="1"/>
        <pt x="563" y="1365" on="1"/>
        <pt x="820" y="1365" on="0"/>
        <pt x="950" y="1257" on="1"/>
        <pt x="1001" y="1217" on="0"/>
        <pt x="1031" y="1159" on="1"/>
        <pt x="1085" y="1058" on="0"/>
        <pt x="1085" y="936" on="1"/>
        <pt x="1085" y="741" on="0"/>
        <pt x="961" y="626" on="1"/>
        <pt x="884" y="555" on="0"/>
        <pt x="761" y="524" on="1"/>
        <pt x="1137" y="0" on="1"/>
      </contour>
      <contour>
        <pt x="423" y="1133" on="1"/>
        <pt x="423" y="707" on="1"/>
        <pt x="551" y="707" on="1"/>
        <pt x="660" y="707" on="0"/>
        <pt x="724" y="753" on="1"/>
        <pt x="801" y="810" on="0"/>
        <pt x="801" y="921" on="1"/>
        <pt x="801" y="1014" on="0"/>
        <pt x="745" y="1072" on="1"/>
        <pt x="687" y="1133" on="0"/>
        <pt x="574" y="1133" on="1"/>
      </contour>
      <contour>
        <pt x="463" y="1488" on="1"/>
        <pt x="656" y="1760" on="1"/>
        <pt x="925" y="1760" on="1"/>
        <pt x="641" y="1488" on="1"/>
      </contour>
    </TTGlyph>
    <TTGlyph name="Rcaron" xMin="143" yMin="0" xMax="1137" yMax="1761">
      <contour>
        <pt x="797" y="0" on="1"/>
        <pt x="423" y="543" on="1"/>
        <pt x="423" y="0" on="1"/>
        <pt x="143" y="0" on="1"/>
        <pt x="143" y="1365" on="1"/>
        <pt x="563" y="1365" on="1"/>
        <pt x="820" y="1365" on="0"/>
        <pt x="950" y="1257" on="1"/>
        <pt x="1001" y="1217" on="0"/>
        <pt x="1031" y="1159" on="1"/>
        <pt x="1085" y="1058" on="0"/>
        <pt x="1085" y="936" on="1"/>
        <pt x="1085" y="741" on="0"/>
        <pt x="961" y="626" on="1"/>
        <pt x="884" y="555" on="0"/>
        <pt x="761" y="524" on="1"/>
        <pt x="1137" y="0" on="1"/>
      </contour>
      <contour>
        <pt x="423" y="1133" on="1"/>
        <pt x="423" y="707" on="1"/>
        <pt x="551" y="707" on="1"/>
        <pt x="660" y="707" on="0"/>
        <pt x="724" y="753" on="1"/>
        <pt x="801" y="810" on="0"/>
        <pt x="801" y="921" on="1"/>
        <pt x="801" y="1014" on="0"/>
        <pt x="745" y="1072" on="1"/>
        <pt x="687" y="1133" on="0"/>
        <pt x="574" y="1133" on="1"/>
      </contour>
      <contour>
        <pt x="438" y="1761" on="1"/>
        <pt x="596" y="1622" on="1"/>
        <pt x="758" y="1761" on="1"/>
        <pt x="941" y="1761" on="1"/>
        <pt x="709" y="1488" on="1"/>
        <pt x="473" y="1488" on="1"/>
        <pt x="256" y="1761" on="1"/>
      </contour>
    </TTGlyph>
    <TTGlyph name="Rcommaaccent" xMin="143" yMin="-465" xMax="1137" yMax="1365">
      <contour>
        <pt x="797" y="0" on="1"/>
        <pt x="423" y="543" on="1"/>
        <pt x="423" y="0" on="1"/>
        <pt x="143" y="0" on="1"/>
        <pt x="143" y="1365" on="1"/>
        <pt x="563" y="1365" on="1"/>
        <pt x="820" y="1365" on="0"/>
        <pt x="950" y="1257" on="1"/>
        <pt x="1001" y="1217" on="0"/>
        <pt x="1031" y="1159" on="1"/>
        <pt x="1085" y="1058" on="0"/>
        <pt x="1085" y="936" on="1"/>
        <pt x="1085" y="741" on="0"/>
        <pt x="961" y="626" on="1"/>
        <pt x="884" y="555" on="0"/>
        <pt x="761" y="524" on="1"/>
        <pt x="1137" y="0" on="1"/>
      </contour>
      <contour>
        <pt x="423" y="1133" on="1"/>
        <pt x="423" y="707" on="1"/>
        <pt x="551" y="707" on="1"/>
        <pt x="660" y="707" on="0"/>
        <pt x="724" y="753" on="1"/>
        <pt x="801" y="810" on="0"/>
        <pt x="801" y="921" on="1"/>
        <pt x="801" y="1014" on="0"/>
        <pt x="745" y="1072" on="1"/>
        <pt x="687" y="1133" on="0"/>
        <pt x="574" y="1133" on="1"/>
      </contour>
      <contour>
        <pt x="481" y="-87" on="1"/>
        <pt x="712" y="-87" on="1"/>
        <pt x="712" y="-222" on="1"/>
        <pt x="712" y="-368" on="0"/>
        <pt x="630" y="-423" on="1"/>
        <pt x="579" y="-458" on="0"/>
        <pt x="471" y="-465" on="1"/>
        <pt x="471" y="-380" on="1"/>
        <pt x="532" y="-374" on="0"/>
        <pt x="570" y="-353" on="1"/>
        <pt x="604" y="-332" on="0"/>
        <pt x="609" y="-267" on="1"/>
        <pt x="481" y="-267" on="1"/>
      </contour>
    </TTGlyph>
    <TTGlyph name="Ring" xMin="322" yMin="1449" xMax="702" yMax="1821">
      <contour>
        <pt x="514" y="1821" on="1"/>
        <pt x="594" y="1821" on="0"/>
        <pt x="653" y="1761" on="1"/>
        <pt x="702" y="1711" on="0"/>
        <pt x="702" y="1632" on="1"/>
        <pt x="702" y="1549" on="0"/>
        <pt x="638" y="1495" on="1"/>
        <pt x="583" y="1449" on="0"/>
        <pt x="512" y="1449" on="1"/>
        <pt x="428" y="1449" on="0"/>
        <pt x="371" y="1509" on="1"/>
        <pt x="322" y="1559" on="0"/>
        <pt x="322" y="1635" on="1"/>
        <pt x="322" y="1721" on="0"/>
        <pt x="386" y="1775" on="1"/>
        <pt x="439" y="1821" on="0"/>
      </contour>
      <contour>
        <pt x="513" y="1727" on="1"/>
        <pt x="468" y="1727" on="0"/>
        <pt x="440" y="1694" on="1"/>
        <pt x="418" y="1669" on="0"/>
        <pt x="418" y="1635" on="1"/>
        <pt x="418" y="1596" on="0"/>
        <pt x="448" y="1568" on="1"/>
        <pt x="473" y="1543" on="0"/>
        <pt x="512" y="1543" on="1"/>
        <pt x="555" y="1543" on="0"/>
        <pt x="584" y="1575" on="1"/>
        <pt x="606" y="1601" on="0"/>
        <pt x="606" y="1633" on="1"/>
        <pt x="606" y="1674" on="0"/>
        <pt x="576" y="1702" on="1"/>
        <pt x="551" y="1727" on="0"/>
      </contour>
    </TTGlyph>
    <TTGlyph name="S" xMin="62" yMin="-26" xMax="996" yMax="1391">
      <contour>
        <pt x="64" y="399" on="1"/>
        <pt x="337" y="399" on="1"/>
        <pt x="337" y="345" on="0"/>
        <pt x="350" y="318" on="1"/>
        <pt x="373" y="273" on="0"/>
        <pt x="423" y="246" on="1"/>
        <pt x="470" y="222" on="0"/>
        <pt x="524" y="222" on="1"/>
        <pt x="604" y="222" on="0"/>
        <pt x="659" y="269" on="1"/>
        <pt x="704" y="310" on="0"/>
        <pt x="704" y="368" on="1"/>
        <pt x="704" y="434" on="0"/>
        <pt x="648" y="476" on="1"/>
        <pt x="607" y="506" on="0"/>
        <pt x="482" y="551" on="1"/>
        <pt x="283" y="621" on="0"/>
        <pt x="191" y="702" on="1"/>
        <pt x="76" y="802" on="0"/>
        <pt x="76" y="978" on="1"/>
        <pt x="76" y="1173" on="0"/>
        <pt x="209" y="1285" on="1"/>
        <pt x="333" y="1391" on="0"/>
        <pt x="528" y="1391" on="1"/>
        <pt x="716" y="1391" on="0"/>
        <pt x="838" y="1289" on="1"/>
        <pt x="970" y="1176" on="0"/>
        <pt x="988" y="974" on="1"/>
        <pt x="704" y="974" on="1"/>
        <pt x="691" y="1143" on="0"/>
        <pt x="526" y="1143" on="1"/>
        <pt x="441" y="1143" on="0"/>
        <pt x="397" y="1096" on="1"/>
        <pt x="359" y="1055" on="0"/>
        <pt x="359" y="1000" on="1"/>
        <pt x="359" y="916" on="0"/>
        <pt x="443" y="870" on="1"/>
        <pt x="486" y="847" on="0"/>
        <pt x="603" y="804" on="1"/>
        <pt x="750" y="751" on="0"/>
        <pt x="819" y="706" on="1"/>
        <pt x="996" y="592" on="0"/>
        <pt x="996" y="388" on="1"/>
        <pt x="996" y="172" on="0"/>
        <pt x="828" y="58" on="1"/>
        <pt x="704" y="-26" on="0"/>
        <pt x="526" y="-26" on="1"/>
        <pt x="322" y="-26" on="0"/>
        <pt x="201" y="77" on="1"/>
        <pt x="62" y="193" on="0"/>
      </contour>
    </TTGlyph>
    <TTGlyph name="Sacute" xMin="62" yMin="-26" xMax="996" yMax="1760">
      <contour>
        <pt x="64" y="399" on="1"/>
        <pt x="337" y="399" on="1"/>
        <pt x="337" y="345" on="0"/>
        <pt x="350" y="318" on="1"/>
        <pt x="373" y="273" on="0"/>
        <pt x="423" y="246" on="1"/>
        <pt x="470" y="222" on="0"/>
        <pt x="524" y="222" on="1"/>
        <pt x="604" y="222" on="0"/>
        <pt x="659" y="269" on="1"/>
        <pt x="704" y="310" on="0"/>
        <pt x="704" y="368" on="1"/>
        <pt x="704" y="434" on="0"/>
        <pt x="648" y="476" on="1"/>
        <pt x="607" y="506" on="0"/>
        <pt x="482" y="551" on="1"/>
        <pt x="283" y="621" on="0"/>
        <pt x="191" y="702" on="1"/>
        <pt x="76" y="802" on="0"/>
        <pt x="76" y="978" on="1"/>
        <pt x="76" y="1173" on="0"/>
        <pt x="209" y="1285" on="1"/>
        <pt x="333" y="1391" on="0"/>
        <pt x="528" y="1391" on="1"/>
        <pt x="716" y="1391" on="0"/>
        <pt x="838" y="1289" on="1"/>
        <pt x="970" y="1176" on="0"/>
        <pt x="988" y="974" on="1"/>
        <pt x="704" y="974" on="1"/>
        <pt x="691" y="1143" on="0"/>
        <pt x="526" y="1143" on="1"/>
        <pt x="441" y="1143" on="0"/>
        <pt x="397" y="1096" on="1"/>
        <pt x="359" y="1055" on="0"/>
        <pt x="359" y="1000" on="1"/>
        <pt x="359" y="916" on="0"/>
        <pt x="443" y="870" on="1"/>
        <pt x="486" y="847" on="0"/>
        <pt x="603" y="804" on="1"/>
        <pt x="750" y="751" on="0"/>
        <pt x="819" y="706" on="1"/>
        <pt x="996" y="592" on="0"/>
        <pt x="996" y="388" on="1"/>
        <pt x="996" y="172" on="0"/>
        <pt x="828" y="58" on="1"/>
        <pt x="704" y="-26" on="0"/>
        <pt x="526" y="-26" on="1"/>
        <pt x="322" y="-26" on="0"/>
        <pt x="201" y="77" on="1"/>
        <pt x="62" y="193" on="0"/>
      </contour>
      <contour>
        <pt x="401" y="1488" on="1"/>
        <pt x="593" y="1760" on="1"/>
        <pt x="862" y="1760" on="1"/>
        <pt x="579" y="1488" on="1"/>
      </contour>
    </TTGlyph>
    <TTGlyph name="Scaron" xMin="62" yMin="-26" xMax="996" yMax="1761">
      <contour>
        <pt x="64" y="399" on="1"/>
        <pt x="337" y="399" on="1"/>
        <pt x="337" y="345" on="0"/>
        <pt x="350" y="318" on="1"/>
        <pt x="373" y="273" on="0"/>
        <pt x="423" y="246" on="1"/>
        <pt x="470" y="222" on="0"/>
        <pt x="524" y="222" on="1"/>
        <pt x="604" y="222" on="0"/>
        <pt x="659" y="269" on="1"/>
        <pt x="704" y="310" on="0"/>
        <pt x="704" y="368" on="1"/>
        <pt x="704" y="434" on="0"/>
        <pt x="648" y="476" on="1"/>
        <pt x="607" y="506" on="0"/>
        <pt x="482" y="551" on="1"/>
        <pt x="283" y="621" on="0"/>
        <pt x="191" y="702" on="1"/>
        <pt x="76" y="802" on="0"/>
        <pt x="76" y="978" on="1"/>
        <pt x="76" y="1173" on="0"/>
        <pt x="209" y="1285" on="1"/>
        <pt x="333" y="1391" on="0"/>
        <pt x="528" y="1391" on="1"/>
        <pt x="716" y="1391" on="0"/>
        <pt x="838" y="1289" on="1"/>
        <pt x="970" y="1176" on="0"/>
        <pt x="988" y="974" on="1"/>
        <pt x="704" y="974" on="1"/>
        <pt x="691" y="1143" on="0"/>
        <pt x="526" y="1143" on="1"/>
        <pt x="441" y="1143" on="0"/>
        <pt x="397" y="1096" on="1"/>
        <pt x="359" y="1055" on="0"/>
        <pt x="359" y="1000" on="1"/>
        <pt x="359" y="916" on="0"/>
        <pt x="443" y="870" on="1"/>
        <pt x="486" y="847" on="0"/>
        <pt x="603" y="804" on="1"/>
        <pt x="750" y="751" on="0"/>
        <pt x="819" y="706" on="1"/>
        <pt x="996" y="592" on="0"/>
        <pt x="996" y="388" on="1"/>
        <pt x="996" y="172" on="0"/>
        <pt x="828" y="58" on="1"/>
        <pt x="704" y="-26" on="0"/>
        <pt x="526" y="-26" on="1"/>
        <pt x="322" y="-26" on="0"/>
        <pt x="201" y="77" on="1"/>
        <pt x="62" y="193" on="0"/>
      </contour>
      <contour>
        <pt x="375" y="1761" on="1"/>
        <pt x="533" y="1622" on="1"/>
        <pt x="696" y="1761" on="1"/>
        <pt x="878" y="1761" on="1"/>
        <pt x="647" y="1488" on="1"/>
        <pt x="410" y="1488" on="1"/>
        <pt x="193" y="1761" on="1"/>
      </contour>
    </TTGlyph>
    <TTGlyph name="Scedilla" xMin="47" yMin="-441" xMax="1193" yMax="1394">
      <contour>
        <pt x="654" y="-29" on="1"/>
        <pt x="599" y="-114" on="1"/>
        <pt x="667" y="-103" on="0"/>
        <pt x="689" y="-103" on="1"/>
        <pt x="770" y="-103" on="0"/>
        <pt x="819" y="-141" on="1"/>
        <pt x="874" y="-184" on="0"/>
        <pt x="874" y="-255" on="1"/>
        <pt x="874" y="-346" on="0"/>
        <pt x="789" y="-401" on="1"/>
        <pt x="728" y="-441" on="0"/>
        <pt x="626" y="-441" on="1"/>
        <pt x="500" y="-441" on="0"/>
        <pt x="366" y="-387" on="1"/>
        <pt x="403" y="-306" on="1"/>
        <pt x="511" y="-350" on="0"/>
        <pt x="596" y="-350" on="1"/>
        <pt x="651" y="-350" on="0"/>
        <pt x="680" y="-325" on="1"/>
        <pt x="710" y="-300" on="0"/>
        <pt x="710" y="-263" on="1"/>
        <pt x="710" y="-222" on="0"/>
        <pt x="672" y="-199" on="1"/>
        <pt x="646" y="-185" on="0"/>
        <pt x="609" y="-185" on="1"/>
        <pt x="571" y="-185" on="0"/>
        <pt x="514" y="-204" on="1"/>
        <pt x="466" y="-162" on="1"/>
        <pt x="556" y="-26" on="1"/>
        <pt x="318" y="-7" on="0"/>
        <pt x="189" y="109" on="1"/>
        <pt x="49" y="236" on="0"/>
        <pt x="47" y="458" on="1"/>
        <pt x="332" y="458" on="1"/>
        <pt x="336" y="385" on="0"/>
        <pt x="349" y="349" on="1"/>
        <pt x="406" y="187" on="0"/>
        <pt x="639" y="187" on="1"/>
        <pt x="785" y="187" on="0"/>
        <pt x="855" y="254" on="1"/>
        <pt x="911" y="307" on="0"/>
        <pt x="911" y="384" on="1"/>
        <pt x="911" y="458" on="0"/>
        <pt x="855" y="496" on="1"/>
        <pt x="811" y="526" on="0"/>
        <pt x="579" y="591" on="1"/>
        <pt x="387" y="646" on="0"/>
        <pt x="311" y="678" on="1"/>
        <pt x="95" y="770" on="0"/>
        <pt x="95" y="995" on="1"/>
        <pt x="95" y="1195" on="0"/>
        <pt x="265" y="1305" on="1"/>
        <pt x="404" y="1394" on="0"/>
        <pt x="612" y="1394" on="1"/>
        <pt x="910" y="1394" on="0"/>
        <pt x="1050" y="1238" on="1"/>
        <pt x="1144" y="1134" on="0"/>
        <pt x="1148" y="962" on="1"/>
        <pt x="878" y="962" on="1"/>
        <pt x="873" y="1054" on="0"/>
        <pt x="824" y="1105" on="1"/>
        <pt x="754" y="1178" on="0"/>
        <pt x="603" y="1178" on="1"/>
        <pt x="507" y="1178" on="0"/>
        <pt x="442" y="1140" on="1"/>
        <pt x="369" y="1097" on="0"/>
        <pt x="369" y="1014" on="1"/>
        <pt x="369" y="935" on="0"/>
        <pt x="431" y="900" on="1"/>
        <pt x="479" y="873" on="0"/>
        <pt x="690" y="819" on="1"/>
        <pt x="940" y="753" on="0"/>
        <pt x="1021" y="706" on="1"/>
        <pt x="1193" y="609" on="0"/>
        <pt x="1193" y="405" on="1"/>
        <pt x="1193" y="228" on="0"/>
        <pt x="1076" y="116" on="1"/>
        <pt x="932" y="-22" on="0"/>
      </contour>
    </TTGlyph>
    <TTGlyph name="Scircumflex" xMin="62" yMin="-26" xMax="996" yMax="1761">
      <contour>
        <pt x="64" y="399" on="1"/>
        <pt x="337" y="399" on="1"/>
        <pt x="337" y="345" on="0"/>
        <pt x="350" y="318" on="1"/>
        <pt x="373" y="273" on="0"/>
        <pt x="423" y="246" on="1"/>
        <pt x="470" y="222" on="0"/>
        <pt x="524" y="222" on="1"/>
        <pt x="604" y="222" on="0"/>
        <pt x="659" y="269" on="1"/>
        <pt x="704" y="310" on="0"/>
        <pt x="704" y="368" on="1"/>
        <pt x="704" y="434" on="0"/>
        <pt x="648" y="476" on="1"/>
        <pt x="607" y="506" on="0"/>
        <pt x="482" y="551" on="1"/>
        <pt x="283" y="621" on="0"/>
        <pt x="191" y="702" on="1"/>
        <pt x="76" y="802" on="0"/>
        <pt x="76" y="978" on="1"/>
        <pt x="76" y="1173" on="0"/>
        <pt x="209" y="1285" on="1"/>
        <pt x="333" y="1391" on="0"/>
        <pt x="528" y="1391" on="1"/>
        <pt x="716" y="1391" on="0"/>
        <pt x="838" y="1289" on="1"/>
        <pt x="970" y="1176" on="0"/>
        <pt x="988" y="974" on="1"/>
        <pt x="704" y="974" on="1"/>
        <pt x="691" y="1143" on="0"/>
        <pt x="526" y="1143" on="1"/>
        <pt x="441" y="1143" on="0"/>
        <pt x="397" y="1096" on="1"/>
        <pt x="359" y="1055" on="0"/>
        <pt x="359" y="1000" on="1"/>
        <pt x="359" y="916" on="0"/>
        <pt x="443" y="870" on="1"/>
        <pt x="486" y="847" on="0"/>
        <pt x="603" y="804" on="1"/>
        <pt x="750" y="751" on="0"/>
        <pt x="819" y="706" on="1"/>
        <pt x="996" y="592" on="0"/>
        <pt x="996" y="388" on="1"/>
        <pt x="996" y="172" on="0"/>
        <pt x="828" y="58" on="1"/>
        <pt x="704" y="-26" on="0"/>
        <pt x="526" y="-26" on="1"/>
        <pt x="322" y="-26" on="0"/>
        <pt x="201" y="77" on="1"/>
        <pt x="62" y="193" on="0"/>
      </contour>
      <contour>
        <pt x="696" y="1488" on="1"/>
        <pt x="538" y="1627" on="1"/>
        <pt x="376" y="1488" on="1"/>
        <pt x="193" y="1488" on="1"/>
        <pt x="425" y="1761" on="1"/>
        <pt x="661" y="1761" on="1"/>
        <pt x="878" y="1488" on="1"/>
      </contour>
    </TTGlyph>
    <TTGlyph name="T" xMin="7" yMin="0" xMax="937" yMax="1365">
      <contour>
        <pt x="937" y="1136" on="1"/>
        <pt x="612" y="1136" on="1"/>
        <pt x="612" y="0" on="1"/>
        <pt x="332" y="0" on="1"/>
        <pt x="332" y="1136" on="1"/>
        <pt x="7" y="1136" on="1"/>
        <pt x="7" y="1365" on="1"/>
        <pt x="937" y="1365" on="1"/>
      </contour>
    </TTGlyph>
    <TTGlyph name="Tbar" xMin="10" yMin="0" xMax="1139" yMax="1365">
      <contour>
        <pt x="717" y="1125" on="1"/>
        <pt x="717" y="861" on="1"/>
        <pt x="1059" y="861" on="1"/>
        <pt x="1059" y="665" on="1"/>
        <pt x="717" y="665" on="1"/>
        <pt x="717" y="0" on="1"/>
        <pt x="433" y="0" on="1"/>
        <pt x="433" y="665" on="1"/>
        <pt x="91" y="665" on="1"/>
        <pt x="91" y="861" on="1"/>
        <pt x="433" y="861" on="1"/>
        <pt x="433" y="1125" on="1"/>
        <pt x="10" y="1125" on="1"/>
        <pt x="10" y="1365" on="1"/>
        <pt x="1139" y="1365" on="1"/>
        <pt x="1139" y="1125" on="1"/>
      </contour>
    </TTGlyph>
    <TTGlyph name="Tcaron" xMin="7" yMin="0" xMax="937" yMax="1761">
      <contour>
        <pt x="937" y="1136" on="1"/>
        <pt x="612" y="1136" on="1"/>
        <pt x="612" y="0" on="1"/>
        <pt x="332" y="0" on="1"/>
        <pt x="332" y="1136" on="1"/>
        <pt x="7" y="1136" on="1"/>
        <pt x="7" y="1365" on="1"/>
        <pt x="937" y="1365" on="1"/>
      </contour>
      <contour>
        <pt x="311" y="1761" on="1"/>
        <pt x="470" y="1622" on="1"/>
        <pt x="632" y="1761" on="1"/>
        <pt x="815" y="1761" on="1"/>
        <pt x="583" y="1488" on="1"/>
        <pt x="347" y="1488" on="1"/>
        <pt x="130" y="1761" on="1"/>
      </contour>
    </TTGlyph>
    <TTGlyph name="Tcommaaccent" xMin="7" yMin="-465" xMax="937" yMax="1365">
      <contour>
        <pt x="937" y="1136" on="1"/>
        <pt x="612" y="1136" on="1"/>
        <pt x="612" y="0" on="1"/>
        <pt x="332" y="0" on="1"/>
        <pt x="332" y="1136" on="1"/>
        <pt x="7" y="1136" on="1"/>
        <pt x="7" y="1365" on="1"/>
        <pt x="937" y="1365" on="1"/>
      </contour>
      <contour>
        <pt x="355" y="-87" on="1"/>
        <pt x="586" y="-87" on="1"/>
        <pt x="586" y="-222" on="1"/>
        <pt x="586" y="-368" on="0"/>
        <pt x="504" y="-423" on="1"/>
        <pt x="451" y="-458" on="0"/>
        <pt x="344" y="-465" on="1"/>
        <pt x="344" y="-380" on="1"/>
        <pt x="406" y="-376" on="0"/>
        <pt x="444" y="-353" on="1"/>
        <pt x="478" y="-332" on="0"/>
        <pt x="483" y="-267" on="1"/>
        <pt x="355" y="-267" on="1"/>
      </contour>
    </TTGlyph>
    <TTGlyph name="Thorn" xMin="140" yMin="0" xMax="1081" yMax="1365">
      <contour>
        <pt x="595" y="321" on="1"/>
        <pt x="420" y="321" on="1"/>
        <pt x="420" y="0" on="1"/>
        <pt x="140" y="0" on="1"/>
        <pt x="140" y="1365" on="1"/>
        <pt x="420" y="1365" on="1"/>
        <pt x="420" y="1217" on="1"/>
        <pt x="576" y="1217" on="1"/>
        <pt x="821" y="1217" on="0"/>
        <pt x="952" y="1101" on="1"/>
        <pt x="1081" y="987" on="0"/>
        <pt x="1081" y="780" on="1"/>
        <pt x="1081" y="615" on="0"/>
        <pt x="998" y="499" on="1"/>
        <pt x="872" y="321" on="0"/>
      </contour>
      <contour>
        <pt x="420" y="985" on="1"/>
        <pt x="420" y="552" on="1"/>
        <pt x="540" y="552" on="1"/>
        <pt x="621" y="552" on="0"/>
        <pt x="675" y="575" on="1"/>
        <pt x="797" y="629" on="0"/>
        <pt x="797" y="767" on="1"/>
        <pt x="797" y="896" on="0"/>
        <pt x="689" y="955" on="1"/>
        <pt x="630" y="985" on="0"/>
        <pt x="548" y="985" on="1"/>
      </contour>
    </TTGlyph>
    <TTGlyph name="Tilde" xMin="170" yMin="1499" xMax="882" yMax="1745">
      <contour>
        <pt x="711" y="1745" on="1"/>
        <pt x="882" y="1731" on="1"/>
        <pt x="820" y="1500" on="0"/>
        <pt x="664" y="1500" on="1"/>
        <pt x="619" y="1500" on="0"/>
        <pt x="514" y="1539" on="1"/>
        <pt x="430" y="1571" on="0"/>
        <pt x="406" y="1571" on="1"/>
        <pt x="354" y="1571" on="0"/>
        <pt x="341" y="1499" on="1"/>
        <pt x="170" y="1510" on="1"/>
        <pt x="187" y="1591" on="0"/>
        <pt x="209" y="1628" on="1"/>
        <pt x="246" y="1692" on="0"/>
        <pt x="305" y="1722" on="1"/>
        <pt x="346" y="1743" on="0"/>
        <pt x="386" y="1743" on="1"/>
        <pt x="425" y="1743" on="0"/>
        <pt x="557" y="1693" on="1"/>
        <pt x="616" y="1669" on="0"/>
        <pt x="634" y="1669" on="1"/>
        <pt x="686" y="1669" on="0"/>
      </contour>
    </TTGlyph>
    <TTGlyph name="U" xMin="121" yMin="-26" xMax="1188" yMax="1365">
      <contour>
        <pt x="121" y="1365" on="1"/>
        <pt x="401" y="1365" on="1"/>
        <pt x="401" y="565" on="1"/>
        <pt x="401" y="389" on="0"/>
        <pt x="462" y="316" on="1"/>
        <pt x="531" y="233" on="0"/>
        <pt x="654" y="233" on="1"/>
        <pt x="741" y="233" on="0"/>
        <pt x="809" y="283" on="1"/>
        <pt x="876" y="333" on="0"/>
        <pt x="895" y="422" on="1"/>
        <pt x="906" y="474" on="0"/>
        <pt x="906" y="566" on="1"/>
        <pt x="906" y="1365" on="1"/>
        <pt x="1188" y="1365" on="1"/>
        <pt x="1188" y="575" on="1"/>
        <pt x="1188" y="371" on="0"/>
        <pt x="1129" y="247" on="1"/>
        <pt x="1061" y="104" on="0"/>
        <pt x="923" y="34" on="1"/>
        <pt x="804" y="-26" on="0"/>
        <pt x="657" y="-26" on="1"/>
        <pt x="482" y="-26" on="0"/>
        <pt x="346" y="58" on="1"/>
        <pt x="204" y="146" on="0"/>
        <pt x="154" y="298" on="1"/>
        <pt x="121" y="402" on="0"/>
        <pt x="121" y="575" on="1"/>
      </contour>
    </TTGlyph>
    <TTGlyph name="Uacute" xMin="121" yMin="-26" xMax="1188" yMax="1760">
      <contour>
        <pt x="121" y="1365" on="1"/>
        <pt x="401" y="1365" on="1"/>
        <pt x="401" y="565" on="1"/>
        <pt x="401" y="389" on="0"/>
        <pt x="462" y="316" on="1"/>
        <pt x="531" y="233" on="0"/>
        <pt x="654" y="233" on="1"/>
        <pt x="741" y="233" on="0"/>
        <pt x="809" y="283" on="1"/>
        <pt x="876" y="333" on="0"/>
        <pt x="895" y="422" on="1"/>
        <pt x="906" y="474" on="0"/>
        <pt x="906" y="566" on="1"/>
        <pt x="906" y="1365" on="1"/>
        <pt x="1188" y="1365" on="1"/>
        <pt x="1188" y="575" on="1"/>
        <pt x="1188" y="371" on="0"/>
        <pt x="1129" y="247" on="1"/>
        <pt x="1061" y="104" on="0"/>
        <pt x="923" y="34" on="1"/>
        <pt x="804" y="-26" on="0"/>
        <pt x="657" y="-26" on="1"/>
        <pt x="482" y="-26" on="0"/>
        <pt x="346" y="58" on="1"/>
        <pt x="204" y="146" on="0"/>
        <pt x="154" y="298" on="1"/>
        <pt x="121" y="402" on="0"/>
        <pt x="121" y="575" on="1"/>
      </contour>
      <contour>
        <pt x="519" y="1488" on="1"/>
        <pt x="712" y="1760" on="1"/>
        <pt x="981" y="1760" on="1"/>
        <pt x="697" y="1488" on="1"/>
      </contour>
    </TTGlyph>
    <TTGlyph name="Ucircumflex" xMin="121" yMin="-26" xMax="1188" yMax="1761">
      <contour>
        <pt x="121" y="1365" on="1"/>
        <pt x="401" y="1365" on="1"/>
        <pt x="401" y="565" on="1"/>
        <pt x="401" y="389" on="0"/>
        <pt x="462" y="316" on="1"/>
        <pt x="531" y="233" on="0"/>
        <pt x="654" y="233" on="1"/>
        <pt x="741" y="233" on="0"/>
        <pt x="809" y="283" on="1"/>
        <pt x="876" y="333" on="0"/>
        <pt x="895" y="422" on="1"/>
        <pt x="906" y="474" on="0"/>
        <pt x="906" y="566" on="1"/>
        <pt x="906" y="1365" on="1"/>
        <pt x="1188" y="1365" on="1"/>
        <pt x="1188" y="575" on="1"/>
        <pt x="1188" y="371" on="0"/>
        <pt x="1129" y="247" on="1"/>
        <pt x="1061" y="104" on="0"/>
        <pt x="923" y="34" on="1"/>
        <pt x="804" y="-26" on="0"/>
        <pt x="657" y="-26" on="1"/>
        <pt x="482" y="-26" on="0"/>
        <pt x="346" y="58" on="1"/>
        <pt x="204" y="146" on="0"/>
        <pt x="154" y="298" on="1"/>
        <pt x="121" y="402" on="0"/>
        <pt x="121" y="575" on="1"/>
      </contour>
      <contour>
        <pt x="815" y="1488" on="1"/>
        <pt x="657" y="1627" on="1"/>
        <pt x="494" y="1488" on="1"/>
        <pt x="312" y="1488" on="1"/>
        <pt x="543" y="1761" on="1"/>
        <pt x="780" y="1761" on="1"/>
        <pt x="997" y="1488" on="1"/>
      </contour>
    </TTGlyph>
    <TTGlyph name="Udieresis" xMin="121" yMin="-26" xMax="1188" yMax="1781">
      <contour>
        <pt x="121" y="1365" on="1"/>
        <pt x="401" y="1365" on="1"/>
        <pt x="401" y="565" on="1"/>
        <pt x="401" y="389" on="0"/>
        <pt x="462" y="316" on="1"/>
        <pt x="531" y="233" on="0"/>
        <pt x="654" y="233" on="1"/>
        <pt x="741" y="233" on="0"/>
        <pt x="809" y="283" on="1"/>
        <pt x="876" y="333" on="0"/>
        <pt x="895" y="422" on="1"/>
        <pt x="906" y="474" on="0"/>
        <pt x="906" y="566" on="1"/>
        <pt x="906" y="1365" on="1"/>
        <pt x="1188" y="1365" on="1"/>
        <pt x="1188" y="575" on="1"/>
        <pt x="1188" y="371" on="0"/>
        <pt x="1129" y="247" on="1"/>
        <pt x="1061" y="104" on="0"/>
        <pt x="923" y="34" on="1"/>
        <pt x="804" y="-26" on="0"/>
        <pt x="657" y="-26" on="1"/>
        <pt x="482" y="-26" on="0"/>
        <pt x="346" y="58" on="1"/>
        <pt x="204" y="146" on="0"/>
        <pt x="154" y="298" on="1"/>
        <pt x="121" y="402" on="0"/>
        <pt x="121" y="575" on="1"/>
      </contour>
      <contour>
        <pt x="435" y="1781" on="1"/>
        <pt x="496" y="1781" on="0"/>
        <pt x="537" y="1736" on="1"/>
        <pt x="575" y="1695" on="0"/>
        <pt x="575" y="1638" on="1"/>
        <pt x="575" y="1576" on="0"/>
        <pt x="526" y="1533" on="1"/>
        <pt x="489" y="1499" on="0"/>
        <pt x="434" y="1499" on="1"/>
        <pt x="372" y="1499" on="0"/>
        <pt x="331" y="1544" on="1"/>
        <pt x="293" y="1585" on="0"/>
        <pt x="293" y="1640" on="1"/>
        <pt x="293" y="1704" on="0"/>
        <pt x="342" y="1747" on="1"/>
        <pt x="379" y="1781" on="0"/>
      </contour>
      <contour>
        <pt x="871" y="1781" on="1"/>
        <pt x="932" y="1781" on="0"/>
        <pt x="973" y="1736" on="1"/>
        <pt x="1011" y="1695" on="0"/>
        <pt x="1011" y="1638" on="1"/>
        <pt x="1011" y="1575" on="0"/>
        <pt x="962" y="1533" on="1"/>
        <pt x="925" y="1499" on="0"/>
        <pt x="870" y="1499" on="1"/>
        <pt x="808" y="1499" on="0"/>
        <pt x="767" y="1544" on="1"/>
        <pt x="729" y="1585" on="0"/>
        <pt x="729" y="1640" on="1"/>
        <pt x="729" y="1704" on="0"/>
        <pt x="778" y="1747" on="1"/>
        <pt x="815" y="1781" on="0"/>
      </contour>
    </TTGlyph>
    <TTGlyph name="Ugrave" xMin="121" yMin="-26" xMax="1188" yMax="1760">
      <contour>
        <pt x="121" y="1365" on="1"/>
        <pt x="401" y="1365" on="1"/>
        <pt x="401" y="565" on="1"/>
        <pt x="401" y="389" on="0"/>
        <pt x="462" y="316" on="1"/>
        <pt x="531" y="233" on="0"/>
        <pt x="654" y="233" on="1"/>
        <pt x="741" y="233" on="0"/>
        <pt x="809" y="283" on="1"/>
        <pt x="876" y="333" on="0"/>
        <pt x="895" y="422" on="1"/>
        <pt x="906" y="474" on="0"/>
        <pt x="906" y="566" on="1"/>
        <pt x="906" y="1365" on="1"/>
        <pt x="1188" y="1365" on="1"/>
        <pt x="1188" y="575" on="1"/>
        <pt x="1188" y="371" on="0"/>
        <pt x="1129" y="247" on="1"/>
        <pt x="1061" y="104" on="0"/>
        <pt x="923" y="34" on="1"/>
        <pt x="804" y="-26" on="0"/>
        <pt x="657" y="-26" on="1"/>
        <pt x="482" y="-26" on="0"/>
        <pt x="346" y="58" on="1"/>
        <pt x="204" y="146" on="0"/>
        <pt x="154" y="298" on="1"/>
        <pt x="121" y="402" on="0"/>
        <pt x="121" y="575" on="1"/>
      </contour>
      <contour>
        <pt x="328" y="1760" on="1"/>
        <pt x="597" y="1760" on="1"/>
        <pt x="790" y="1488" on="1"/>
        <pt x="611" y="1488" on="1"/>
      </contour>
    </TTGlyph>
    <TTGlyph name="Uhungarumlaut" xMin="121" yMin="-26" xMax="1188" yMax="1757">
      <contour>
        <pt x="121" y="1365" on="1"/>
        <pt x="401" y="1365" on="1"/>
        <pt x="401" y="565" on="1"/>
        <pt x="401" y="389" on="0"/>
        <pt x="462" y="316" on="1"/>
        <pt x="531" y="233" on="0"/>
        <pt x="654" y="233" on="1"/>
        <pt x="741" y="233" on="0"/>
        <pt x="809" y="283" on="1"/>
        <pt x="876" y="333" on="0"/>
        <pt x="895" y="422" on="1"/>
        <pt x="906" y="474" on="0"/>
        <pt x="906" y="566" on="1"/>
        <pt x="906" y="1365" on="1"/>
        <pt x="1188" y="1365" on="1"/>
        <pt x="1188" y="575" on="1"/>
        <pt x="1188" y="371" on="0"/>
        <pt x="1129" y="247" on="1"/>
        <pt x="1061" y="104" on="0"/>
        <pt x="923" y="34" on="1"/>
        <pt x="804" y="-26" on="0"/>
        <pt x="657" y="-26" on="1"/>
        <pt x="482" y="-26" on="0"/>
        <pt x="346" y="58" on="1"/>
        <pt x="204" y="146" on="0"/>
        <pt x="154" y="298" on="1"/>
        <pt x="121" y="402" on="0"/>
        <pt x="121" y="575" on="1"/>
      </contour>
      <contour>
        <pt x="367" y="1488" on="1"/>
        <pt x="533" y="1757" on="1"/>
        <pt x="770" y="1757" on="1"/>
        <pt x="522" y="1488" on="1"/>
      </contour>
      <contour>
        <pt x="729" y="1488" on="1"/>
        <pt x="894" y="1757" on="1"/>
        <pt x="1131" y="1757" on="1"/>
        <pt x="883" y="1488" on="1"/>
      </contour>
    </TTGlyph>
    <TTGlyph name="Umacron" xMin="121" yMin="-26" xMax="1188" yMax="1686">
      <contour>
        <pt x="121" y="1365" on="1"/>
        <pt x="401" y="1365" on="1"/>
        <pt x="401" y="565" on="1"/>
        <pt x="401" y="389" on="0"/>
        <pt x="462" y="316" on="1"/>
        <pt x="531" y="233" on="0"/>
        <pt x="654" y="233" on="1"/>
        <pt x="741" y="233" on="0"/>
        <pt x="809" y="283" on="1"/>
        <pt x="876" y="333" on="0"/>
        <pt x="895" y="422" on="1"/>
        <pt x="906" y="474" on="0"/>
        <pt x="906" y="566" on="1"/>
        <pt x="906" y="1365" on="1"/>
        <pt x="1188" y="1365" on="1"/>
        <pt x="1188" y="575" on="1"/>
        <pt x="1188" y="371" on="0"/>
        <pt x="1129" y="247" on="1"/>
        <pt x="1061" y="104" on="0"/>
        <pt x="923" y="34" on="1"/>
        <pt x="804" y="-26" on="0"/>
        <pt x="657" y="-26" on="1"/>
        <pt x="482" y="-26" on="0"/>
        <pt x="346" y="58" on="1"/>
        <pt x="204" y="146" on="0"/>
        <pt x="154" y="298" on="1"/>
        <pt x="121" y="402" on="0"/>
        <pt x="121" y="575" on="1"/>
      </contour>
      <contour>
        <pt x="855" y="1574" on="1"/>
        <pt x="453" y="1574" on="1"/>
        <pt x="453" y="1686" on="1"/>
        <pt x="855" y="1686" on="1"/>
      </contour>
    </TTGlyph>
    <TTGlyph name="Uogonek" xMin="121" yMin="-412" xMax="1188" yMax="1365">
      <contour>
        <pt x="823" y="-4" on="1"/>
        <pt x="687" y="-106" on="0"/>
        <pt x="687" y="-183" on="1"/>
        <pt x="687" y="-209" on="0"/>
        <pt x="707" y="-227" on="1"/>
        <pt x="736" y="-252" on="0"/>
        <pt x="789" y="-252" on="1"/>
        <pt x="818" y="-252" on="0"/>
        <pt x="863" y="-240" on="1"/>
        <pt x="881" y="-389" on="1"/>
        <pt x="803" y="-412" on="0"/>
        <pt x="738" y="-412" on="1"/>
        <pt x="627" y="-412" on="0"/>
        <pt x="563" y="-360" on="1"/>
        <pt x="498" y="-309" on="0"/>
        <pt x="498" y="-236" on="1"/>
        <pt x="498" y="-119" on="0"/>
        <pt x="616" y="-25" on="1"/>
        <pt x="440" y="-15" on="0"/>
        <pt x="309" y="83" on="1"/>
        <pt x="195" y="169" on="0"/>
        <pt x="154" y="298" on="1"/>
        <pt x="121" y="402" on="0"/>
        <pt x="121" y="575" on="1"/>
        <pt x="121" y="1365" on="1"/>
        <pt x="401" y="1365" on="1"/>
        <pt x="401" y="564" on="1"/>
        <pt x="401" y="389" on="0"/>
        <pt x="462" y="316" on="1"/>
        <pt x="531" y="232" on="0"/>
        <pt x="654" y="232" on="1"/>
        <pt x="741" y="232" on="0"/>
        <pt x="809" y="282" on="1"/>
        <pt x="876" y="332" on="0"/>
        <pt x="895" y="421" on="1"/>
        <pt x="906" y="473" on="0"/>
        <pt x="906" y="566" on="1"/>
        <pt x="906" y="1365" on="1"/>
        <pt x="1188" y="1365" on="1"/>
        <pt x="1188" y="575" on="1"/>
        <pt x="1188" y="340" on="0"/>
        <pt x="1108" y="206" on="1"/>
        <pt x="1015" y="52" on="0"/>
      </contour>
    </TTGlyph>
    <TTGlyph name="Uring" xMin="121" yMin="-26" xMax="1188" yMax="1821">
      <contour>
        <pt x="121" y="1365" on="1"/>
        <pt x="401" y="1365" on="1"/>
        <pt x="401" y="565" on="1"/>
        <pt x="401" y="389" on="0"/>
        <pt x="462" y="316" on="1"/>
        <pt x="531" y="233" on="0"/>
        <pt x="654" y="233" on="1"/>
        <pt x="741" y="233" on="0"/>
        <pt x="809" y="283" on="1"/>
        <pt x="876" y="333" on="0"/>
        <pt x="895" y="422" on="1"/>
        <pt x="906" y="474" on="0"/>
        <pt x="906" y="566" on="1"/>
        <pt x="906" y="1365" on="1"/>
        <pt x="1188" y="1365" on="1"/>
        <pt x="1188" y="575" on="1"/>
        <pt x="1188" y="371" on="0"/>
        <pt x="1129" y="247" on="1"/>
        <pt x="1061" y="104" on="0"/>
        <pt x="923" y="34" on="1"/>
        <pt x="804" y="-26" on="0"/>
        <pt x="657" y="-26" on="1"/>
        <pt x="482" y="-26" on="0"/>
        <pt x="346" y="58" on="1"/>
        <pt x="204" y="146" on="0"/>
        <pt x="154" y="298" on="1"/>
        <pt x="121" y="402" on="0"/>
        <pt x="121" y="575" on="1"/>
      </contour>
      <contour>
        <pt x="656" y="1821" on="1"/>
        <pt x="736" y="1821" on="0"/>
        <pt x="795" y="1761" on="1"/>
        <pt x="844" y="1711" on="0"/>
        <pt x="844" y="1632" on="1"/>
        <pt x="844" y="1549" on="0"/>
        <pt x="780" y="1495" on="1"/>
        <pt x="725" y="1449" on="0"/>
        <pt x="654" y="1449" on="1"/>
        <pt x="570" y="1449" on="0"/>
        <pt x="513" y="1509" on="1"/>
        <pt x="464" y="1559" on="0"/>
        <pt x="464" y="1635" on="1"/>
        <pt x="464" y="1721" on="0"/>
        <pt x="528" y="1775" on="1"/>
        <pt x="581" y="1821" on="0"/>
      </contour>
      <contour>
        <pt x="655" y="1727" on="1"/>
        <pt x="610" y="1727" on="0"/>
        <pt x="582" y="1694" on="1"/>
        <pt x="560" y="1669" on="0"/>
        <pt x="560" y="1635" on="1"/>
        <pt x="560" y="1596" on="0"/>
        <pt x="590" y="1568" on="1"/>
        <pt x="615" y="1543" on="0"/>
        <pt x="654" y="1543" on="1"/>
        <pt x="697" y="1543" on="0"/>
        <pt x="726" y="1575" on="1"/>
        <pt x="748" y="1601" on="0"/>
        <pt x="748" y="1633" on="1"/>
        <pt x="748" y="1674" on="0"/>
        <pt x="718" y="1702" on="1"/>
        <pt x="693" y="1727" on="0"/>
      </contour>
    </TTGlyph>
    <TTGlyph name="V" xMin="3" yMin="0" xMax="1147" yMax="1365">
      <contour>
        <pt x="292" y="1365" on="1"/>
        <pt x="568" y="450" on="1"/>
        <pt x="856" y="1365" on="1"/>
        <pt x="1147" y="1365" on="1"/>
        <pt x="715" y="0" on="1"/>
        <pt x="418" y="0" on="1"/>
        <pt x="3" y="1365" on="1"/>
      </contour>
    </TTGlyph>
    <TTGlyph name="W" xMin="3" yMin="0" xMax="1751" yMax="1365">
      <contour>
        <pt x="1019" y="1365" on="1"/>
        <pt x="1233" y="488" on="1"/>
        <pt x="1459" y="1365" on="1"/>
        <pt x="1751" y="1365" on="1"/>
        <pt x="1370" y="0" on="1"/>
        <pt x="1089" y="0" on="1"/>
        <pt x="872" y="894" on="1"/>
        <pt x="658" y="0" on="1"/>
        <pt x="376" y="0" on="1"/>
        <pt x="3" y="1365" on="1"/>
        <pt x="300" y="1365" on="1"/>
        <pt x="520" y="503" on="1"/>
        <pt x="741" y="1365" on="1"/>
      </contour>
    </TTGlyph>
    <TTGlyph name="Wacute" xMin="58" yMin="384" xMax="512" yMax="614">
      <contour>
        <pt x="58" y="614" on="1"/>
        <pt x="512" y="614" on="1"/>
        <pt x="512" y="384" on="1"/>
        <pt x="58" y="384" on="1"/>
      </contour>
    </TTGlyph>
    <TTGlyph name="Wcircumflex" xMin="3" yMin="0" xMax="1751" yMax="1761">
      <contour>
        <pt x="1019" y="1365" on="1"/>
        <pt x="1233" y="488" on="1"/>
        <pt x="1459" y="1365" on="1"/>
        <pt x="1751" y="1365" on="1"/>
        <pt x="1370" y="0" on="1"/>
        <pt x="1089" y="0" on="1"/>
        <pt x="872" y="894" on="1"/>
        <pt x="658" y="0" on="1"/>
        <pt x="376" y="0" on="1"/>
        <pt x="3" y="1365" on="1"/>
        <pt x="300" y="1365" on="1"/>
        <pt x="520" y="503" on="1"/>
        <pt x="741" y="1365" on="1"/>
      </contour>
      <contour>
        <pt x="1038" y="1488" on="1"/>
        <pt x="879" y="1627" on="1"/>
        <pt x="717" y="1488" on="1"/>
        <pt x="535" y="1488" on="1"/>
        <pt x="766" y="1761" on="1"/>
        <pt x="1003" y="1761" on="1"/>
        <pt x="1220" y="1488" on="1"/>
      </contour>
    </TTGlyph>
    <TTGlyph name="Wdieresis" xMin="3" yMin="0" xMax="1751" yMax="1781">
      <contour>
        <pt x="1019" y="1365" on="1"/>
        <pt x="1233" y="488" on="1"/>
        <pt x="1459" y="1365" on="1"/>
        <pt x="1751" y="1365" on="1"/>
        <pt x="1370" y="0" on="1"/>
        <pt x="1089" y="0" on="1"/>
        <pt x="872" y="894" on="1"/>
        <pt x="658" y="0" on="1"/>
        <pt x="376" y="0" on="1"/>
        <pt x="3" y="1365" on="1"/>
        <pt x="300" y="1365" on="1"/>
        <pt x="520" y="503" on="1"/>
        <pt x="741" y="1365" on="1"/>
      </contour>
      <contour>
        <pt x="658" y="1781" on="1"/>
        <pt x="720" y="1781" on="0"/>
        <pt x="760" y="1736" on="1"/>
        <pt x="798" y="1695" on="0"/>
        <pt x="798" y="1638" on="1"/>
        <pt x="798" y="1576" on="0"/>
        <pt x="749" y="1533" on="1"/>
        <pt x="712" y="1499" on="0"/>
        <pt x="657" y="1499" on="1"/>
        <pt x="594" y="1499" on="0"/>
        <pt x="554" y="1544" on="1"/>
        <pt x="516" y="1585" on="0"/>
        <pt x="516" y="1640" on="1"/>
        <pt x="516" y="1704" on="0"/>
        <pt x="565" y="1747" on="1"/>
        <pt x="602" y="1781" on="0"/>
      </contour>
      <contour>
        <pt x="1094" y="1781" on="1"/>
        <pt x="1156" y="1781" on="0"/>
        <pt x="1196" y="1736" on="1"/>
        <pt x="1234" y="1695" on="0"/>
        <pt x="1234" y="1638" on="1"/>
        <pt x="1234" y="1576" on="0"/>
        <pt x="1185" y="1533" on="1"/>
        <pt x="1148" y="1499" on="0"/>
        <pt x="1093" y="1499" on="1"/>
        <pt x="1030" y="1499" on="0"/>
        <pt x="990" y="1544" on="1"/>
        <pt x="952" y="1585" on="0"/>
        <pt x="952" y="1640" on="1"/>
        <pt x="952" y="1704" on="0"/>
        <pt x="1001" y="1747" on="1"/>
        <pt x="1038" y="1781" on="0"/>
      </contour>
    </TTGlyph>
    <TTGlyph name="X" xMin="8" yMin="0" xMax="1181" yMax="1365">
      <contour>
        <pt x="862" y="0" on="1"/>
        <pt x="597" y="474" on="1"/>
        <pt x="333" y="0" on="1"/>
        <pt x="8" y="0" on="1"/>
        <pt x="439" y="721" on="1"/>
        <pt x="56" y="1365" on="1"/>
        <pt x="379" y="1365" on="1"/>
        <pt x="597" y="975" on="1"/>
        <pt x="824" y="1365" on="1"/>
        <pt x="1142" y="1365" on="1"/>
        <pt x="757" y="721" on="1"/>
        <pt x="1181" y="0" on="1"/>
      </contour>
    </TTGlyph>
    <TTGlyph name="Y" xMin="-22" yMin="0" xMax="1164" yMax="1365">
      <contour>
        <pt x="1164" y="1365" on="1"/>
        <pt x="715" y="602" on="1"/>
        <pt x="715" y="0" on="1"/>
        <pt x="435" y="0" on="1"/>
        <pt x="435" y="602" on="1"/>
        <pt x="-22" y="1365" on="1"/>
        <pt x="311" y="1365" on="1"/>
        <pt x="576" y="892" on="1"/>
        <pt x="836" y="1365" on="1"/>
      </contour>
    </TTGlyph>
    <TTGlyph name="Yacute" xMin="-22" yMin="0" xMax="1164" yMax="1760">
      <contour>
        <pt x="1164" y="1365" on="1"/>
        <pt x="715" y="602" on="1"/>
        <pt x="715" y="0" on="1"/>
        <pt x="435" y="0" on="1"/>
        <pt x="435" y="602" on="1"/>
        <pt x="-22" y="1365" on="1"/>
        <pt x="311" y="1365" on="1"/>
        <pt x="576" y="892" on="1"/>
        <pt x="836" y="1365" on="1"/>
      </contour>
      <contour>
        <pt x="436" y="1488" on="1"/>
        <pt x="628" y="1760" on="1"/>
        <pt x="897" y="1760" on="1"/>
        <pt x="614" y="1488" on="1"/>
      </contour>
    </TTGlyph>
    <TTGlyph name="Ycircumflex" xMin="-22" yMin="0" xMax="1164" yMax="1761">
      <contour>
        <pt x="1164" y="1365" on="1"/>
        <pt x="715" y="602" on="1"/>
        <pt x="715" y="0" on="1"/>
        <pt x="435" y="0" on="1"/>
        <pt x="435" y="602" on="1"/>
        <pt x="-22" y="1365" on="1"/>
        <pt x="311" y="1365" on="1"/>
        <pt x="576" y="892" on="1"/>
        <pt x="836" y="1365" on="1"/>
      </contour>
      <contour>
        <pt x="731" y="1488" on="1"/>
        <pt x="573" y="1627" on="1"/>
        <pt x="411" y="1488" on="1"/>
        <pt x="228" y="1488" on="1"/>
        <pt x="460" y="1761" on="1"/>
        <pt x="696" y="1761" on="1"/>
        <pt x="913" y="1488" on="1"/>
      </contour>
    </TTGlyph>
    <TTGlyph name="Ydieresis" xMin="-22" yMin="0" xMax="1164" yMax="1781">
      <contour>
        <pt x="1164" y="1365" on="1"/>
        <pt x="715" y="602" on="1"/>
        <pt x="715" y="0" on="1"/>
        <pt x="435" y="0" on="1"/>
        <pt x="435" y="602" on="1"/>
        <pt x="-22" y="1365" on="1"/>
        <pt x="311" y="1365" on="1"/>
        <pt x="576" y="892" on="1"/>
        <pt x="836" y="1365" on="1"/>
      </contour>
      <contour>
        <pt x="352" y="1781" on="1"/>
        <pt x="414" y="1781" on="0"/>
        <pt x="454" y="1736" on="1"/>
        <pt x="492" y="1695" on="0"/>
        <pt x="492" y="1638" on="1"/>
        <pt x="492" y="1575" on="0"/>
        <pt x="443" y="1533" on="1"/>
        <pt x="405" y="1499" on="0"/>
        <pt x="351" y="1499" on="1"/>
        <pt x="288" y="1499" on="0"/>
        <pt x="247" y="1544" on="1"/>
        <pt x="210" y="1584" on="0"/>
        <pt x="210" y="1640" on="1"/>
        <pt x="210" y="1704" on="0"/>
        <pt x="259" y="1747" on="1"/>
        <pt x="296" y="1781" on="0"/>
      </contour>
      <contour>
        <pt x="788" y="1781" on="1"/>
        <pt x="850" y="1781" on="0"/>
        <pt x="890" y="1736" on="1"/>
        <pt x="928" y="1695" on="0"/>
        <pt x="928" y="1638" on="1"/>
        <pt x="928" y="1576" on="0"/>
        <pt x="879" y="1533" on="1"/>
        <pt x="841" y="1499" on="0"/>
        <pt x="787" y="1499" on="1"/>
        <pt x="724" y="1499" on="0"/>
        <pt x="683" y="1544" on="1"/>
        <pt x="646" y="1584" on="0"/>
        <pt x="646" y="1640" on="1"/>
        <pt x="646" y="1704" on="0"/>
        <pt x="695" y="1747" on="1"/>
        <pt x="732" y="1781" on="0"/>
      </contour>
    </TTGlyph>
    <TTGlyph name="Z" xMin="27" yMin="0" xMax="1103" yMax="1365">
      <contour>
        <pt x="1103" y="1365" on="1"/>
        <pt x="467" y="229" on="1"/>
        <pt x="1042" y="229" on="1"/>
        <pt x="1042" y="0" on="1"/>
        <pt x="27" y="0" on="1"/>
        <pt x="664" y="1136" on="1"/>
        <pt x="99" y="1136" on="1"/>
        <pt x="99" y="1365" on="1"/>
      </contour>
    </TTGlyph>
    <TTGlyph name="Zacute" xMin="27" yMin="0" xMax="1103" yMax="1760">
      <contour>
        <pt x="1103" y="1365" on="1"/>
        <pt x="467" y="229" on="1"/>
        <pt x="1042" y="229" on="1"/>
        <pt x="1042" y="0" on="1"/>
        <pt x="27" y="0" on="1"/>
        <pt x="664" y="1136" on="1"/>
        <pt x="99" y="1136" on="1"/>
        <pt x="99" y="1365" on="1"/>
      </contour>
      <contour>
        <pt x="428" y="1488" on="1"/>
        <pt x="621" y="1760" on="1"/>
        <pt x="890" y="1760" on="1"/>
        <pt x="606" y="1488" on="1"/>
      </contour>
    </TTGlyph>
    <TTGlyph name="Zcaron" xMin="27" yMin="0" xMax="1103" yMax="1761">
      <contour>
        <pt x="1103" y="1365" on="1"/>
        <pt x="467" y="229" on="1"/>
        <pt x="1042" y="229" on="1"/>
        <pt x="1042" y="0" on="1"/>
        <pt x="27" y="0" on="1"/>
        <pt x="664" y="1136" on="1"/>
        <pt x="99" y="1136" on="1"/>
        <pt x="99" y="1365" on="1"/>
      </contour>
      <contour>
        <pt x="403" y="1761" on="1"/>
        <pt x="561" y="1622" on="1"/>
        <pt x="723" y="1761" on="1"/>
        <pt x="906" y="1761" on="1"/>
        <pt x="674" y="1488" on="1"/>
        <pt x="438" y="1488" on="1"/>
        <pt x="221" y="1761" on="1"/>
      </contour>
    </TTGlyph>
    <TTGlyph name="Zdotaccent" xMin="27" yMin="0" xMax="1103" yMax="1781">
      <contour>
        <pt x="1103" y="1365" on="1"/>
        <pt x="467" y="229" on="1"/>
        <pt x="1042" y="229" on="1"/>
        <pt x="1042" y="0" on="1"/>
        <pt x="27" y="0" on="1"/>
        <pt x="664" y="1136" on="1"/>
        <pt x="99" y="1136" on="1"/>
        <pt x="99" y="1365" on="1"/>
      </contour>
      <contour>
        <pt x="562" y="1781" on="1"/>
        <pt x="624" y="1781" on="0"/>
        <pt x="664" y="1736" on="1"/>
        <pt x="702" y="1695" on="0"/>
        <pt x="702" y="1638" on="1"/>
        <pt x="702" y="1576" on="0"/>
        <pt x="653" y="1533" on="1"/>
        <pt x="616" y="1499" on="0"/>
        <pt x="561" y="1499" on="1"/>
        <pt x="498" y="1499" on="0"/>
        <pt x="457" y="1544" on="1"/>
        <pt x="420" y="1584" on="0"/>
        <pt x="420" y="1640" on="1"/>
        <pt x="420" y="1704" on="0"/>
        <pt x="469" y="1747" on="1"/>
        <pt x="506" y="1781" on="0"/>
      </contour>
    </TTGlyph>
    <TTGlyph name="a" xMin="67" yMin="-33" xMax="1115" yMax="979">
      <contour>
        <pt x="854" y="827" on="1"/>
        <pt x="854" y="947" on="1"/>
        <pt x="1115" y="947" on="1"/>
        <pt x="1115" y="0" on="1"/>
        <pt x="854" y="0" on="1"/>
        <pt x="854" y="130" on="1"/>
        <pt x="725" y="-33" on="0"/>
        <pt x="525" y="-33" on="1"/>
        <pt x="308" y="-33" on="0"/>
        <pt x="176" y="128" on="1"/>
        <pt x="67" y="261" on="0"/>
        <pt x="67" y="462" on="1"/>
        <pt x="67" y="612" on="0"/>
        <pt x="136" y="740" on="1"/>
        <pt x="194" y="848" on="0"/>
        <pt x="301" y="913" on="1"/>
        <pt x="409" y="979" on="0"/>
        <pt x="544" y="979" on="1"/>
        <pt x="655" y="979" on="0"/>
        <pt x="744" y="926" on="1"/>
        <pt x="798" y="894" on="0"/>
      </contour>
      <contour>
        <pt x="598" y="759" on="1"/>
        <pt x="475" y="759" on="0"/>
        <pt x="406" y="664" on="1"/>
        <pt x="345" y="579" on="0"/>
        <pt x="345" y="466" on="1"/>
        <pt x="345" y="331" on="0"/>
        <pt x="428" y="248" on="1"/>
        <pt x="499" y="177" on="0"/>
        <pt x="596" y="177" on="1"/>
        <pt x="714" y="177" on="0"/>
        <pt x="791" y="275" on="1"/>
        <pt x="858" y="360" on="0"/>
        <pt x="858" y="474" on="1"/>
        <pt x="858" y="587" on="0"/>
        <pt x="798" y="665" on="1"/>
        <pt x="725" y="759" on="0"/>
      </contour>
    </TTGlyph>
    <TTGlyph name="aacute" xMin="67" yMin="-33" xMax="1115" yMax="1376">
      <contour>
        <pt x="854" y="827" on="1"/>
        <pt x="854" y="947" on="1"/>
        <pt x="1115" y="947" on="1"/>
        <pt x="1115" y="0" on="1"/>
        <pt x="854" y="0" on="1"/>
        <pt x="854" y="130" on="1"/>
        <pt x="725" y="-33" on="0"/>
        <pt x="525" y="-33" on="1"/>
        <pt x="308" y="-33" on="0"/>
        <pt x="176" y="128" on="1"/>
        <pt x="67" y="261" on="0"/>
        <pt x="67" y="462" on="1"/>
        <pt x="67" y="612" on="0"/>
        <pt x="136" y="740" on="1"/>
        <pt x="194" y="848" on="0"/>
        <pt x="301" y="913" on="1"/>
        <pt x="409" y="979" on="0"/>
        <pt x="544" y="979" on="1"/>
        <pt x="655" y="979" on="0"/>
        <pt x="744" y="926" on="1"/>
        <pt x="798" y="894" on="0"/>
      </contour>
      <contour>
        <pt x="598" y="759" on="1"/>
        <pt x="475" y="759" on="0"/>
        <pt x="406" y="664" on="1"/>
        <pt x="345" y="579" on="0"/>
        <pt x="345" y="466" on="1"/>
        <pt x="345" y="331" on="0"/>
        <pt x="428" y="248" on="1"/>
        <pt x="499" y="177" on="0"/>
        <pt x="596" y="177" on="1"/>
        <pt x="714" y="177" on="0"/>
        <pt x="791" y="275" on="1"/>
        <pt x="858" y="360" on="0"/>
        <pt x="858" y="474" on="1"/>
        <pt x="858" y="587" on="0"/>
        <pt x="798" y="665" on="1"/>
        <pt x="725" y="759" on="0"/>
      </contour>
      <contour>
        <pt x="502" y="1091" on="1"/>
        <pt x="672" y="1376" on="1"/>
        <pt x="934" y="1376" on="1"/>
        <pt x="662" y="1091" on="1"/>
      </contour>
    </TTGlyph>
    <TTGlyph name="abreve" xMin="67" yMin="-33" xMax="1115" yMax="1361">
      <contour>
        <pt x="854" y="827" on="1"/>
        <pt x="854" y="947" on="1"/>
        <pt x="1115" y="947" on="1"/>
        <pt x="1115" y="0" on="1"/>
        <pt x="854" y="0" on="1"/>
        <pt x="854" y="130" on="1"/>
        <pt x="725" y="-33" on="0"/>
        <pt x="525" y="-33" on="1"/>
        <pt x="308" y="-33" on="0"/>
        <pt x="176" y="128" on="1"/>
        <pt x="67" y="261" on="0"/>
        <pt x="67" y="462" on="1"/>
        <pt x="67" y="612" on="0"/>
        <pt x="136" y="740" on="1"/>
        <pt x="194" y="848" on="0"/>
        <pt x="301" y="913" on="1"/>
        <pt x="409" y="979" on="0"/>
        <pt x="544" y="979" on="1"/>
        <pt x="655" y="979" on="0"/>
        <pt x="744" y="926" on="1"/>
        <pt x="798" y="894" on="0"/>
      </contour>
      <contour>
        <pt x="598" y="759" on="1"/>
        <pt x="475" y="759" on="0"/>
        <pt x="406" y="664" on="1"/>
        <pt x="345" y="579" on="0"/>
        <pt x="345" y="466" on="1"/>
        <pt x="345" y="331" on="0"/>
        <pt x="428" y="248" on="1"/>
        <pt x="499" y="177" on="0"/>
        <pt x="596" y="177" on="1"/>
        <pt x="714" y="177" on="0"/>
        <pt x="791" y="275" on="1"/>
        <pt x="858" y="360" on="0"/>
        <pt x="858" y="474" on="1"/>
        <pt x="858" y="587" on="0"/>
        <pt x="798" y="665" on="1"/>
        <pt x="725" y="759" on="0"/>
      </contour>
      <contour>
        <pt x="660" y="1361" on="1"/>
        <pt x="840" y="1361" on="1"/>
        <pt x="836" y="1285" on="0"/>
        <pt x="810" y="1234" on="1"/>
        <pt x="783" y="1177" on="0"/>
        <pt x="730" y="1145" on="1"/>
        <pt x="681" y="1116" on="0"/>
        <pt x="622" y="1116" on="1"/>
        <pt x="536" y="1116" on="0"/>
        <pt x="477" y="1175" on="1"/>
        <pt x="412" y="1238" on="0"/>
        <pt x="405" y="1361" on="1"/>
        <pt x="585" y="1361" on="1"/>
        <pt x="595" y="1321" on="0"/>
        <pt x="594" y="1288" on="1"/>
        <pt x="594" y="1230" on="0"/>
        <pt x="621" y="1230" on="1"/>
        <pt x="651" y="1230" on="0"/>
        <pt x="650" y="1288" on="1"/>
        <pt x="650" y="1322" on="0"/>
      </contour>
    </TTGlyph>
    <TTGlyph name="acircumflex" xMin="67" yMin="-33" xMax="1115" yMax="1376">
      <contour>
        <pt x="854" y="827" on="1"/>
        <pt x="854" y="947" on="1"/>
        <pt x="1115" y="947" on="1"/>
        <pt x="1115" y="0" on="1"/>
        <pt x="854" y="0" on="1"/>
        <pt x="854" y="130" on="1"/>
        <pt x="725" y="-33" on="0"/>
        <pt x="525" y="-33" on="1"/>
        <pt x="308" y="-33" on="0"/>
        <pt x="176" y="128" on="1"/>
        <pt x="67" y="261" on="0"/>
        <pt x="67" y="462" on="1"/>
        <pt x="67" y="612" on="0"/>
        <pt x="136" y="740" on="1"/>
        <pt x="194" y="848" on="0"/>
        <pt x="301" y="913" on="1"/>
        <pt x="409" y="979" on="0"/>
        <pt x="544" y="979" on="1"/>
        <pt x="655" y="979" on="0"/>
        <pt x="744" y="926" on="1"/>
        <pt x="798" y="894" on="0"/>
      </contour>
      <contour>
        <pt x="598" y="759" on="1"/>
        <pt x="475" y="759" on="0"/>
        <pt x="406" y="664" on="1"/>
        <pt x="345" y="579" on="0"/>
        <pt x="345" y="466" on="1"/>
        <pt x="345" y="331" on="0"/>
        <pt x="428" y="248" on="1"/>
        <pt x="499" y="177" on="0"/>
        <pt x="596" y="177" on="1"/>
        <pt x="714" y="177" on="0"/>
        <pt x="791" y="275" on="1"/>
        <pt x="858" y="360" on="0"/>
        <pt x="858" y="474" on="1"/>
        <pt x="858" y="587" on="0"/>
        <pt x="798" y="665" on="1"/>
        <pt x="725" y="759" on="0"/>
      </contour>
      <contour>
        <pt x="763" y="1091" on="1"/>
        <pt x="624" y="1242" on="1"/>
        <pt x="481" y="1091" on="1"/>
        <pt x="299" y="1091" on="1"/>
        <pt x="508" y="1376" on="1"/>
        <pt x="749" y="1376" on="1"/>
        <pt x="946" y="1091" on="1"/>
      </contour>
    </TTGlyph>
    <TTGlyph name="acute" xMin="392" yMin="1091" xMax="824" yMax="1376">
      <contour>
        <pt x="392" y="1091" on="1"/>
        <pt x="562" y="1376" on="1"/>
        <pt x="824" y="1376" on="1"/>
        <pt x="552" y="1091" on="1"/>
      </contour>
    </TTGlyph>
    <TTGlyph name="adieresis" xMin="67" yMin="-33" xMax="1115" yMax="1378">
      <contour>
        <pt x="854" y="827" on="1"/>
        <pt x="854" y="947" on="1"/>
        <pt x="1115" y="947" on="1"/>
        <pt x="1115" y="0" on="1"/>
        <pt x="854" y="0" on="1"/>
        <pt x="854" y="130" on="1"/>
        <pt x="725" y="-33" on="0"/>
        <pt x="525" y="-33" on="1"/>
        <pt x="308" y="-33" on="0"/>
        <pt x="176" y="128" on="1"/>
        <pt x="67" y="261" on="0"/>
        <pt x="67" y="462" on="1"/>
        <pt x="67" y="612" on="0"/>
        <pt x="136" y="740" on="1"/>
        <pt x="194" y="848" on="0"/>
        <pt x="301" y="913" on="1"/>
        <pt x="409" y="979" on="0"/>
        <pt x="544" y="979" on="1"/>
        <pt x="655" y="979" on="0"/>
        <pt x="744" y="926" on="1"/>
        <pt x="798" y="894" on="0"/>
      </contour>
      <contour>
        <pt x="598" y="759" on="1"/>
        <pt x="475" y="759" on="0"/>
        <pt x="406" y="664" on="1"/>
        <pt x="345" y="579" on="0"/>
        <pt x="345" y="466" on="1"/>
        <pt x="345" y="331" on="0"/>
        <pt x="428" y="248" on="1"/>
        <pt x="499" y="177" on="0"/>
        <pt x="596" y="177" on="1"/>
        <pt x="714" y="177" on="0"/>
        <pt x="791" y="275" on="1"/>
        <pt x="858" y="360" on="0"/>
        <pt x="858" y="588" on="0"/>
        <pt x="798" y="665" on="1"/>
        <pt x="725" y="759" on="0"/>
      </contour>
      <contour>
        <pt x="438" y="1378" on="1"/>
        <pt x="498" y="1378" on="0"/>
        <pt x="539" y="1333" on="1"/>
        <pt x="574" y="1295" on="0"/>
        <pt x="574" y="1238" on="1"/>
        <pt x="574" y="1177" on="0"/>
        <pt x="528" y="1137" on="1"/>
        <pt x="490" y="1103" on="0"/>
        <pt x="437" y="1103" on="1"/>
        <pt x="374" y="1103" on="0"/>
        <pt x="334" y="1148" on="1"/>
        <pt x="299" y="1186" on="0"/>
        <pt x="299" y="1240" on="1"/>
        <pt x="299" y="1304" on="0"/>
        <pt x="345" y="1344" on="1"/>
        <pt x="382" y="1378" on="0"/>
      </contour>
      <contour>
        <pt x="874" y="1378" on="1"/>
        <pt x="935" y="1378" on="0"/>
        <pt x="975" y="1333" on="1"/>
        <pt x="1010" y="1295" on="0"/>
        <pt x="1010" y="1238" on="1"/>
        <pt x="1010" y="1177" on="0"/>
        <pt x="964" y="1137" on="1"/>
        <pt x="926" y="1103" on="0"/>
        <pt x="872" y="1103" on="1"/>
        <pt x="810" y="1103" on="0"/>
        <pt x="770" y="1148" on="1"/>
        <pt x="735" y="1186" on="0"/>
        <pt x="735" y="1240" on="1"/>
        <pt x="735" y="1304" on="0"/>
        <pt x="781" y="1344" on="1"/>
        <pt x="818" y="1378" on="0"/>
      </contour>
    </TTGlyph>
    <TTGlyph name="adotaccent" xMin="67" yMin="-33" xMax="1115" yMax="1378">
      <contour>
        <pt x="854" y="827" on="1"/>
        <pt x="854" y="947" on="1"/>
        <pt x="1115" y="947" on="1"/>
        <pt x="1115" y="0" on="1"/>
        <pt x="854" y="0" on="1"/>
        <pt x="854" y="130" on="1"/>
        <pt x="725" y="-33" on="0"/>
        <pt x="525" y="-33" on="1"/>
        <pt x="308" y="-33" on="0"/>
        <pt x="176" y="128" on="1"/>
        <pt x="67" y="261" on="0"/>
        <pt x="67" y="462" on="1"/>
        <pt x="67" y="612" on="0"/>
        <pt x="136" y="740" on="1"/>
        <pt x="194" y="848" on="0"/>
        <pt x="301" y="913" on="1"/>
        <pt x="409" y="979" on="0"/>
        <pt x="544" y="979" on="1"/>
        <pt x="655" y="979" on="0"/>
        <pt x="744" y="926" on="1"/>
        <pt x="798" y="894" on="0"/>
      </contour>
      <contour>
        <pt x="598" y="759" on="1"/>
        <pt x="475" y="759" on="0"/>
        <pt x="406" y="664" on="1"/>
        <pt x="345" y="579" on="0"/>
        <pt x="345" y="466" on="1"/>
        <pt x="345" y="331" on="0"/>
        <pt x="428" y="248" on="1"/>
        <pt x="499" y="177" on="0"/>
        <pt x="596" y="177" on="1"/>
        <pt x="714" y="177" on="0"/>
        <pt x="791" y="275" on="1"/>
        <pt x="858" y="360" on="0"/>
        <pt x="858" y="474" on="1"/>
        <pt x="858" y="587" on="0"/>
        <pt x="798" y="665" on="1"/>
        <pt x="725" y="759" on="0"/>
      </contour>
      <contour>
        <pt x="623" y="1378" on="1"/>
        <pt x="684" y="1378" on="0"/>
        <pt x="724" y="1333" on="1"/>
        <pt x="759" y="1295" on="0"/>
        <pt x="759" y="1238" on="1"/>
        <pt x="759" y="1177" on="0"/>
        <pt x="713" y="1137" on="1"/>
        <pt x="675" y="1103" on="0"/>
        <pt x="622" y="1103" on="1"/>
        <pt x="560" y="1103" on="0"/>
        <pt x="519" y="1148" on="1"/>
        <pt x="484" y="1186" on="0"/>
        <pt x="484" y="1240" on="1"/>
        <pt x="484" y="1304" on="0"/>
        <pt x="530" y="1344" on="1"/>
        <pt x="567" y="1378" on="0"/>
      </contour>
    </TTGlyph>
    <TTGlyph name="ae" xMin="67" yMin="-33" xMax="1878" yMax="980">
      <contour>
        <pt x="1607" y="324" on="1"/>
        <pt x="1843" y="251" on="1"/>
        <pt x="1784" y="140" on="0"/>
        <pt x="1711" y="79" on="1"/>
        <pt x="1578" y="-33" on="0"/>
        <pt x="1414" y="-33" on="1"/>
        <pt x="1312" y="-33" on="0"/>
        <pt x="1236" y="7" on="1"/>
        <pt x="1183" y="34" on="0"/>
        <pt x="1126" y="111" on="1"/>
        <pt x="1126" y="0" on="1"/>
        <pt x="876" y="0" on="1"/>
        <pt x="876" y="116" on="1"/>
        <pt x="820" y="48" on="0"/>
        <pt x="758" y="16" on="1"/>
        <pt x="664" y="-33" on="0"/>
        <pt x="547" y="-33" on="1"/>
        <pt x="310" y="-33" on="0"/>
        <pt x="177" y="127" on="1"/>
        <pt x="67" y="261" on="0"/>
        <pt x="67" y="464" on="1"/>
        <pt x="67" y="608" on="0"/>
        <pt x="127" y="729" on="1"/>
        <pt x="180" y="836" on="0"/>
        <pt x="282" y="904" on="1"/>
        <pt x="395" y="980" on="0"/>
        <pt x="536" y="980" on="1"/>
        <pt x="742" y="980" on="0"/>
        <pt x="876" y="837" on="1"/>
        <pt x="876" y="947" on="1"/>
        <pt x="1126" y="947" on="1"/>
        <pt x="1126" y="837" on="1"/>
        <pt x="1182" y="909" on="0"/>
        <pt x="1233" y="937" on="1"/>
        <pt x="1310" y="979" on="0"/>
        <pt x="1411" y="979" on="1"/>
        <pt x="1626" y="979" on="0"/>
        <pt x="1761" y="813" on="1"/>
        <pt x="1878" y="668" on="0"/>
        <pt x="1878" y="471" on="1"/>
        <pt x="1878" y="459" on="0"/>
        <pt x="1876" y="409" on="1"/>
        <pt x="1126" y="409" on="1"/>
        <pt x="1141" y="334" on="0"/>
        <pt x="1183" y="287" on="1"/>
        <pt x="1261" y="199" on="0"/>
        <pt x="1385" y="199" on="1"/>
        <pt x="1472" y="199" on="0"/>
        <pt x="1536" y="247" on="1"/>
        <pt x="1569" y="271" on="0"/>
      </contour>
      <contour>
        <pt x="1126" y="558" on="1"/>
        <pt x="1610" y="558" on="1"/>
        <pt x="1594" y="634" on="0"/>
        <pt x="1559" y="678" on="1"/>
        <pt x="1492" y="760" on="0"/>
        <pt x="1256" y="760" on="0"/>
        <pt x="1186" y="681" on="1"/>
        <pt x="1152" y="640" on="0"/>
      </contour>
      <contour>
        <pt x="609" y="760" on="1"/>
        <pt x="472" y="760" on="0"/>
        <pt x="397" y="649" on="1"/>
        <pt x="344" y="569" on="0"/>
        <pt x="344" y="470" on="1"/>
        <pt x="344" y="332" on="0"/>
        <pt x="437" y="247" on="1"/>
        <pt x="513" y="177" on="0"/>
        <pt x="613" y="177" on="1"/>
        <pt x="737" y="177" on="0"/>
        <pt x="815" y="279" on="1"/>
        <pt x="871" y="353" on="0"/>
        <pt x="871" y="461" on="1"/>
        <pt x="871" y="600" on="0"/>
        <pt x="793" y="682" on="1"/>
        <pt x="720" y="760" on="0"/>
      </contour>
    </TTGlyph>
    <TTGlyph name="afii00208" xMin="0" yMin="400" xMax="1369" yMax="599">
      <contour>
        <pt x="0" y="599" on="1"/>
        <pt x="1369" y="599" on="1"/>
        <pt x="1369" y="400" on="1"/>
        <pt x="0" y="400" on="1"/>
      </contour>
    </TTGlyph>
    <TTGlyph name="afii57929" xMin="77" yMin="906" xMax="414" yMax="1392">
      <contour>
        <pt x="192" y="1392" on="1"/>
        <pt x="414" y="1332" on="1"/>
        <pt x="252" y="906" on="1"/>
        <pt x="77" y="952" on="1"/>
      </contour>
    </TTGlyph>
    <TTGlyph name="afii61248" xMin="296" yMin="612" xMax="549" yMax="865">
      <contour>
        <pt x="424" y="865" on="1"/>
        <pt x="475" y="865" on="0"/>
        <pt x="512" y="828" on="1"/>
        <pt x="549" y="792" on="0"/>
        <pt x="549" y="686" on="0"/>
        <pt x="475" y="612" on="0"/>
        <pt x="423" y="612" on="1"/>
        <pt x="370" y="612" on="0"/>
        <pt x="296" y="686" on="0"/>
        <pt x="296" y="738" on="1"/>
        <pt x="296" y="792" on="0"/>
        <pt x="333" y="828" on="1"/>
        <pt x="370" y="865" on="0"/>
      </contour>
    </TTGlyph>
    <TTGlyph name="afii61289" xMin="148" yMin="-44" xMax="888" yMax="1372">
      <contour>
        <pt x="520" y="531" on="1"/>
        <pt x="471" y="255" on="0"/>
        <pt x="471" y="156" on="1"/>
        <pt x="471" y="105" on="0"/>
        <pt x="501" y="105" on="1"/>
        <pt x="520" y="105" on="0"/>
        <pt x="540" y="128" on="1"/>
        <pt x="552" y="143" on="0"/>
        <pt x="581" y="199" on="1"/>
        <pt x="602" y="242" on="0"/>
        <pt x="629" y="242" on="1"/>
        <pt x="668" y="242" on="0"/>
        <pt x="668" y="197" on="1"/>
        <pt x="668" y="138" on="0"/>
        <pt x="615" y="61" on="1"/>
        <pt x="542" y="-44" on="0"/>
        <pt x="444" y="-44" on="1"/>
        <pt x="338" y="-44" on="0"/>
        <pt x="294" y="60" on="1"/>
        <pt x="271" y="115" on="0"/>
        <pt x="271" y="227" on="1"/>
        <pt x="271" y="286" on="0"/>
        <pt x="274" y="347" on="1"/>
        <pt x="207" y="268" on="0"/>
        <pt x="183" y="268" on="1"/>
        <pt x="172" y="268" on="0"/>
        <pt x="160" y="285" on="1"/>
        <pt x="148" y="303" on="0"/>
        <pt x="148" y="327" on="1"/>
        <pt x="148" y="349" on="0"/>
        <pt x="165" y="372" on="1"/>
        <pt x="230" y="445" on="1"/>
        <pt x="242" y="458" on="0"/>
        <pt x="290" y="519" on="1"/>
        <pt x="354" y="883" on="0"/>
        <pt x="450" y="1115" on="1"/>
        <pt x="557" y="1372" on="0"/>
        <pt x="722" y="1372" on="1"/>
        <pt x="808" y="1372" on="0"/>
        <pt x="851" y="1308" on="1"/>
        <pt x="888" y="1255" on="0"/>
        <pt x="888" y="1177" on="1"/>
        <pt x="888" y="1079" on="0"/>
        <pt x="832" y="947" on="1"/>
        <pt x="769" y="799" on="0"/>
        <pt x="633" y="651" on="1"/>
        <pt x="598" y="613" on="0"/>
      </contour>
      <contour>
        <pt x="541" y="677" on="1"/>
        <pt x="643" y="791" on="0"/>
        <pt x="706" y="932" on="1"/>
        <pt x="772" y="1078" on="0"/>
        <pt x="772" y="1166" on="1"/>
        <pt x="772" y="1210" on="0"/>
        <pt x="748" y="1228" on="1"/>
        <pt x="741" y="1235" on="0"/>
        <pt x="727" y="1235" on="1"/>
        <pt x="677" y="1235" on="0"/>
        <pt x="645" y="1149" on="1"/>
        <pt x="594" y="1006" on="0"/>
      </contour>
    </TTGlyph>
    <TTGlyph name="agrave" xMin="67" yMin="-33" xMax="1115" yMax="1376">
      <contour>
        <pt x="854" y="827" on="1"/>
        <pt x="854" y="947" on="1"/>
        <pt x="1115" y="947" on="1"/>
        <pt x="1115" y="0" on="1"/>
        <pt x="854" y="0" on="1"/>
        <pt x="854" y="130" on="1"/>
        <pt x="725" y="-33" on="0"/>
        <pt x="525" y="-33" on="1"/>
        <pt x="308" y="-33" on="0"/>
        <pt x="176" y="128" on="1"/>
        <pt x="67" y="261" on="0"/>
        <pt x="67" y="462" on="1"/>
        <pt x="67" y="612" on="0"/>
        <pt x="136" y="740" on="1"/>
        <pt x="194" y="848" on="0"/>
        <pt x="301" y="913" on="1"/>
        <pt x="409" y="979" on="0"/>
        <pt x="544" y="979" on="1"/>
        <pt x="655" y="979" on="0"/>
        <pt x="744" y="926" on="1"/>
        <pt x="798" y="894" on="0"/>
      </contour>
      <contour>
        <pt x="598" y="759" on="1"/>
        <pt x="475" y="759" on="0"/>
        <pt x="406" y="664" on="1"/>
        <pt x="345" y="579" on="0"/>
        <pt x="345" y="466" on="1"/>
        <pt x="345" y="331" on="0"/>
        <pt x="428" y="248" on="1"/>
        <pt x="499" y="177" on="0"/>
        <pt x="596" y="177" on="1"/>
        <pt x="714" y="177" on="0"/>
        <pt x="791" y="275" on="1"/>
        <pt x="858" y="360" on="0"/>
        <pt x="858" y="474" on="1"/>
        <pt x="858" y="587" on="0"/>
        <pt x="798" y="665" on="1"/>
        <pt x="725" y="759" on="0"/>
      </contour>
      <contour>
        <pt x="311" y="1376" on="1"/>
        <pt x="573" y="1376" on="1"/>
        <pt x="743" y="1091" on="1"/>
        <pt x="582" y="1091" on="1"/>
      </contour>
    </TTGlyph>
    <TTGlyph name="ahungarumlaut" xMin="67" yMin="-33" xMax="1115" yMax="1371">
      <contour>
        <pt x="854" y="827" on="1"/>
        <pt x="854" y="947" on="1"/>
        <pt x="1115" y="947" on="1"/>
        <pt x="1115" y="0" on="1"/>
        <pt x="854" y="0" on="1"/>
        <pt x="854" y="130" on="1"/>
        <pt x="725" y="-33" on="0"/>
        <pt x="525" y="-33" on="1"/>
        <pt x="308" y="-33" on="0"/>
        <pt x="176" y="128" on="1"/>
        <pt x="67" y="261" on="0"/>
        <pt x="67" y="462" on="1"/>
        <pt x="67" y="612" on="0"/>
        <pt x="136" y="740" on="1"/>
        <pt x="194" y="848" on="0"/>
        <pt x="301" y="913" on="1"/>
        <pt x="409" y="979" on="0"/>
        <pt x="544" y="979" on="1"/>
        <pt x="655" y="979" on="0"/>
        <pt x="744" y="926" on="1"/>
        <pt x="798" y="894" on="0"/>
      </contour>
      <contour>
        <pt x="598" y="759" on="1"/>
        <pt x="475" y="759" on="0"/>
        <pt x="406" y="664" on="1"/>
        <pt x="345" y="579" on="0"/>
        <pt x="345" y="466" on="1"/>
        <pt x="345" y="331" on="0"/>
        <pt x="428" y="248" on="1"/>
        <pt x="499" y="177" on="0"/>
        <pt x="596" y="177" on="1"/>
        <pt x="714" y="177" on="0"/>
        <pt x="791" y="275" on="1"/>
        <pt x="858" y="360" on="0"/>
        <pt x="858" y="474" on="1"/>
        <pt x="858" y="587" on="0"/>
        <pt x="798" y="665" on="1"/>
        <pt x="725" y="759" on="0"/>
      </contour>
      <contour>
        <pt x="355" y="1091" on="1"/>
        <pt x="498" y="1371" on="1"/>
        <pt x="729" y="1371" on="1"/>
        <pt x="495" y="1091" on="1"/>
      </contour>
      <contour>
        <pt x="710" y="1091" on="1"/>
        <pt x="853" y="1371" on="1"/>
        <pt x="1084" y="1371" on="1"/>
        <pt x="850" y="1091" on="1"/>
      </contour>
    </TTGlyph>
    <TTGlyph name="amacron" xMin="67" yMin="-33" xMax="1115" yMax="1290">
      <contour>
        <pt x="854" y="827" on="1"/>
        <pt x="854" y="947" on="1"/>
        <pt x="1115" y="947" on="1"/>
        <pt x="1115" y="0" on="1"/>
        <pt x="854" y="0" on="1"/>
        <pt x="854" y="130" on="1"/>
        <pt x="725" y="-33" on="0"/>
        <pt x="525" y="-33" on="1"/>
        <pt x="308" y="-33" on="0"/>
        <pt x="176" y="128" on="1"/>
        <pt x="67" y="261" on="0"/>
        <pt x="67" y="462" on="1"/>
        <pt x="67" y="612" on="0"/>
        <pt x="136" y="740" on="1"/>
        <pt x="194" y="848" on="0"/>
        <pt x="301" y="913" on="1"/>
        <pt x="409" y="979" on="0"/>
        <pt x="544" y="979" on="1"/>
        <pt x="655" y="979" on="0"/>
        <pt x="744" y="926" on="1"/>
        <pt x="798" y="894" on="0"/>
      </contour>
      <contour>
        <pt x="598" y="759" on="1"/>
        <pt x="475" y="759" on="0"/>
        <pt x="406" y="664" on="1"/>
        <pt x="345" y="579" on="0"/>
        <pt x="345" y="466" on="1"/>
        <pt x="345" y="331" on="0"/>
        <pt x="428" y="248" on="1"/>
        <pt x="499" y="177" on="0"/>
        <pt x="596" y="177" on="1"/>
        <pt x="714" y="177" on="0"/>
        <pt x="791" y="275" on="1"/>
        <pt x="858" y="360" on="0"/>
        <pt x="858" y="474" on="1"/>
        <pt x="858" y="587" on="0"/>
        <pt x="798" y="665" on="1"/>
        <pt x="725" y="759" on="0"/>
      </contour>
      <contour>
        <pt x="808" y="1176" on="1"/>
        <pt x="436" y="1176" on="1"/>
        <pt x="436" y="1290" on="1"/>
        <pt x="808" y="1290" on="1"/>
      </contour>
    </TTGlyph>
    <TTGlyph name="ampersand" xMin="75" yMin="-36" xMax="1272" yMax="1344">
      <contour>
        <pt x="1044" y="289" on="1"/>
        <pt x="1272" y="0" on="1"/>
        <pt x="972" y="0" on="1"/>
        <pt x="867" y="132" on="1"/>
        <pt x="658" y="-36" on="0"/>
        <pt x="477" y="-36" on="1"/>
        <pt x="307" y="-36" on="0"/>
        <pt x="193" y="72" on="1"/>
        <pt x="75" y="184" on="0"/>
        <pt x="75" y="358" on="1"/>
        <pt x="75" y="490" on="0"/>
        <pt x="143" y="582" on="1"/>
        <pt x="212" y="674" on="0"/>
        <pt x="372" y="776" on="1"/>
        <pt x="321" y="849" on="0"/>
        <pt x="296" y="898" on="1"/>
        <pt x="259" y="973" on="0"/>
        <pt x="259" y="1053" on="1"/>
        <pt x="259" y="1188" on="0"/>
        <pt x="366" y="1271" on="1"/>
        <pt x="463" y="1344" on="0"/>
        <pt x="602" y="1344" on="1"/>
        <pt x="760" y="1344" on="0"/>
        <pt x="851" y="1254" on="1"/>
        <pt x="936" y="1172" on="0"/>
        <pt x="936" y="1056" on="1"/>
        <pt x="936" y="945" on="0"/>
        <pt x="855" y="846" on="1"/>
        <pt x="811" y="792" on="0"/>
        <pt x="710" y="724" on="1"/>
        <pt x="899" y="473" on="1"/>
        <pt x="1009" y="571" on="0"/>
        <pt x="1100" y="675" on="1"/>
        <pt x="1272" y="521" on="1"/>
        <pt x="1154" y="391" on="0"/>
      </contour>
      <contour>
        <pt x="577" y="899" on="1"/>
        <pt x="629" y="931" on="0"/>
        <pt x="652" y="954" on="1"/>
        <pt x="698" y="999" on="0"/>
        <pt x="698" y="1051" on="1"/>
        <pt x="698" y="1096" on="0"/>
        <pt x="668" y="1124" on="1"/>
        <pt x="643" y="1146" on="0"/>
        <pt x="607" y="1146" on="1"/>
        <pt x="557" y="1146" on="0"/>
        <pt x="527" y="1110" on="1"/>
        <pt x="505" y="1085" on="0"/>
        <pt x="505" y="1015" on="0"/>
        <pt x="525" y="973" on="1"/>
        <pt x="535" y="952" on="0"/>
        <pt x="550" y="934" on="1"/>
        <pt x="557" y="925" on="0"/>
        <pt x="566" y="912" on="0"/>
        <pt x="573" y="903" on="0"/>
        <pt x="575" y="901" on="1"/>
      </contour>
      <contour>
        <pt x="716" y="317" on="1"/>
        <pt x="502" y="591" on="1"/>
        <pt x="433" y="547" on="0"/>
        <pt x="393" y="509" on="1"/>
        <pt x="332" y="449" on="0"/>
        <pt x="332" y="376" on="1"/>
        <pt x="332" y="312" on="0"/>
        <pt x="377" y="259" on="1"/>
        <pt x="428" y="200" on="0"/>
        <pt x="506" y="200" on="1"/>
        <pt x="612" y="200" on="0"/>
      </contour>
    </TTGlyph>
    <TTGlyph name="aogonek" xMin="57" yMin="-359" xMax="1139" yMax="1014">
      <contour>
        <pt x="1042" y="0" on="1"/>
        <pt x="936" y="-64" on="0"/>
        <pt x="936" y="-140" on="1"/>
        <pt x="936" y="-181" on="0"/>
        <pt x="970" y="-211" on="1"/>
        <pt x="1001" y="-238" on="0"/>
        <pt x="1047" y="-238" on="1"/>
        <pt x="1085" y="-238" on="0"/>
        <pt x="1139" y="-216" on="1"/>
        <pt x="1139" y="-332" on="1"/>
        <pt x="1058" y="-359" on="0"/>
        <pt x="999" y="-359" on="1"/>
        <pt x="906" y="-359" on="0"/>
        <pt x="850" y="-313" on="1"/>
        <pt x="791" y="-266" on="0"/>
        <pt x="791" y="-189" on="1"/>
        <pt x="791" y="-92" on="0"/>
        <pt x="925" y="0" on="1"/>
        <pt x="775" y="0" on="1"/>
        <pt x="766" y="17" on="1"/>
        <pt x="751" y="43" on="0"/>
        <pt x="750" y="66" on="1"/>
        <pt x="748" y="108" on="0"/>
        <pt x="748" y="146" on="1"/>
        <pt x="704" y="81" on="0"/>
        <pt x="659" y="47" on="1"/>
        <pt x="559" y="-27" on="0"/>
        <pt x="405" y="-27" on="1"/>
        <pt x="247" y="-27" on="0"/>
        <pt x="155" y="44" on="1"/>
        <pt x="57" y="121" on="0"/>
        <pt x="57" y="267" on="1"/>
        <pt x="57" y="480" on="0"/>
        <pt x="268" y="538" on="1"/>
        <pt x="352" y="561" on="0"/>
        <pt x="565" y="585" on="1"/>
        <pt x="681" y="598" on="0"/>
        <pt x="716" y="625" on="1"/>
        <pt x="742" y="645" on="0"/>
        <pt x="742" y="699" on="1"/>
        <pt x="742" y="852" on="0"/>
        <pt x="555" y="852" on="1"/>
        <pt x="439" y="852" on="0"/>
        <pt x="389" y="790" on="1"/>
        <pt x="362" y="756" on="0"/>
        <pt x="351" y="685" on="1"/>
        <pt x="108" y="685" on="1"/>
        <pt x="125" y="1014" on="0"/>
        <pt x="560" y="1014" on="1"/>
        <pt x="786" y="1014" on="0"/>
        <pt x="903" y="921" on="1"/>
        <pt x="978" y="862" on="0"/>
        <pt x="991" y="762" on="1"/>
        <pt x="995" y="733" on="0"/>
        <pt x="995" y="668" on="1"/>
        <pt x="995" y="628" on="1"/>
        <pt x="993" y="466" on="1"/>
        <pt x="992" y="330" on="0"/>
        <pt x="992" y="230" on="1"/>
        <pt x="992" y="112" on="0"/>
        <pt x="1007" y="63" on="1"/>
        <pt x="1013" y="42" on="0"/>
      </contour>
      <contour>
        <pt x="743" y="392" on="1"/>
        <pt x="743" y="496" on="1"/>
        <pt x="706" y="468" on="0"/>
        <pt x="675" y="459" on="1"/>
        <pt x="640" y="449" on="0"/>
        <pt x="506" y="433" on="1"/>
        <pt x="321" y="410" on="0"/>
        <pt x="321" y="276" on="1"/>
        <pt x="321" y="206" on="0"/>
        <pt x="369" y="166" on="1"/>
        <pt x="412" y="129" on="0"/>
        <pt x="492" y="129" on="1"/>
        <pt x="629" y="129" on="0"/>
        <pt x="698" y="228" on="1"/>
        <pt x="743" y="294" on="0"/>
      </contour>
    </TTGlyph>
    <TTGlyph name="approxequal" xMin="18" yMin="277" xMax="1007" yMax="1081">
      <contour>
        <pt x="157" y="712" on="1"/>
        <pt x="18" y="810" on="1"/>
        <pt x="129" y="1081" on="0"/>
        <pt x="319" y="1081" on="1"/>
        <pt x="388" y="1081" on="0"/>
        <pt x="550" y="1010" on="1"/>
        <pt x="640" y="970" on="0"/>
        <pt x="663" y="964" on="1"/>
        <pt x="693" y="956" on="0"/>
        <pt x="714" y="956" on="1"/>
        <pt x="775" y="956" on="0"/>
        <pt x="816" y="1000" on="1"/>
        <pt x="832" y="1017" on="0"/>
        <pt x="868" y="1069" on="1"/>
        <pt x="1007" y="971" on="1"/>
        <pt x="968" y="880" on="0"/>
        <pt x="936" y="834" on="1"/>
        <pt x="840" y="704" on="0"/>
        <pt x="687" y="704" on="1"/>
        <pt x="649" y="704" on="0"/>
        <pt x="602" y="720" on="1"/>
        <pt x="568" y="730" on="0"/>
        <pt x="460" y="779" on="1"/>
        <pt x="355" y="826" on="0"/>
        <pt x="306" y="826" on="1"/>
        <pt x="256" y="826" on="0"/>
        <pt x="219" y="790" on="1"/>
        <pt x="192" y="765" on="0"/>
      </contour>
      <contour>
        <pt x="157" y="285" on="1"/>
        <pt x="18" y="383" on="1"/>
        <pt x="130" y="654" on="0"/>
        <pt x="319" y="654" on="1"/>
        <pt x="388" y="654" on="0"/>
        <pt x="550" y="583" on="1"/>
        <pt x="640" y="543" on="0"/>
        <pt x="663" y="537" on="1"/>
        <pt x="690" y="529" on="0"/>
        <pt x="713" y="529" on="1"/>
        <pt x="774" y="529" on="0"/>
        <pt x="816" y="573" on="1"/>
        <pt x="832" y="590" on="0"/>
        <pt x="868" y="641" on="1"/>
        <pt x="1007" y="544" on="1"/>
        <pt x="968" y="453" on="0"/>
        <pt x="936" y="407" on="1"/>
        <pt x="842" y="277" on="0"/>
        <pt x="687" y="277" on="1"/>
        <pt x="649" y="277" on="0"/>
        <pt x="602" y="293" on="1"/>
        <pt x="568" y="303" on="0"/>
        <pt x="460" y="352" on="1"/>
        <pt x="355" y="399" on="0"/>
        <pt x="306" y="399" on="1"/>
        <pt x="256" y="399" on="0"/>
        <pt x="219" y="363" on="1"/>
        <pt x="192" y="338" on="0"/>
      </contour>
    </TTGlyph>
    <TTGlyph name="aring" xMin="67" yMin="-33" xMax="1115" yMax="1426">
      <contour>
        <pt x="854" y="827" on="1"/>
        <pt x="854" y="947" on="1"/>
        <pt x="1115" y="947" on="1"/>
        <pt x="1115" y="0" on="1"/>
        <pt x="854" y="0" on="1"/>
        <pt x="854" y="130" on="1"/>
        <pt x="725" y="-33" on="0"/>
        <pt x="525" y="-33" on="1"/>
        <pt x="308" y="-33" on="0"/>
        <pt x="176" y="128" on="1"/>
        <pt x="67" y="261" on="0"/>
        <pt x="67" y="462" on="1"/>
        <pt x="67" y="612" on="0"/>
        <pt x="136" y="740" on="1"/>
        <pt x="194" y="848" on="0"/>
        <pt x="301" y="913" on="1"/>
        <pt x="409" y="979" on="0"/>
        <pt x="544" y="979" on="1"/>
        <pt x="655" y="979" on="0"/>
        <pt x="744" y="926" on="1"/>
        <pt x="798" y="894" on="0"/>
      </contour>
      <contour>
        <pt x="598" y="759" on="1"/>
        <pt x="475" y="759" on="0"/>
        <pt x="406" y="664" on="1"/>
        <pt x="345" y="579" on="0"/>
        <pt x="345" y="466" on="1"/>
        <pt x="345" y="331" on="0"/>
        <pt x="428" y="248" on="1"/>
        <pt x="499" y="177" on="0"/>
        <pt x="596" y="177" on="1"/>
        <pt x="714" y="177" on="0"/>
        <pt x="791" y="275" on="1"/>
        <pt x="858" y="360" on="0"/>
        <pt x="858" y="588" on="0"/>
        <pt x="798" y="665" on="1"/>
        <pt x="725" y="759" on="0"/>
      </contour>
      <contour>
        <pt x="610" y="1426" on="1"/>
        <pt x="692" y="1426" on="0"/>
        <pt x="750" y="1366" on="1"/>
        <pt x="799" y="1316" on="0"/>
        <pt x="799" y="1237" on="1"/>
        <pt x="799" y="1154" on="0"/>
        <pt x="735" y="1100" on="1"/>
        <pt x="680" y="1054" on="0"/>
        <pt x="609" y="1054" on="1"/>
        <pt x="525" y="1054" on="0"/>
        <pt x="468" y="1114" on="1"/>
        <pt x="419" y="1164" on="0"/>
        <pt x="419" y="1240" on="1"/>
        <pt x="419" y="1325" on="0"/>
        <pt x="483" y="1380" on="1"/>
        <pt x="536" y="1426" on="0"/>
      </contour>
      <contour>
        <pt x="610" y="1332" on="1"/>
        <pt x="566" y="1332" on="0"/>
        <pt x="537" y="1300" on="1"/>
        <pt x="515" y="1274" on="0"/>
        <pt x="515" y="1240" on="1"/>
        <pt x="515" y="1202" on="0"/>
        <pt x="545" y="1173" on="1"/>
        <pt x="570" y="1148" on="0"/>
        <pt x="609" y="1148" on="1"/>
        <pt x="654" y="1148" on="0"/>
        <pt x="681" y="1180" on="1"/>
        <pt x="703" y="1206" on="0"/>
        <pt x="703" y="1239" on="1"/>
        <pt x="703" y="1278" on="0"/>
        <pt x="673" y="1307" on="1"/>
        <pt x="648" y="1332" on="0"/>
      </contour>
    </TTGlyph>
</ttFont>
